SplineFontDB: 3.0
FontName: PuraleckaNarrow-Regular
FullName: Puralecka Narrow Regular
FamilyName: Puralecka Narrow
Weight: Regular
Copyright: Copyright (c) 2012-2014, Omnibus-Type (www.omnibus-type.com omnibus.type@gmail.com) with Reserved Font Name 'Puralecka'
Version: 001.004
ItalicAngle: 0
UnderlinePosition: -63
UnderlineWidth: 63
Ascent: 800
Descent: 200
InvalidEm: 0
sfntRevision: 0x00010106
LayerCount: 2
Layer: 0 0 "Back" 1
Layer: 1 0 "Fore" 0
XUID: [1021 191 1600663927 94360]
FSType: 8
OS2Version: 3
OS2_WeightWidthSlopeOnly: 0
OS2_UseTypoMetrics: 1
CreationTime: 1417528908
ModificationTime: 1417560447
PfmFamily: 17
TTFWeight: 400
TTFWidth: 5
LineGap: 0
VLineGap: 0
Panose: 2 11 5 6 2 2 2 2 11 4
OS2TypoAscent: 1124
OS2TypoAOffset: 0
OS2TypoDescent: -510
OS2TypoDOffset: 0
OS2TypoLinegap: 0
OS2WinAscent: 1124
OS2WinAOffset: 0
OS2WinDescent: 510
OS2WinDOffset: 0
HheadAscent: 1124
HheadAOffset: 0
HheadDescent: -510
HheadDOffset: 0
OS2SubXSize: 821
OS2SubYSize: 758
OS2SubXOff: 0
OS2SubYOff: 95
OS2SupXSize: 821
OS2SupYSize: 758
OS2SupXOff: 0
OS2SupYOff: 442
OS2StrikeYSize: 63
OS2StrikeYPos: 352
OS2CapHeight: 0
OS2XHeight: 0
OS2Vendor: 'OMNI'
OS2CodePages: 20000093.00000000
OS2UnicodeRanges: 00008007.00000000.00000000.00000000
Lookup: 1 0 0 "'aalt' Access All Alternates lookup 0" { "'aalt' Access All Alternates lookup 0 subtable"  } ['aalt' ('DFLT' <'dflt' > 'dev2' <'MAR ' 'NEP ' 'dflt' > 'deva' <'MAR ' 'NEP ' 'dflt' > 'grek' <'dflt' > 'latn' <'CAT ' 'MOL ' 'ROM ' 'dflt' > ) ]
Lookup: 3 0 0 "'aalt' Access All Alternates lookup 1" { "'aalt' Access All Alternates lookup 1 subtable"  } ['aalt' ('DFLT' <'dflt' > 'dev2' <'MAR ' 'NEP ' 'dflt' > 'deva' <'MAR ' 'NEP ' 'dflt' > 'grek' <'dflt' > 'latn' <'CAT ' 'MOL ' 'ROM ' 'dflt' > ) ]
Lookup: 4 0 0 "Ligature Substitution lookup 2" { "Ligature Substitution lookup 2 subtable"  } []
Lookup: 4 0 0 "Ligature Substitution lookup 3" { "Ligature Substitution lookup 3 subtable"  } []

StartChar: .notdef
Encoding: 65536 -1 0
Width: 558
VWidth: 1263
Flags: W
HStem: 0 56<90 469> 726 56<90 469>
VStem: 0 56<106 676> 503 55<106 676>
LayerCount: 2
Back
Fore
SplineSet
0 782 m 1
 558 782 l 1
 558 0 l 1
 0 0 l 1
 0 782 l 1
469 726 m 1
 90 726 l 1
 279 441 l 1
 469 726 l 1
56 676 m 1
 56 106 l 1
 245 390 l 1
 56 676 l 1
503 676 m 1
 313 390 l 1
 503 106 l 1
 503 676 l 1
279 341 m 1
 90 56 l 1
 469 56 l 1
 279 341 l 1
EndSplineSet
EndChar

StartChar: A
Encoding: 65 65 2
Width: 611
VWidth: 1263
GlyphClass: 2
Flags: W
HStem: 0 21G<-1 103.082 498.918 611> 171 89<177 426> 745 20G<235.647 375.327>
AnchorPoint: "Anchor-1" 0 0 basechar 0
AnchorPoint: "Anchor-0" 306 765 basechar 0
LayerCount: 2
Back
Fore
SplineSet
505 0 m 1
 453 171 l 1
 149 171 l 1
 97 0 l 1
 -1 0 l 1
 242 765 l 1
 369 765 l 1
 611 0 l 1
 505 0 l 1
307.725024744 684.545080358 m 1
 177 260 l 1
 426 260 l 1
 322 601 l 1
 313 626 307.725024744 684.545080358 307.725024744 684.545080358 c 1
EndSplineSet
Substitution2: "Single Substitution lookup 40 subtable" ordfeminine
Substitution2: "'aalt' Access All Alternates lookup 0 subtable" ordfeminine
Position2: "'cpsp' Capital Spacing lookup 0 subtable" dx=6 dy=0 dh=13 dv=0
EndChar

StartChar: Aacute
Encoding: 193 193 3
Width: 611
VWidth: 1263
GlyphClass: 2
Flags: W
HStem: 0 21G<-1 103.082 498.918 611> 171 89<177 426> 745 20G<235.647 375.327>
LayerCount: 2
Back
Fore
SplineSet
316 839 m 1
 239 839 l 1
 335 986 l 1
 436 986 l 1
 316 839 l 1
505 0 m 1
 453 171 l 1
 149 171 l 1
 97 0 l 1
 -1 0 l 1
 242 765 l 1
 369 765 l 1
 611 0 l 1
 505 0 l 1
307.725024744 684.545080358 m 1
 177 260 l 1
 426 260 l 1
 322 601 l 1
 313 626 307.725024744 684.545080358 307.725024744 684.545080358 c 1
EndSplineSet
Position2: "'cpsp' Capital Spacing lookup 0 subtable" dx=6 dy=0 dh=13 dv=0
EndChar

StartChar: Abreve
Encoding: 258 258 4
Width: 611
VWidth: 1263
GlyphClass: 2
Flags: W
HStem: 0 21G<-1 103.082 498.918 611> 171 89<177 426> 745 20G<235.647 375.327> 878 71<249.226 362.336>
VStem: 168 71<961.895 986> 371 72<961.895 986>
LayerCount: 2
Back
Fore
SplineSet
443 986 m 1
 443 935 390 878 304 878 c 0
 219 878 168 935 168 986 c 1
 239 986 l 1
 243 970 267 949 304 949 c 0
 342 949 370 970 371 986 c 1
 443 986 l 1
505 0 m 1
 453 171 l 1
 149 171 l 1
 97 0 l 1
 -1 0 l 1
 242 765 l 1
 369 765 l 1
 611 0 l 1
 505 0 l 1
307.725024744 684.545080358 m 1
 177 260 l 1
 426 260 l 1
 322 601 l 1
 313 626 307.725024744 684.545080358 307.725024744 684.545080358 c 1
EndSplineSet
Position2: "'cpsp' Capital Spacing lookup 0 subtable" dx=6 dy=0 dh=13 dv=0
EndChar

StartChar: Acircumflex
Encoding: 194 194 5
Width: 611
VWidth: 1263
GlyphClass: 2
Flags: W
HStem: 0 21G<-1 103.082 498.918 611> 171 89<177 426> 745 20G<235.647 375.327>
LayerCount: 2
Back
Fore
SplineSet
355 834 m 1
 306 922 l 1
 255 834 l 1
 167 834 l 1
 263 985 l 1
 350 985 l 1
 445 834 l 1
 355 834 l 1
505 0 m 1
 453 171 l 1
 149 171 l 1
 97 0 l 1
 -1 0 l 1
 242 765 l 1
 369 765 l 1
 611 0 l 1
 505 0 l 1
307.725024744 684.545080358 m 1
 177 260 l 1
 426 260 l 1
 322 601 l 1
 313 626 307.725024744 684.545080358 307.725024744 684.545080358 c 1
EndSplineSet
Position2: "'cpsp' Capital Spacing lookup 0 subtable" dx=6 dy=0 dh=13 dv=0
EndChar

StartChar: Adieresis
Encoding: 196 196 6
Width: 611
VWidth: 1263
GlyphClass: 2
Flags: W
HStem: 0 21G<-1 103.082 498.918 611> 171 89<177 426> 745 20G<235.647 375.327> 880 106<173 270 341 438>
VStem: 173 97<880 986> 341 97<880 986>
LayerCount: 2
Back
Fore
SplineSet
173 880 m 1
 173 986 l 1
 270 986 l 1
 270 880 l 1
 173 880 l 1
341 880 m 1
 341 986 l 1
 438 986 l 1
 438 880 l 1
 341 880 l 1
505 0 m 1
 453 171 l 1
 149 171 l 1
 97 0 l 1
 -1 0 l 1
 242 765 l 1
 369 765 l 1
 611 0 l 1
 505 0 l 1
307.725024744 684.545080358 m 1
 177 260 l 1
 426 260 l 1
 322 601 l 1
 313 626 307.725024744 684.545080358 307.725024744 684.545080358 c 1
EndSplineSet
Position2: "'cpsp' Capital Spacing lookup 0 subtable" dx=6 dy=0 dh=13 dv=0
EndChar

StartChar: Agrave
Encoding: 192 192 7
Width: 611
VWidth: 1263
GlyphClass: 2
Flags: W
HStem: 0 21G<-1 103.082 498.918 611> 171 89<177 426> 745 20G<235.647 375.327>
LayerCount: 2
Back
Fore
SplineSet
294 839 m 1
 172.524590164 984.770491803 l 1
 275 984.770491803 l 1
 371 839 l 1
 294 839 l 1
505 0 m 1
 453 171 l 1
 149 171 l 1
 97 0 l 1
 -1 0 l 1
 242 765 l 1
 369 765 l 1
 611 0 l 1
 505 0 l 1
307.725024744 684.545080358 m 1
 177 260 l 1
 426 260 l 1
 322 601 l 1
 313 626 307.725024744 684.545080358 307.725024744 684.545080358 c 1
EndSplineSet
Position2: "'cpsp' Capital Spacing lookup 0 subtable" dx=6 dy=0 dh=13 dv=0
EndChar

StartChar: Amacron
Encoding: 256 256 8
Width: 611
VWidth: 1263
GlyphClass: 2
Flags: W
HStem: 0 21G<-1 103.082 498.918 611> 171 89<177 426> 745 20G<235.647 375.327> 847 81<165 446>
LayerCount: 2
Back
Fore
SplineSet
165 847 m 1
 165 928 l 1
 446 928 l 1
 446 847 l 1
 165 847 l 1
505 0 m 1
 453 171 l 1
 149 171 l 1
 97 0 l 1
 -1 0 l 1
 242 765 l 1
 369 765 l 1
 611 0 l 1
 505 0 l 1
307.725024744 684.545080358 m 1
 177 260 l 1
 426 260 l 1
 322 601 l 1
 313 626 307.725024744 684.545080358 307.725024744 684.545080358 c 1
EndSplineSet
Position2: "'cpsp' Capital Spacing lookup 0 subtable" dx=6 dy=0 dh=13 dv=0
EndChar

StartChar: Aogonek
Encoding: 260 260 9
Width: 611
VWidth: 1263
GlyphClass: 2
Flags: W
HStem: -203 73<595.204 669.922> -188 58<603.078 671> 0 21G<-1 103.082> 171 89<177 426> 745 20G<235.647 375.327>
VStem: 498 87<-120.321 -28.3595> 538 47<-33.3379 -6.82896>
LayerCount: 2
Back
Fore
SplineSet
671 -130 m 1x7c
 671 -188 l 1x7c
 648 -197 625 -203 602 -203 c 0
 554 -203 498 -179 498 -102 c 0xbc
 498 -54 518 -29 538 -4 c 1
 538 0 l 1xba
 505 0 l 1
 453 171 l 1
 149 171 l 1
 97 0 l 1
 -1 0 l 1
 242 765 l 1
 369 765 l 1
 611.287563161 -0.909032307169 l 1
 600.287563161 -15.9090323072 585 -37 585 -69 c 0
 585 -101 599 -130 637 -130 c 2xbc
 671 -130 l 1x7c
426 260 m 1
 296.665460239 684.068058255 l 1
 296.665460239 684.068058255 290 625 282 601 c 2
 177 260 l 1
 426 260 l 1
EndSplineSet
Position2: "'cpsp' Capital Spacing lookup 0 subtable" dx=6 dy=0 dh=13 dv=0
EndChar

StartChar: Aring
Encoding: 197 197 10
Width: 611
VWidth: 1263
GlyphClass: 2
Flags: W
HStem: 0 21G<-1 103.082 498.918 611> 171 89<177 426> 745 20G<235.647 375.327> 807 51<260.333 348.707> 971 51<260.118 347.709>
VStem: 197 51<870.58 958.586> 361 51<870.224 957.945>
LayerCount: 2
Back
Fore
SplineSet
304 1022 m 0
 366 1022 412 972 412 914 c 0
 412 855 365 807 304 807 c 0
 246 807 197 853 197 914 c 0
 197 973 245 1022 304 1022 c 0
304 971 m 0
 274 971 248 946 248 914 c 0
 248 882 274 858 304 858 c 0
 334 858 361 882 361 914 c 0
 361 946 334 971 304 971 c 0
505 0 m 1
 453 171 l 1
 149 171 l 1
 97 0 l 1
 -1 0 l 1
 242 765 l 1
 369 765 l 1
 611 0 l 1
 505 0 l 1
307.725024744 684.545080358 m 1
 177 260 l 1
 426 260 l 1
 322 601 l 1
 313 626 307.725024744 684.545080358 307.725024744 684.545080358 c 1
EndSplineSet
Position2: "'cpsp' Capital Spacing lookup 0 subtable" dx=6 dy=0 dh=13 dv=0
EndChar

StartChar: Aringacute
Encoding: 506 506 11
Width: 611
VWidth: 1263
GlyphClass: 2
Flags: W
HStem: 0 21G<-1 103.082 498.918 611> 171 89<177 426> 869 48<261.414 349.111>
VStem: 198 51<770.886 856.406> 362 51<771.191 856.191>
LayerCount: 2
Back
Fore
SplineSet
272 947 m 1
 351 1068 l 1
 451 1068 l 1
 349 947 l 1
 272 947 l 1
306 917 m 0
 367 917 413 870 413 813 c 0
 413 783 399 755 378 736 c 1
 611 0 l 1
 505 0 l 1
 453 171 l 1
 149 171 l 1
 97 0 l 1
 -1 0 l 1
 234 738 l 1
 213 756 198 783 198 813 c 0
 198 871 247 917 306 917 c 0
306 869 m 0
 274 869 249 843 249 813 c 0
 249 784 274 759 306 759 c 0
 336 759 362 784 362 813 c 0
 362 843 336 869 306 869 c 0
307.725024744 684.545080358 m 1
 177 260 l 1
 426 260 l 1
 322 601 l 1
 313 626 307.725024744 684.545080358 307.725024744 684.545080358 c 1
EndSplineSet
Position2: "'cpsp' Capital Spacing lookup 0 subtable" dx=6 dy=0 dh=13 dv=0
EndChar

StartChar: Atilde
Encoding: 195 195 12
Width: 611
VWidth: 1263
GlyphClass: 2
Flags: W
HStem: 0 21G<-1 103.082 498.918 611> 171 89<177 426> 745 20G<235.647 375.327> 870 82<297.344 399.656> 904 82<210.018 314.129>
VStem: 141 66<870 899.643> 403 64<955.985 986>
LayerCount: 2
Back
Fore
SplineSet
236 986 m 0xee
 283.748183803 987.560116029 320.198124457 952.480874728 365 952 c 0xf6
 385 952 399 959 403 986 c 1
 467 986 l 1xee
 467 934 441 870 373 870 c 0xf6
 325.534904124 870 290.871846455 904 245 904 c 0xee
 225 904 210 895 207 870 c 1
 141 870 l 1xf6
 141 921 169 986 236 986 c 0xee
505 0 m 1
 453 171 l 1
 149 171 l 1
 97 0 l 1
 -1 0 l 1
 242 765 l 1
 369 765 l 1
 611 0 l 1
 505 0 l 1
307.725024744 684.545080358 m 1
 177 260 l 1
 426 260 l 1
 322 601 l 1
 313 626 307.725024744 684.545080358 307.725024744 684.545080358 c 1
EndSplineSet
Position2: "'cpsp' Capital Spacing lookup 0 subtable" dx=6 dy=0 dh=13 dv=0
EndChar

StartChar: AE
Encoding: 198 198 13
Width: 915
VWidth: 1263
GlyphClass: 2
Flags: W
HStem: 0 90<591 874> 171 89<197 448> 347 90<533 818> 677 88<457 868>
AnchorPoint: "Anchor-1" 0 0 basechar 0
AnchorPoint: "Anchor-0" 457 765 basechar 0
LayerCount: 2
Back
Fore
SplineSet
818 437 m 1
 818 347 l 1
 533 347 l 1
 591 90 l 1
 874 90 l 1
 874 0 l 1
 505 0 l 1
 467 171 l 1
 163 171 l 1
 97 0 l 1
 -1 0 l 1
 312 765 l 1
 868 765 l 1
 868 677 l 1
 457 677 l 1
 513 437 l 1
 818 437 l 1
357.78493457 676.192168518 m 1
 197 260 l 1
 448 260 l 1
 357.78493457 676.192168518 l 1
EndSplineSet
Position2: "'cpsp' Capital Spacing lookup 0 subtable" dx=6 dy=0 dh=13 dv=0
EndChar

StartChar: AEacute
Encoding: 508 508 14
Width: 915
VWidth: 1263
GlyphClass: 2
Flags: W
HStem: 0 90<591 874> 171 89<197 448> 347 90<533 818> 677 88<457 868>
LayerCount: 2
Back
Fore
SplineSet
577 839 m 1
 500 839 l 1
 596 986 l 1
 697 986 l 1
 577 839 l 1
818 437 m 1
 818 347 l 1
 533 347 l 1
 591 90 l 1
 874 90 l 1
 874 0 l 1
 505 0 l 1
 467 171 l 1
 163 171 l 1
 97 0 l 1
 -1 0 l 1
 312 765 l 1
 868 765 l 1
 868 677 l 1
 457 677 l 1
 513 437 l 1
 818 437 l 1
357.78493457 676.192168518 m 1
 197 260 l 1
 448 260 l 1
 357.78493457 676.192168518 l 1
EndSplineSet
Position2: "'cpsp' Capital Spacing lookup 0 subtable" dx=6 dy=0 dh=13 dv=0
EndChar

StartChar: B
Encoding: 66 66 15
Width: 611
VWidth: 1263
GlyphClass: 2
Flags: W
HStem: 0 90<171 425.38> 347 90<171 405.633> 677 88<171 413.1>
VStem: 72 99<90 347 437 677> 457 104<487.669 633.701> 476 102<140.776 287.516>
LayerCount: 2
Back
Fore
SplineSet
362 765 m 2xf4
 476 765 561 690 561 578 c 0xf8
 561 490 509 426 443 402 c 1
 443 398 l 1
 519 374 578 302 578 203 c 0
 578 74 479 0 362 0 c 2
 72 0 l 1
 72 765 l 1
 362 765 l 2xf4
333 437 m 2
 409 437 457 493 457 557 c 0
 457 638 410 677 341 677 c 2
 171 677 l 1
 171 437 l 1
 333 437 l 2
350 90 m 2
 422 90 476 134 476 216 c 0xf4
 476 285 424 347 342 347 c 2
 171 347 l 1
 171 90 l 1
 350 90 l 2
EndSplineSet
Position2: "'cpsp' Capital Spacing lookup 0 subtable" dx=6 dy=0 dh=13 dv=0
EndChar

StartChar: C
Encoding: 67 67 16
Width: 660
VWidth: 1263
GlyphClass: 2
Flags: W
HStem: -14 91<253.305 437.595> 688 91<253.305 433.586>
VStem: 47 102<209.172 557.094> 518 97<166.948 274 489 594.532>
AnchorPoint: "Anchor-1" 331 0 basechar 0
AnchorPoint: "Anchor-0" 331 765 basechar 0
LayerCount: 2
Back
Fore
SplineSet
349 779 m 0
 506 779 615 685 615 489 c 1
 515 489 l 1
 515 623 449 688 349 688 c 0
 215 688 149 597 149 410 c 2
 149 355 l 2
 149 168 215 77 349 77 c 0
 451 77 518 141 518 274 c 1
 615 274 l 1
 615 77 506 -14 349 -14 c 0
 149 -14 47 118 47 383 c 0
 47 649 149 779 349 779 c 0
EndSplineSet
Position2: "'cpsp' Capital Spacing lookup 0 subtable" dx=6 dy=0 dh=13 dv=0
EndChar

StartChar: Cacute
Encoding: 262 262 17
Width: 660
VWidth: 1263
GlyphClass: 2
Flags: W
HStem: -14 91<253.305 437.595> 688 91<253.305 433.586>
VStem: 47 102<209.172 557.094> 518 97<166.948 274 489 594.532>
LayerCount: 2
Back
Fore
SplineSet
357 839 m 1
 280 839 l 1
 376 986 l 1
 476 986 l 1
 357 839 l 1
349 779 m 0
 506 779 615 685 615 489 c 1
 515 489 l 1
 515 623 449 688 349 688 c 0
 215 688 149 597 149 410 c 2
 149 355 l 2
 149 168 215 77 349 77 c 0
 451 77 518 141 518 274 c 1
 615 274 l 1
 615 77 506 -14 349 -14 c 0
 149 -14 47 118 47 383 c 0
 47 649 149 779 349 779 c 0
EndSplineSet
Position2: "'cpsp' Capital Spacing lookup 0 subtable" dx=6 dy=0 dh=13 dv=0
EndChar

StartChar: Ccaron
Encoding: 268 268 18
Width: 660
VWidth: 1263
GlyphClass: 2
Flags: W
HStem: -14 91<253.305 437.595> 688 91<253.305 433.586>
VStem: 47 102<209.172 557.094> 518 97<166.948 274 489 594.532>
LayerCount: 2
Back
Fore
SplineSet
191 986 m 1
 280 986 l 1
 331 898 l 1
 380 986 l 1
 470 986 l 1
 373 835 l 1
 285 835 l 1
 191 986 l 1
349 779 m 0
 506 779 615 685 615 489 c 1
 515 489 l 1
 515 623 449 688 349 688 c 0
 215 688 149 597 149 410 c 2
 149 355 l 2
 149 168 215 77 349 77 c 0
 451 77 518 141 518 274 c 1
 615 274 l 1
 615 77 506 -14 349 -14 c 0
 149 -14 47 118 47 383 c 0
 47 649 149 779 349 779 c 0
EndSplineSet
Position2: "'cpsp' Capital Spacing lookup 0 subtable" dx=6 dy=0 dh=13 dv=0
EndChar

StartChar: Ccedilla
Encoding: 199 199 19
Width: 660
VWidth: 1263
GlyphClass: 2
Flags: W
HStem: -203 63<227.271 349.827> -195 55<226 318.498> -9 86<252.147 288 349 436.971> 688 91<253.305 433.586>
VStem: 47 102<208.208 557.094> 351 85<-137.957 -87.8528> 518 97<166.948 274 489 594.532>
LayerCount: 2
Back
Fore
SplineSet
349 779 m 0xbe
 506 779 615 685 615 489 c 1
 515 489 l 1
 515 623 449 688 349 688 c 0
 215 688 149 597 149 410 c 2
 149 355 l 2
 149 168 215 77 349 77 c 0
 451 77 518 141 518 274 c 1
 615 274 l 1
 615 77 506 -14 349 -14 c 1
 349 -40 l 1
 397 -43 436 -61 436 -112 c 0
 436 -188 365 -203 320 -203 c 0xbe
 288 -203 253 -200 226 -195 c 1
 226 -140 l 1x7e
 311 -140 l 2
 335 -140 351 -133 351 -112 c 0
 351 -94 342 -86 313 -86 c 2
 275 -86 l 1
 288 -9 l 1
 129 15 47 146 47 383 c 0
 47 649 149 779 349 779 c 0xbe
EndSplineSet
Position2: "'cpsp' Capital Spacing lookup 0 subtable" dx=6 dy=0 dh=13 dv=0
EndChar

StartChar: Ccircumflex
Encoding: 264 264 20
Width: 660
VWidth: 1263
GlyphClass: 2
Flags: W
HStem: -14 91<253.305 437.595> 688 91<253.305 433.586>
VStem: 47 102<209.172 557.094> 518 97<166.948 274 489 594.532>
LayerCount: 2
Back
Fore
SplineSet
332 922 m 1
 280 834 l 1
 191 834 l 1
 287 985 l 1
 374 985 l 1
 470 834 l 1
 380 834 l 1
 332 922 l 1
349 779 m 0
 506 779 615 685 615 489 c 1
 515 489 l 1
 515 623 449 688 349 688 c 0
 215 688 149 597 149 410 c 2
 149 355 l 2
 149 168 215 77 349 77 c 0
 451 77 518 141 518 274 c 1
 615 274 l 1
 615 77 506 -14 349 -14 c 0
 149 -14 47 118 47 383 c 0
 47 649 149 779 349 779 c 0
EndSplineSet
Position2: "'cpsp' Capital Spacing lookup 0 subtable" dx=6 dy=0 dh=13 dv=0
EndChar

StartChar: Cdotaccent
Encoding: 266 266 21
Width: 660
VWidth: 1263
GlyphClass: 2
Flags: W
HStem: -14 91<253.305 437.595> 688 91<253.305 433.586> 880 106<282 380>
VStem: 47 102<209.172 557.094> 282 98<880 986> 518 97<166.948 274 489 594.532>
LayerCount: 2
Back
Fore
SplineSet
282 986 m 1
 380 986 l 1
 380 880 l 1
 282 880 l 1
 282 986 l 1
349 779 m 0
 506 779 615 685 615 489 c 1
 515 489 l 1
 515 623 449 688 349 688 c 0
 215 688 149 597 149 410 c 2
 149 355 l 2
 149 168 215 77 349 77 c 0
 451 77 518 141 518 274 c 1
 615 274 l 1
 615 77 506 -14 349 -14 c 0
 149 -14 47 118 47 383 c 0
 47 649 149 779 349 779 c 0
EndSplineSet
Position2: "'cpsp' Capital Spacing lookup 0 subtable" dx=6 dy=0 dh=13 dv=0
EndChar

StartChar: D
Encoding: 68 68 22
Width: 660
VWidth: 1263
GlyphClass: 2
Flags: W
HStem: 0 90<177 395.429> 677 88<177 395.429>
VStem: 78 99<90 677> 504 102<221.484 555.75>
AnchorPoint: "Anchor-1" 0 0 basechar 0
AnchorPoint: "Anchor-0" 331 765 basechar 0
LayerCount: 2
Back
Fore
SplineSet
316 765 m 2
 497 765 606 640 606 394 c 0
 606 131 497 0 316 0 c 2
 78 0 l 1
 78 765 l 1
 316 765 l 2
307 90 m 2
 428 90 504 179 504 366 c 2
 504 422 l 2
 504 593 428 677 307 677 c 2
 177 677 l 1
 177 90 l 1
 307 90 l 2
EndSplineSet
Position2: "'cpsp' Capital Spacing lookup 0 subtable" dx=6 dy=0 dh=13 dv=0
EndChar

StartChar: Eth
Encoding: 208 208 23
Width: 660
VWidth: 1263
GlyphClass: 2
Flags: W
HStem: 0 90<177 395.429> 361 71<5 78 177 351> 677 88<177 395.429>
VStem: 78 99<90 361 432 677> 504 102<221.484 555.75>
LayerCount: 2
Back
Fore
SplineSet
78 765 m 1
 316 765 l 2
 497 765 606 640 606 394 c 0
 606 131 497 0 316 0 c 2
 78 0 l 1
 78 361 l 1
 5 361 l 1
 5 432 l 1
 78 432 l 1
 78 765 l 1
351 432 m 1
 351 361 l 1
 177 361 l 1
 177 90 l 1
 307 90 l 2
 428 90 504 179 504 366 c 2
 504 422 l 2
 504 593 428 677 307 677 c 2
 177 677 l 1
 177 432 l 1
 351 432 l 1
EndSplineSet
Position2: "'cpsp' Capital Spacing lookup 0 subtable" dx=6 dy=0 dh=13 dv=0
EndChar

StartChar: Dcaron
Encoding: 270 270 24
Width: 660
VWidth: 1263
GlyphClass: 2
Flags: W
HStem: 0 90<177 395.429> 677 88<177 395.429>
VStem: 78 99<90 677> 504 102<221.484 555.75>
LayerCount: 2
Back
Fore
SplineSet
191 986 m 1
 280 986 l 1
 331 898 l 1
 380 986 l 1
 470 986 l 1
 373 835 l 1
 285 835 l 1
 191 986 l 1
316 765 m 2
 497 765 606 640 606 394 c 0
 606 131 497 0 316 0 c 2
 78 0 l 1
 78 765 l 1
 316 765 l 2
307 90 m 2
 428 90 504 179 504 366 c 2
 504 422 l 2
 504 593 428 677 307 677 c 2
 177 677 l 1
 177 90 l 1
 307 90 l 2
EndSplineSet
Position2: "'cpsp' Capital Spacing lookup 0 subtable" dx=6 dy=0 dh=13 dv=0
EndChar

StartChar: Dcroat
Encoding: 272 272 25
Width: 660
VWidth: 1263
GlyphClass: 2
Flags: W
HStem: 0 90<177 395.429> 361 71<5 78 177 351> 677 88<177 395.429>
VStem: 78 99<90 361 432 677> 504 102<221.484 555.75>
LayerCount: 2
Back
Fore
SplineSet
78 765 m 1
 316 765 l 2
 497 765 606 640 606 394 c 0
 606 131 497 0 316 0 c 2
 78 0 l 1
 78 361 l 1
 5 361 l 1
 5 432 l 1
 78 432 l 1
 78 765 l 1
351 432 m 1
 351 361 l 1
 177 361 l 1
 177 90 l 1
 307 90 l 2
 428 90 504 179 504 366 c 2
 504 422 l 2
 504 593 428 677 307 677 c 2
 177 677 l 1
 177 432 l 1
 351 432 l 1
EndSplineSet
Position2: "'cpsp' Capital Spacing lookup 0 subtable" dx=6 dy=0 dh=13 dv=0
EndChar

StartChar: E
Encoding: 69 69 26
Width: 611
VWidth: 1263
GlyphClass: 2
Flags: W
HStem: 0 90<177 557> 347 90<177 501> 677 88<177 551>
VStem: 78 99<90 347 437 677>
AnchorPoint: "Anchor-1" 306 0 basechar 0
AnchorPoint: "Anchor-0" 306 765 basechar 0
LayerCount: 2
Back
Fore
SplineSet
551 765 m 1
 551 677 l 1
 177 677 l 1
 177 437 l 1
 501 437 l 1
 501 347 l 1
 177 347 l 1
 177 90 l 1
 557 90 l 1
 557 0 l 1
 78 0 l 1
 78 765 l 1
 551 765 l 1
EndSplineSet
Position2: "'cpsp' Capital Spacing lookup 0 subtable" dx=6 dy=0 dh=13 dv=0
EndChar

StartChar: Eacute
Encoding: 201 201 27
Width: 611
VWidth: 1263
GlyphClass: 2
Flags: W
HStem: 0 90<177 557> 347 90<177 501> 677 88<177 551>
VStem: 78 99<90 347 437 677>
LayerCount: 2
Back
Fore
SplineSet
316 839 m 1
 239 839 l 1
 335 986 l 1
 436 986 l 1
 316 839 l 1
177 677 m 1
 177 437 l 1
 501 437 l 1
 501 347 l 1
 177 347 l 1
 177 90 l 1
 557 90 l 1
 557 0 l 1
 78 0 l 1
 78 765 l 1
 551 765 l 1
 551 677 l 1
 177 677 l 1
EndSplineSet
Position2: "'cpsp' Capital Spacing lookup 0 subtable" dx=6 dy=0 dh=13 dv=0
EndChar

StartChar: Ebreve
Encoding: 276 276 28
Width: 611
VWidth: 1263
GlyphClass: 2
Flags: W
HStem: 0 90<177 557> 347 90<177 501> 677 88<177 551> 878 71<249.226 362.336>
VStem: 78 99<90 347 437 677> 168 71<961.895 986> 371 72<961.895 986>
LayerCount: 2
Back
Fore
SplineSet
443 986 m 1xf6
 443 935 390 878 304 878 c 0
 219 878 168 935 168 986 c 1
 239 986 l 1
 243 970 267 949 304 949 c 0
 342 949 370 970 371 986 c 1
 443 986 l 1xf6
551 765 m 1
 551 677 l 1
 177 677 l 1
 177 437 l 1
 501 437 l 1
 501 347 l 1
 177 347 l 1
 177 90 l 1
 557 90 l 1
 557 0 l 1
 78 0 l 1
 78 765 l 1xfa
 551 765 l 1
EndSplineSet
Position2: "'cpsp' Capital Spacing lookup 0 subtable" dx=6 dy=0 dh=13 dv=0
EndChar

StartChar: Ecaron
Encoding: 282 282 29
Width: 611
VWidth: 1263
GlyphClass: 2
Flags: W
HStem: 0 90<177 557> 347 90<177 501> 677 88<177 551>
VStem: 78 99<90 347 437 677>
LayerCount: 2
Back
Fore
SplineSet
167 986 m 1
 255 986 l 1
 304 898 l 1
 355 986 l 1
 445 986 l 1
 349 835 l 1
 261 835 l 1
 167 986 l 1
551 765 m 1
 551 677 l 1
 177 677 l 1
 177 437 l 1
 501 437 l 1
 501 347 l 1
 177 347 l 1
 177 90 l 1
 557 90 l 1
 557 0 l 1
 78 0 l 1
 78 765 l 1
 551 765 l 1
EndSplineSet
Position2: "'cpsp' Capital Spacing lookup 0 subtable" dx=6 dy=0 dh=13 dv=0
EndChar

StartChar: Ecircumflex
Encoding: 202 202 30
Width: 611
VWidth: 1263
GlyphClass: 2
Flags: W
HStem: 0 90<177 557> 347 90<177 501> 677 88<177 551>
VStem: 78 99<90 347 437 677>
LayerCount: 2
Back
Fore
SplineSet
306 922 m 1
 255 834 l 1
 167 834 l 1
 263 985 l 1
 350 985 l 1
 445 834 l 1
 355 834 l 1
 306 922 l 1
551 765 m 1
 551 677 l 1
 177 677 l 1
 177 437 l 1
 501 437 l 1
 501 347 l 1
 177 347 l 1
 177 90 l 1
 557 90 l 1
 557 0 l 1
 78 0 l 1
 78 765 l 1
 551 765 l 1
EndSplineSet
Position2: "'cpsp' Capital Spacing lookup 0 subtable" dx=6 dy=0 dh=13 dv=0
EndChar

StartChar: Edieresis
Encoding: 203 203 31
Width: 611
VWidth: 1263
GlyphClass: 2
Flags: W
HStem: 0 90<177 557> 347 90<177 501> 677 88<177 551> 880 106<173 270 341 438>
VStem: 78 99<90 347 437 677> 173 97<880 986> 341 97<880 986>
LayerCount: 2
Back
Fore
SplineSet
173 880 m 1xf6
 173 986 l 1
 270 986 l 1
 270 880 l 1
 173 880 l 1xf6
341 880 m 1
 341 986 l 1
 438 986 l 1
 438 880 l 1
 341 880 l 1
177 677 m 1xfa
 177 437 l 1
 501 437 l 1
 501 347 l 1
 177 347 l 1
 177 90 l 1
 557 90 l 1
 557 0 l 1
 78 0 l 1
 78 765 l 1
 551 765 l 1
 551 677 l 1
 177 677 l 1xfa
EndSplineSet
Position2: "'cpsp' Capital Spacing lookup 0 subtable" dx=6 dy=0 dh=13 dv=0
EndChar

StartChar: Edotaccent
Encoding: 278 278 32
Width: 611
VWidth: 1263
GlyphClass: 2
Flags: W
HStem: 0 90<177 557> 347 90<177 501> 677 88<177 551> 880 106<256 354>
VStem: 78 99<90 347 437 677> 256 98<880 986>
LayerCount: 2
Back
Fore
SplineSet
256 986 m 1
 354 986 l 1
 354 880 l 1
 256 880 l 1
 256 986 l 1
551 765 m 1
 551 677 l 1
 177 677 l 1
 177 437 l 1
 501 437 l 1
 501 347 l 1
 177 347 l 1
 177 90 l 1
 557 90 l 1
 557 0 l 1
 78 0 l 1
 78 765 l 1
 551 765 l 1
EndSplineSet
Position2: "'cpsp' Capital Spacing lookup 0 subtable" dx=6 dy=0 dh=13 dv=0
EndChar

StartChar: Egrave
Encoding: 200 200 33
Width: 611
VWidth: 1263
GlyphClass: 2
Flags: W
HStem: 0 90<177 557> 347 90<177 501> 677 88<177 551>
VStem: 78 99<90 347 437 677>
LayerCount: 2
Back
Fore
SplineSet
294 839 m 1
 172.524590164 984.770491803 l 1
 275 984.770491803 l 1
 371 839 l 1
 294 839 l 1
177 677 m 1
 177 437 l 1
 501 437 l 1
 501 347 l 1
 177 347 l 1
 177 90 l 1
 557 90 l 1
 557 0 l 1
 78 0 l 1
 78 765 l 1
 551 765 l 1
 551 677 l 1
 177 677 l 1
EndSplineSet
Position2: "'cpsp' Capital Spacing lookup 0 subtable" dx=6 dy=0 dh=13 dv=0
EndChar

StartChar: Emacron
Encoding: 274 274 34
Width: 611
VWidth: 1263
GlyphClass: 2
Flags: W
HStem: 0 90<177 557> 347 90<177 501> 677 88<177 551> 847 81<165 446>
VStem: 78 99<90 347 437 677>
LayerCount: 2
Back
Fore
SplineSet
165 928 m 1
 446 928 l 1
 446 847 l 1
 165 847 l 1
 165 928 l 1
551 765 m 1
 551 677 l 1
 177 677 l 1
 177 437 l 1
 501 437 l 1
 501 347 l 1
 177 347 l 1
 177 90 l 1
 557 90 l 1
 557 0 l 1
 78 0 l 1
 78 765 l 1
 551 765 l 1
EndSplineSet
Position2: "'cpsp' Capital Spacing lookup 0 subtable" dx=6 dy=0 dh=13 dv=0
EndChar

StartChar: Eogonek
Encoding: 280 280 35
Width: 611
VWidth: 1263
GlyphClass: 2
Flags: W
HStem: -203 73<541.197 614.877> -188 58<549.077 616> 0 90<177 485> 347 90<177 501> 677 88<177 551>
VStem: 78 99<90 347 437 677> 443 87<-120.321 -25.0911>
LayerCount: 2
Back
Fore
SplineSet
177 437 m 1xbe
 501 437 l 1
 501 347 l 1
 177 347 l 1
 177 90 l 1
 557 90 l 1
 557 0 l 1
 544 -16 530 -42 530 -69 c 0
 530 -101 544 -130 582 -130 c 2xbe
 616 -130 l 1
 616 -188 l 1x7e
 592 -197 571 -203 548 -203 c 0
 500 -203 443 -179 443 -102 c 0
 443 -55 461 -25 485 0 c 1
 78 0 l 1
 78 765 l 1
 551 765 l 1
 551 677 l 1
 177 677 l 1
 177 437 l 1xbe
EndSplineSet
Position2: "'cpsp' Capital Spacing lookup 0 subtable" dx=6 dy=0 dh=13 dv=0
EndChar

StartChar: F
Encoding: 70 70 36
Width: 559
VWidth: 1263
GlyphClass: 2
Flags: W
HStem: 0 21G<78 177> 340 88<177 480> 677 88<177 520>
VStem: 78 99<0 340 428 677>
LayerCount: 2
Back
Fore
SplineSet
520 765 m 1
 520 677 l 1
 177 677 l 1
 177 428 l 1
 480 428 l 1
 480 340 l 1
 177 340 l 1
 177 0 l 1
 78 0 l 1
 78 765 l 1
 520 765 l 1
EndSplineSet
Position2: "'cpsp' Capital Spacing lookup 0 subtable" dx=6 dy=0 dh=13 dv=0
EndChar

StartChar: G
Encoding: 71 71 37
Width: 712
VWidth: 1263
GlyphClass: 2
Flags: W
HStem: -14 91<262.825 455.081> 0 21G<569.824 640> 313 86<341 539> 688 91<268.372 454.744>
VStem: 54 104<209.172 557.094> 539 101<170.306 313 505 605.523> 575 65<0 27.0455>
AnchorPoint: "Anchor-1" 356 0 basechar 0
AnchorPoint: "Anchor-0" 356 765 basechar 0
LayerCount: 2
Back
Fore
SplineSet
341 399 m 1xbc
 640 399 l 1
 640 0 l 1
 575 0 l 1x7a
 553 85 l 1
 506 16 438 -14 356 -14 c 0
 163 -14 54 118 54 383 c 0
 54 649 170 779 361 779 c 0
 521 779 640 689 640 505 c 1
 539 505 l 1
 539 631 467 688 361 688 c 0
 236 688 158 597 158 410 c 2
 158 355 l 2
 158 168 227 77 356 77 c 0
 484 77 539 149 539 294 c 2
 539 313 l 1
 341 313 l 1
 341 399 l 1xbc
EndSplineSet
Position2: "'cpsp' Capital Spacing lookup 0 subtable" dx=6 dy=0 dh=13 dv=0
EndChar

StartChar: Gbreve
Encoding: 286 286 38
Width: 712
VWidth: 1263
GlyphClass: 2
Flags: W
HStem: -14 91<262.825 455.081> 0 21G<569.824 640> 313 86<341 539> 688 91<268.372 454.744> 878 71<298.881 413.892>
VStem: 54 104<209.172 557.094> 218 72<961.895 986> 423 72<961.895 986> 539 101<170.306 313 505 605.523> 575 65<0 27.0455>
LayerCount: 2
Back
Fore
SplineSet
356 878 m 0x3f
 271 878 218 935 218 986 c 1
 290 986 l 1
 293 970 319 949 356 949 c 0
 394 949 420 970 423 986 c 1
 495 986 l 1
 495 935 442 878 356 878 c 0x3f
341 399 m 1
 640 399 l 1
 640 0 l 1
 575 0 l 1x7f40
 553 85 l 1
 506 16 438 -14 356 -14 c 0
 163 -14 54 118 54 383 c 0
 54 649 170 779 361 779 c 0
 521 779 640 689 640 505 c 1
 539 505 l 1
 539 631 467 688 361 688 c 0
 236 688 158 597 158 410 c 2
 158 355 l 2
 158 168 227 77 356 77 c 0
 484 77 539 149 539 294 c 2
 539 313 l 1xbf80
 341 313 l 1
 341 399 l 1
EndSplineSet
Position2: "'cpsp' Capital Spacing lookup 0 subtable" dx=6 dy=0 dh=13 dv=0
EndChar

StartChar: Gcircumflex
Encoding: 284 284 39
Width: 712
VWidth: 1263
GlyphClass: 2
Flags: W
HStem: -14 91<262.825 455.081> 0 21G<569.824 640> 313 86<341 539> 688 91<268.372 454.744>
VStem: 54 104<209.172 557.094> 539 101<170.306 313 505 605.523> 575 65<0 27.0455>
LayerCount: 2
Back
Fore
SplineSet
307 834 m 1x38
 217 834 l 1
 313 985 l 1
 400 985 l 1
 495 834 l 1
 407 834 l 1
 357 922 l 1
 307 834 l 1x38
341 399 m 1
 640 399 l 1
 640 0 l 1
 575 0 l 1x7a
 553 85 l 1
 506 16 438 -14 356 -14 c 0
 163 -14 54 118 54 383 c 0
 54 649 170 779 361 779 c 0
 521 779 640 689 640 505 c 1
 539 505 l 1
 539 631 467 688 361 688 c 0
 236 688 158 597 158 410 c 2
 158 355 l 2
 158 168 227 77 356 77 c 0
 484 77 539 149 539 294 c 2
 539 313 l 1xbc
 341 313 l 1
 341 399 l 1
EndSplineSet
Position2: "'cpsp' Capital Spacing lookup 0 subtable" dx=6 dy=0 dh=13 dv=0
EndChar

StartChar: Gcommaaccent
Encoding: 290 290 40
Width: 712
VWidth: 1263
GlyphClass: 2
Flags: W
HStem: -14 91<262.825 455.081> 0 21G<569.824 640> 313 86<341 539> 688 91<268.372 454.744>
VStem: 54 104<209.172 557.094> 309 95<-160 -67> 539 101<170.306 313 505 605.523> 575 65<0 27.0455>
LayerCount: 2
Back
Fore
SplineSet
341 399 m 1xbe
 640 399 l 1
 640 0 l 1
 575 0 l 1x7d
 553 85 l 1
 506 16 438 -14 356 -14 c 0
 163 -14 54 118 54 383 c 0
 54 649 170 779 361 779 c 0
 521 779 640 689 640 505 c 1
 539 505 l 1
 539 631 467 688 361 688 c 0
 236 688 158 597 158 410 c 2
 158 355 l 2
 158 168 227 77 356 77 c 0
 484 77 539 149 539 294 c 2
 539 313 l 1
 341 313 l 1
 341 399 l 1xbe
309 -67 m 1
 404 -67 l 1
 404 -160 l 1
 371 -248 l 1
 322 -248 l 1
 347 -168 l 1
 309 -168 l 1
 309 -67 l 1
EndSplineSet
Position2: "'cpsp' Capital Spacing lookup 0 subtable" dx=6 dy=0 dh=13 dv=0
EndChar

StartChar: Gdotaccent
Encoding: 288 288 41
Width: 712
VWidth: 1263
GlyphClass: 2
Flags: W
HStem: -14 91<262.825 455.081> 0 21G<569.824 640> 313 86<341 539> 688 91<268.372 454.744> 880 106<308 405>
VStem: 54 104<209.172 557.094> 308 97<880 986> 539 101<170.306 313 505 605.523> 575 65<0 27.0455>
LayerCount: 2
Back
Fore
SplineSet
405 880 m 1x3e
 308 880 l 1
 308 986 l 1
 405 986 l 1
 405 880 l 1x3e
341 399 m 1
 640 399 l 1
 640 0 l 1
 575 0 l 1x7e80
 553 85 l 1
 506 16 438 -14 356 -14 c 0
 163 -14 54 118 54 383 c 0
 54 649 170 779 361 779 c 0
 521 779 640 689 640 505 c 1
 539 505 l 1
 539 631 467 688 361 688 c 0
 236 688 158 597 158 410 c 2
 158 355 l 2
 158 168 227 77 356 77 c 0
 484 77 539 149 539 294 c 2
 539 313 l 1xbf
 341 313 l 1
 341 399 l 1
EndSplineSet
Position2: "'cpsp' Capital Spacing lookup 0 subtable" dx=6 dy=0 dh=13 dv=0
EndChar

StartChar: H
Encoding: 72 72 42
Width: 660
VWidth: 1263
GlyphClass: 2
Flags: W
HStem: 0 21G<78 177 485 582> 347 90<177 485> 745 20G<78 177 485 582>
VStem: 78 99<0 347 437 765> 485 97<0 347 437 765>
AnchorPoint: "Anchor-1" 0 0 basechar 0
AnchorPoint: "Anchor-0" 331 765 basechar 0
LayerCount: 2
Back
Fore
SplineSet
485 0 m 1
 485 347 l 1
 177 347 l 1
 177 0 l 1
 78 0 l 1
 78 765 l 1
 177 765 l 1
 177 437 l 1
 485 437 l 1
 485 765 l 1
 582 765 l 1
 582 0 l 1
 485 0 l 1
EndSplineSet
Position2: "'cpsp' Capital Spacing lookup 0 subtable" dx=6 dy=0 dh=13 dv=0
EndChar

StartChar: Hbar
Encoding: 294 294 43
Width: 660
VWidth: 1263
GlyphClass: 2
Flags: W
HStem: 0 21G<78 177 485 582> 342 89<177 485> 547 81<23 78 177 485 582 639> 745 20G<78 177 485 582>
VStem: 78 99<0 342 431 547 628 765> 485 97<0 342 431 547 628 765>
LayerCount: 2
Back
Fore
SplineSet
582 0 m 1
 485 0 l 1
 485 342 l 1
 177 342 l 1
 177 0 l 1
 78 0 l 1
 78 547 l 1
 23 547 l 1
 23 628 l 1
 78 628 l 1
 78 765 l 1
 177 765 l 1
 177 628 l 1
 485 628 l 1
 485 765 l 1
 582 765 l 1
 582 628 l 1
 639 628 l 1
 639 547 l 1
 582 547 l 1
 582 0 l 1
177 547 m 1
 177 431 l 1
 485 431 l 1
 485 547 l 1
 177 547 l 1
EndSplineSet
Position2: "'cpsp' Capital Spacing lookup 0 subtable" dx=6 dy=0 dh=13 dv=0
EndChar

StartChar: Hcircumflex
Encoding: 292 292 44
Width: 660
VWidth: 1263
GlyphClass: 2
Flags: W
HStem: 0 21G<78 177 485 582> 347 90<177 485> 745 20G<78 177 485 582>
VStem: 78 99<0 347 437 765> 485 97<0 347 437 765>
LayerCount: 2
Back
Fore
SplineSet
380 834 m 1
 332 922 l 1
 280 834 l 1
 191 834 l 1
 287 985 l 1
 374 985 l 1
 470 834 l 1
 380 834 l 1
485 0 m 1
 485 347 l 1
 177 347 l 1
 177 0 l 1
 78 0 l 1
 78 765 l 1
 177 765 l 1
 177 437 l 1
 485 437 l 1
 485 765 l 1
 582 765 l 1
 582 0 l 1
 485 0 l 1
EndSplineSet
Position2: "'cpsp' Capital Spacing lookup 0 subtable" dx=6 dy=0 dh=13 dv=0
EndChar

StartChar: I
Encoding: 73 73 45
Width: 255
VWidth: 1263
GlyphClass: 2
Flags: W
HStem: 0 21G<78 177> 745 20G<78 177>
VStem: 78 99<0 765>
AnchorPoint: "Anchor-1" 0 0 basechar 0
AnchorPoint: "Anchor-0" 128 765 basechar 0
LayerCount: 2
Back
Fore
SplineSet
78 765 m 1
 177 765 l 1
 177 0 l 1
 78 0 l 1
 78 765 l 1
EndSplineSet
Position2: "'cpsp' Capital Spacing lookup 0 subtable" dx=6 dy=0 dh=13 dv=0
EndChar

StartChar: IJ
Encoding: 306 306 46
Width: 712
VWidth: 1263
GlyphClass: 2
Flags: W
HStem: -14 91<394.61 515.343> 0 21G<78 177> 745 20G<78 177 542 640>
VStem: 78 99<0 765> 269 99<106.697 232> 542 98<106.697 765>
LayerCount: 2
Back
Fore
SplineSet
78 0 m 1x7c
 78 765 l 1
 177 765 l 1
 177 0 l 1
 78 0 l 1x7c
640 182 m 2
 640 54 572 -14 455 -14 c 0
 338 -14 269 54 269 182 c 2
 269 232 l 1
 368 232 l 1
 368 177 l 2
 368 111 399 77 455 77 c 0xbc
 511 77 542 111 542 177 c 2
 542 765 l 1
 640 765 l 1
 640 182 l 2
EndSplineSet
Position2: "'cpsp' Capital Spacing lookup 0 subtable" dx=6 dy=0 dh=13 dv=0
EndChar

StartChar: Iacute
Encoding: 205 205 47
Width: 255
VWidth: 1263
GlyphClass: 2
Flags: W
HStem: 0 21G<78 177> 745 20G<78 177>
VStem: 78 99<0 765>
LayerCount: 2
Back
Fore
SplineSet
139 839 m 1
 62 839 l 1
 158 986 l 1
 256 986 l 1
 139 839 l 1
78 0 m 1
 78 765 l 1
 177 765 l 1
 177 0 l 1
 78 0 l 1
EndSplineSet
Position2: "'cpsp' Capital Spacing lookup 0 subtable" dx=6 dy=0 dh=13 dv=0
EndChar

StartChar: Ibreve
Encoding: 300 300 48
Width: 255
VWidth: 1263
GlyphClass: 2
Flags: W
HStem: 0 21G<78 177> 745 20G<78 177> 878 71<72.4119 185.736>
VStem: -11 73<961.895 986> 78 99<0 765> 195 70<961.895 986>
LayerCount: 2
Back
Fore
SplineSet
265 986 m 1
 265 935 214 878 128 878 c 0
 43 878 -11 935 -11 986 c 1
 62 986 l 1
 65 970 91 949 128 949 c 0
 166 949 192 970 195 986 c 1
 265 986 l 1
78 765 m 1
 177 765 l 1
 177 0 l 1
 78 0 l 1
 78 765 l 1
EndSplineSet
Position2: "'cpsp' Capital Spacing lookup 0 subtable" dx=6 dy=0 dh=13 dv=0
EndChar

StartChar: Icircumflex
Encoding: 206 206 49
Width: 255
VWidth: 1263
GlyphClass: 2
Flags: W
HStem: 0 21G<78 177> 745 20G<78 177>
VStem: 78 99<0 765>
LayerCount: 2
Back
Fore
SplineSet
129 922 m 1
 78 834 l 1
 -13 834 l 1
 85 985 l 1
 172 985 l 1
 266 834 l 1
 178 834 l 1
 129 922 l 1
78 765 m 1
 177 765 l 1
 177 0 l 1
 78 0 l 1
 78 765 l 1
EndSplineSet
Position2: "'cpsp' Capital Spacing lookup 0 subtable" dx=6 dy=0 dh=13 dv=0
EndChar

StartChar: Idieresis
Encoding: 207 207 50
Width: 255
VWidth: 1263
GlyphClass: 2
Flags: W
HStem: 0 21G<78 177> 745 20G<78 177> 880 106<-5 92 163 260>
VStem: -5 97<880 986> 78 99<0 765> 163 97<880 986>
LayerCount: 2
Back
Fore
SplineSet
-5 880 m 1xf0
 -5 986 l 1
 92 986 l 1
 92 880 l 1
 -5 880 l 1xf0
163 880 m 1xe4
 163 986 l 1
 260 986 l 1
 260 880 l 1
 163 880 l 1xe4
78 0 m 1xe8
 78 765 l 1
 177 765 l 1
 177 0 l 1
 78 0 l 1xe8
EndSplineSet
Position2: "'cpsp' Capital Spacing lookup 0 subtable" dx=6 dy=0 dh=13 dv=0
EndChar

StartChar: Idotaccent
Encoding: 304 304 51
Width: 255
VWidth: 1263
GlyphClass: 2
Flags: W
HStem: 0 21G<78 177> 745 20G<78 177> 880 106<80 177>
VStem: 78 99<0 765 880 986>
LayerCount: 2
Back
Fore
SplineSet
80 986 m 1
 177 986 l 1
 177 880 l 1
 80 880 l 1
 80 986 l 1
78 765 m 1
 177 765 l 1
 177 0 l 1
 78 0 l 1
 78 765 l 1
EndSplineSet
Position2: "'cpsp' Capital Spacing lookup 0 subtable" dx=6 dy=0 dh=13 dv=0
EndChar

StartChar: Igrave
Encoding: 204 204 52
Width: 255
VWidth: 1263
GlyphClass: 2
Flags: W
HStem: 0 21G<78 177> 745 20G<78 177>
VStem: 78 99<0 765>
LayerCount: 2
Back
Fore
SplineSet
117 839 m 1
 -5.47757017271 984.758430619 l 1
 99 984.758430619 l 1
 195 839 l 1
 117 839 l 1
78 0 m 1
 78 765 l 1
 177 765 l 1
 177 0 l 1
 78 0 l 1
EndSplineSet
Position2: "'cpsp' Capital Spacing lookup 0 subtable" dx=6 dy=0 dh=13 dv=0
EndChar

StartChar: Imacron
Encoding: 298 298 53
Width: 255
VWidth: 1263
GlyphClass: 2
Flags: W
HStem: 0 21G<78 177> 745 20G<78 177> 847 81<-13 268>
VStem: 78 99<0 765>
LayerCount: 2
Back
Fore
SplineSet
-13 928 m 1
 268 928 l 1
 268 847 l 1
 -13 847 l 1
 -13 928 l 1
78 765 m 1
 177 765 l 1
 177 0 l 1
 78 0 l 1
 78 765 l 1
EndSplineSet
Position2: "'cpsp' Capital Spacing lookup 0 subtable" dx=6 dy=0 dh=13 dv=0
EndChar

StartChar: Iogonek
Encoding: 302 302 54
Width: 255
VWidth: 1263
GlyphClass: 2
Flags: W
HStem: -203 73<158.911 234.923> -188 58<169.077 236> 745 20G<78 177>
VStem: 63 86<-119.933 -24.6424> 78 99<0 765>
LayerCount: 2
Back
Fore
SplineSet
149 -69 m 0xb0
 149 -101 164 -130 201 -130 c 2xb0
 236 -130 l 1
 236 -188 l 1x70
 213 -197 191 -203 168 -203 c 0
 120 -203 63 -179 63 -102 c 0xb0
 63 -54 81 -25 104 0 c 1
 78 0 l 1
 78 765 l 1
 177 765 l 1
 177 -3 l 1xa8
 166 -19 149 -40 149 -69 c 0xb0
EndSplineSet
Position2: "'cpsp' Capital Spacing lookup 0 subtable" dx=6 dy=0 dh=13 dv=0
EndChar

StartChar: Itilde
Encoding: 296 296 55
Width: 255
VWidth: 1263
GlyphClass: 2
Flags: W
HStem: 0 21G<78 177> 745 20G<78 177> 870 82<119.985 222.463> 904 82<32.6748 135.613>
VStem: -35 64<870 899.643> 78 99<0 765> 226 64<955.985 986>
CounterMasks: 1 0e
LayerCount: 2
Back
Fore
SplineSet
59 986 m 0xde
 105.618766536 986 143.374185135 952 188 952 c 0xee
 207 952 222 959 226 986 c 1
 290 986 l 1xde
 290 934 263 870 196 870 c 0xee
 150.1351788 870 112.491816198 904 67 904 c 0xde
 47 904 33 895 29 870 c 1
 -35 870 l 1xee
 -35 921 -8 986 59 986 c 0xde
78 765 m 1
 177 765 l 1
 177 0 l 1
 78 0 l 1
 78 765 l 1
EndSplineSet
Position2: "'cpsp' Capital Spacing lookup 0 subtable" dx=6 dy=0 dh=13 dv=0
EndChar

StartChar: J
Encoding: 74 74 56
Width: 457
VWidth: 1263
GlyphClass: 2
Flags: W
HStem: -14 91<139.395 260.343> 745 20G<287 385>
VStem: 14 98<106.697 232> 287 98<106.697 765>
AnchorPoint: "Anchor-1" 0 0 basechar 0
AnchorPoint: "Anchor-0" 229 765 basechar 0
LayerCount: 2
Back
Fore
SplineSet
385 182 m 2
 385 54 317 -14 200 -14 c 0
 83 -14 14 54 14 182 c 2
 14 232 l 1
 112 232 l 1
 112 177 l 2
 112 111 144 77 200 77 c 0
 256 77 287 111 287 177 c 2
 287 765 l 1
 385 765 l 1
 385 182 l 2
EndSplineSet
Position2: "'cpsp' Capital Spacing lookup 0 subtable" dx=6 dy=0 dh=13 dv=0
EndChar

StartChar: Jcircumflex
Encoding: 308 308 57
Width: 457
VWidth: 1263
GlyphClass: 2
Flags: W
HStem: -14 91<139.395 260.343> 745 20G<287 385>
VStem: 14 98<106.697 232> 287 98<106.697 765>
LayerCount: 2
Back
Fore
SplineSet
388 834 m 1
 338 922 l 1
 287 834 l 1
 197 834 l 1
 293 985 l 1
 380 985 l 1
 476 834 l 1
 388 834 l 1
385 182 m 2
 385 54 317 -14 200 -14 c 0
 83 -14 14 54 14 182 c 2
 14 232 l 1
 112 232 l 1
 112 177 l 2
 112 111 144 77 200 77 c 0
 256 77 287 111 287 177 c 2
 287 765 l 1
 385 765 l 1
 385 182 l 2
EndSplineSet
Position2: "'cpsp' Capital Spacing lookup 0 subtable" dx=6 dy=0 dh=13 dv=0
EndChar

StartChar: K
Encoding: 75 75 58
Width: 611
VWidth: 1263
GlyphClass: 2
Flags: W
HStem: 0 21G<78 177 476 597> 745 20G<78 177 465 590>
VStem: 78 99<0 237 361 765>
AnchorPoint: "Anchor-1" 306 0 basechar 0
AnchorPoint: "Anchor-0" 306 765 basechar 0
LayerCount: 2
Back
Fore
SplineSet
177 0 m 1
 78 0 l 1
 78 765 l 1
 177 765 l 1
 177 361 l 1
 480 765 l 1
 590 765 l 1
 360 457 l 1
 597 0 l 1
 486 0 l 1
 299 374 l 1
 177 237 l 1
 177 0 l 1
EndSplineSet
Position2: "'cpsp' Capital Spacing lookup 0 subtable" dx=6 dy=0 dh=13 dv=0
EndChar

StartChar: Kcommaaccent
Encoding: 310 310 59
Width: 611
VWidth: 1263
GlyphClass: 2
Flags: W
HStem: 0 21G<78 177 476 597> 745 20G<78 177 465 590>
VStem: 78 99<0 237 361 765> 258 94<-160 -67>
LayerCount: 2
Back
Fore
SplineSet
177 0 m 1
 78 0 l 1
 78 765 l 1
 177 765 l 1
 177 361 l 1
 480 765 l 1
 590 765 l 1
 360 457 l 1
 597 0 l 1
 486 0 l 1
 299 374 l 1
 177 237 l 1
 177 0 l 1
258 -168 m 1
 258 -67 l 1
 352 -67 l 1
 352 -160 l 1
 321 -248 l 1
 272 -248 l 1
 296 -168 l 1
 258 -168 l 1
EndSplineSet
Position2: "'cpsp' Capital Spacing lookup 0 subtable" dx=6 dy=0 dh=13 dv=0
EndChar

StartChar: L
Encoding: 76 76 60
Width: 508
VWidth: 1263
GlyphClass: 2
Flags: W
HStem: 0 90<177 489> 745 20G<78 177>
VStem: 78 99<90 765>
AnchorPoint: "Anchor-1" 255 0 basechar 0
AnchorPoint: "Anchor-0" 255 765 basechar 0
LayerCount: 2
Back
Fore
SplineSet
489 90 m 1
 489 0 l 1
 78 0 l 1
 78 765 l 1
 177 765 l 1
 177 90 l 1
 489 90 l 1
EndSplineSet
Position2: "'cpsp' Capital Spacing lookup 0 subtable" dx=6 dy=0 dh=13 dv=0
EndChar

StartChar: Lacute
Encoding: 313 313 61
Width: 508
VWidth: 1263
GlyphClass: 2
Flags: W
HStem: 0 90<177 489> 745 20G<78 177>
VStem: 78 99<90 765>
LayerCount: 2
Back
Fore
SplineSet
135 839 m 1
 57 839 l 1
 153 986 l 1
 254 986 l 1
 135 839 l 1
489 90 m 1
 489 0 l 1
 78 0 l 1
 78 765 l 1
 177 765 l 1
 177 90 l 1
 489 90 l 1
EndSplineSet
Position2: "'cpsp' Capital Spacing lookup 0 subtable" dx=6 dy=0 dh=13 dv=0
EndChar

StartChar: Lcaron
Encoding: 317 317 62
Width: 508
VWidth: 1263
GlyphClass: 2
Flags: W
HStem: 0 90<177 489> 745 20G<78 177 356 467>
VStem: 78 99<90 765> 356 111<655 765>
LayerCount: 2
Back
Fore
SplineSet
489 90 m 1
 489 0 l 1
 78 0 l 1
 78 765 l 1
 177 765 l 1
 177 90 l 1
 489 90 l 1
356 645 m 1
 356 765 l 1
 467 765 l 1
 467 655 l 1
 414 506 l 1
 356 506 l 1
 400 645 l 1
 356 645 l 1
EndSplineSet
Position2: "'cpsp' Capital Spacing lookup 0 subtable" dx=6 dy=0 dh=13 dv=0
EndChar

StartChar: Lcommaaccent
Encoding: 315 315 63
Width: 508
VWidth: 1263
GlyphClass: 2
Flags: W
HStem: 0 90<177 489> 745 20G<78 177>
VStem: 78 99<90 765> 207 96<-160 -67>
LayerCount: 2
Back
Fore
SplineSet
489 90 m 1
 489 0 l 1
 78 0 l 1
 78 765 l 1
 177 765 l 1
 177 90 l 1
 489 90 l 1
207 -168 m 1
 207 -67 l 1
 303 -67 l 1
 303 -160 l 1
 270 -248 l 1
 220 -248 l 1
 245 -168 l 1
 207 -168 l 1
EndSplineSet
Position2: "'cpsp' Capital Spacing lookup 0 subtable" dx=6 dy=0 dh=13 dv=0
EndChar

StartChar: Ldot
Encoding: 319 319 64
Width: 508
VWidth: 1263
GlyphClass: 2
Flags: W
HStem: 0 90<177 489> 462 124<330 442> 745 20G<78 177>
VStem: 78 99<90 765> 330 112<462 586>
LayerCount: 2
Back
Fore
SplineSet
489 90 m 1
 489 0 l 1
 78 0 l 1
 78 765 l 1
 177 765 l 1
 177 90 l 1
 489 90 l 1
330 462 m 1
 330 586 l 1
 442 586 l 1
 442 462 l 1
 330 462 l 1
EndSplineSet
Ligature2: "Ligature Substitution lookup 39 subtable" L periodcentered
Position2: "'cpsp' Capital Spacing lookup 0 subtable" dx=6 dy=0 dh=13 dv=0
EndChar

StartChar: Lslash
Encoding: 321 321 65
Width: 508
VWidth: 1263
GlyphClass: 2
Flags: W
HStem: 0 90<177 489> 745 20G<78 177>
VStem: 78 99<90 274 354 361 441 765>
LayerCount: 2
Back
Fore
SplineSet
177 90 m 1
 489 90 l 1
 489 0 l 1
 78 0 l 1
 78 274 l 1
 0 206 l 1
 0 284 l 1
 78 354 l 1
 78 765 l 1
 177 765 l 1
 177 441 l 1
 330 577 l 1
 330 495 l 1
 177 361 l 1
 177 90 l 1
EndSplineSet
Position2: "'cpsp' Capital Spacing lookup 0 subtable" dx=6 dy=0 dh=13 dv=0
EndChar

StartChar: M
Encoding: 77 77 66
Width: 762
VWidth: 1263
GlyphClass: 2
Flags: W
HStem: 0 21G<69 158 326.46 424.549 595 693> 745 20G<69 223.429 538.611 693>
VStem: 69 89<0 671.442> 595 98<0 634.393>
LayerCount: 2
Back
Fore
SplineSet
158 556 m 2
 158 0 l 1
 69 0 l 1
 69 765 l 1
 218 765 l 1
 354 264 l 2
 369 207 380 91 380 91 c 1
 380 91 394 210 409 264 c 2
 544 765 l 1
 693 765 l 1
 693 0 l 1
 595 0 l 1
 595 634.392915245 l 1
 419 0 l 1
 332 0 l 1
 146.006501388 671.508994989 l 1
 146.006501388 671.508994989 158 579 158 556 c 2
EndSplineSet
Position2: "'cpsp' Capital Spacing lookup 0 subtable" dx=6 dy=0 dh=13 dv=0
EndChar

StartChar: N
Encoding: 78 78 67
Width: 660
VWidth: 1263
GlyphClass: 2
Flags: W
HStem: 0 21G<78 167 489.596 582> 745 20G<78 174.809 495 582>
VStem: 78 89<0 585.734> 495 87<182 765>
AnchorPoint: "Anchor-1" 331 0 basechar 0
AnchorPoint: "Anchor-0" 331 765 basechar 0
LayerCount: 2
Back
Fore
SplineSet
167 0 m 1
 78 0 l 1
 78 765 l 1
 163 765 l 1
 447 284 l 2
 465 255 495 182 495 182 c 1
 495 765 l 1
 582 765 l 1
 582 0 l 1
 501 0 l 1
 167 585.734225167 l 1
 167 0 l 1
EndSplineSet
Position2: "'cpsp' Capital Spacing lookup 0 subtable" dx=6 dy=0 dh=13 dv=0
EndChar

StartChar: Nacute
Encoding: 323 323 68
Width: 660
VWidth: 1263
GlyphClass: 2
Flags: W
HStem: 0 21G<78 167 489.596 582> 745 20G<78 174.809 495 582>
VStem: 78 89<0 585.734> 495 87<182 765>
LayerCount: 2
Back
Fore
SplineSet
342 839 m 1
 264 839 l 1
 360 986 l 1
 460 986 l 1
 342 839 l 1
167 0 m 1
 78 0 l 1
 78 765 l 1
 163 765 l 1
 447 284 l 2
 465 255 495 182 495 182 c 1
 495 765 l 1
 582 765 l 1
 582 0 l 1
 501 0 l 1
 167 585.734225167 l 1
 167 0 l 1
EndSplineSet
Position2: "'cpsp' Capital Spacing lookup 0 subtable" dx=6 dy=0 dh=13 dv=0
EndChar

StartChar: Ncaron
Encoding: 327 327 69
Width: 660
VWidth: 1263
GlyphClass: 2
Flags: W
HStem: 0 21G<78 167 489.596 582> 745 20G<78 174.809 495 582>
VStem: 78 89<0 585.734> 495 87<182 765>
LayerCount: 2
Back
Fore
SplineSet
285 835 m 1
 191 986 l 1
 280 986 l 1
 331 898 l 1
 380 986 l 1
 470 986 l 1
 373 835 l 1
 285 835 l 1
167 0 m 1
 78 0 l 1
 78 765 l 1
 163 765 l 1
 447 284 l 2
 465 255 495 182 495 182 c 1
 495 765 l 1
 582 765 l 1
 582 0 l 1
 501 0 l 1
 167 585.734225167 l 1
 167 0 l 1
EndSplineSet
Position2: "'cpsp' Capital Spacing lookup 0 subtable" dx=6 dy=0 dh=13 dv=0
EndChar

StartChar: Ncommaaccent
Encoding: 325 325 70
Width: 660
VWidth: 1263
GlyphClass: 2
Flags: W
HStem: -168 101<283 322> 0 21G<78 167 489.596 582> 745 20G<78 174.809 495 582>
VStem: 78 89<0 585.734> 283 96<-160 -67> 495 87<182 765>
LayerCount: 2
Back
Fore
SplineSet
167 0 m 1
 78 0 l 1
 78 765 l 1
 163 765 l 1
 447 284 l 2
 465 255 495 182 495 182 c 1
 495 765 l 1
 582 765 l 1
 582 0 l 1
 501 0 l 1
 167 585.734225167 l 1
 167 0 l 1
283 -168 m 1
 283 -67 l 1
 379 -67 l 1
 379 -160 l 1
 346 -248 l 1
 296 -248 l 1
 322 -168 l 1
 283 -168 l 1
EndSplineSet
Position2: "'cpsp' Capital Spacing lookup 0 subtable" dx=6 dy=0 dh=13 dv=0
EndChar

StartChar: Eng
Encoding: 330 330 71
Width: 660
VWidth: 1263
GlyphClass: 2
Flags: W
HStem: -203 77<390.899 482.793> -189 63<390 465.686> 0 21G<78 167> 745 20G<78 174.809 495 582>
VStem: 78 89<0 585.798> 495 87<-114.386 16 182 765>
LayerCount: 2
Back
Fore
SplineSet
582 -68 m 2xbc
 582 -135 555 -203 467 -203 c 0xbc
 439 -203 409 -197 390 -189 c 1
 390 -126 l 1x7c
 438 -126 l 2
 473 -126 491 -107 491 -72 c 2
 491 16 l 1
 167 585.797591651 l 1
 167 0 l 1
 78 0 l 1
 78 765 l 1
 163 765 l 1
 447 284 l 2
 465 255 495 182 495 182 c 1
 495 765 l 1
 582 765 l 1
 582 -68 l 2xbc
EndSplineSet
Position2: "'cpsp' Capital Spacing lookup 0 subtable" dx=6 dy=0 dh=13 dv=0
EndChar

StartChar: Ntilde
Encoding: 209 209 72
Width: 660
VWidth: 1263
GlyphClass: 2
Flags: W
HStem: 0 21G<78 167 489.596 582> 745 20G<78 174.809 495 582> 870 82<322.166 425.204> 904 82<237.018 339.653>
VStem: 78 89<0 585.734> 168 64<870 899.643> 428 66<955.985 986> 495 87<182 765>
LayerCount: 2
Back
Fore
SplineSet
263 986 m 0xdf
 311.006042139 987.570651854 345.485074586 952.495684078 390 952 c 0xef
 410 952 425 959 428 986 c 1
 494 986 l 1xdf
 494 934 466 870 399 870 c 0xef
 351.780436125 870 315.440156319 904 270 904 c 0xdf
 250 904 236 895 232 870 c 1
 168 870 l 1xef
 168 921 196 986 263 986 c 0xdf
167 0 m 1
 78 0 l 1
 78 765 l 1
 163 765 l 1
 447 284 l 2
 465 255 495 182 495 182 c 1
 495 765 l 1
 582 765 l 1
 582 0 l 1
 501 0 l 1
 167 585.734225167 l 1
 167 0 l 1
EndSplineSet
Position2: "'cpsp' Capital Spacing lookup 0 subtable" dx=6 dy=0 dh=13 dv=0
EndChar

StartChar: O
Encoding: 79 79 73
Width: 712
VWidth: 1263
GlyphClass: 2
Flags: W
HStem: -14 91<265.017 446.983> 688 91<265.017 446.983>
VStem: 54 104<209.172 557.094> 554 104<209.172 557.094>
AnchorPoint: "Anchor-1" 0 0 basechar 0
AnchorPoint: "Anchor-0" 356 765 basechar 0
LayerCount: 2
Back
Fore
SplineSet
356 779 m 0
 544 779 658 649 658 383 c 0
 658 118 544 -14 356 -14 c 0
 168 -14 54 118 54 383 c 0
 54 649 168 779 356 779 c 0
356 688 m 0
 233 688 158 597 158 410 c 2
 158 355 l 2
 158 168 233 77 356 77 c 0
 479 77 554 168 554 355 c 2
 554 410 l 2
 554 597 479 688 356 688 c 0
EndSplineSet
Substitution2: "Single Substitution lookup 40 subtable" ordmasculine
Substitution2: "'aalt' Access All Alternates lookup 0 subtable" ordmasculine
Position2: "'cpsp' Capital Spacing lookup 0 subtable" dx=6 dy=0 dh=13 dv=0
EndChar

StartChar: Oacute
Encoding: 211 211 74
Width: 712
VWidth: 1263
GlyphClass: 2
Flags: W
HStem: -14 91<265.017 446.983> 688 91<265.017 446.983>
VStem: 54 104<209.172 557.094> 554 104<209.172 557.094>
LayerCount: 2
Back
Fore
SplineSet
368 839 m 1
 290 839 l 1
 386 986 l 1
 486 986 l 1
 368 839 l 1
356 779 m 0
 544 779 658 649 658 383 c 0
 658 118 544 -14 356 -14 c 0
 168 -14 54 118 54 383 c 0
 54 649 168 779 356 779 c 0
356 688 m 0
 233 688 158 597 158 410 c 2
 158 355 l 2
 158 168 233 77 356 77 c 0
 479 77 554 168 554 355 c 2
 554 410 l 2
 554 597 479 688 356 688 c 0
EndSplineSet
Position2: "'cpsp' Capital Spacing lookup 0 subtable" dx=6 dy=0 dh=13 dv=0
EndChar

StartChar: Obreve
Encoding: 334 334 75
Width: 712
VWidth: 1263
GlyphClass: 2
Flags: W
HStem: -14 91<265.017 446.983> 688 91<265.017 446.983> 878 71<298.881 413.892>
VStem: 54 104<209.172 557.094> 218 72<961.895 986> 423 72<961.895 986> 554 104<209.172 557.094>
LayerCount: 2
Back
Fore
SplineSet
495 986 m 1
 495 935 442 878 356 878 c 0
 271 878 218 935 218 986 c 1
 290 986 l 1
 293 970 319 949 356 949 c 0
 394 949 420 970 423 986 c 1
 495 986 l 1
356 779 m 0
 544 779 658 649 658 383 c 0
 658 118 544 -14 356 -14 c 0
 168 -14 54 118 54 383 c 0
 54 649 168 779 356 779 c 0
356 688 m 0
 233 688 158 597 158 410 c 2
 158 355 l 2
 158 168 233 77 356 77 c 0
 479 77 554 168 554 355 c 2
 554 410 l 2
 554 597 479 688 356 688 c 0
EndSplineSet
Position2: "'cpsp' Capital Spacing lookup 0 subtable" dx=6 dy=0 dh=13 dv=0
EndChar

StartChar: Ocircumflex
Encoding: 212 212 76
Width: 712
VWidth: 1263
GlyphClass: 2
Flags: W
HStem: -14 91<265.017 446.983> 688 91<265.017 446.983>
VStem: 54 104<209.172 557.094> 554 104<209.172 557.094>
LayerCount: 2
Back
Fore
SplineSet
357 922 m 1
 307 834 l 1
 217 834 l 1
 313 985 l 1
 400 985 l 1
 495 834 l 1
 407 834 l 1
 357 922 l 1
356 779 m 0
 544 779 658 649 658 383 c 0
 658 118 544 -14 356 -14 c 0
 168 -14 54 118 54 383 c 0
 54 649 168 779 356 779 c 0
356 688 m 0
 233 688 158 597 158 410 c 2
 158 355 l 2
 158 168 233 77 356 77 c 0
 479 77 554 168 554 355 c 2
 554 410 l 2
 554 597 479 688 356 688 c 0
EndSplineSet
Position2: "'cpsp' Capital Spacing lookup 0 subtable" dx=6 dy=0 dh=13 dv=0
EndChar

StartChar: Odieresis
Encoding: 214 214 77
Width: 712
VWidth: 1263
GlyphClass: 2
Flags: W
HStem: -14 91<265.017 446.983> 688 91<265.017 446.983> 880 106<225 322 392 489>
VStem: 54 104<209.172 557.094> 225 97<880 986> 392 97<880 986> 554 104<209.172 557.094>
LayerCount: 2
Back
Fore
SplineSet
225 880 m 1
 225 986 l 1
 322 986 l 1
 322 880 l 1
 225 880 l 1
392 880 m 1
 392 986 l 1
 489 986 l 1
 489 880 l 1
 392 880 l 1
356 779 m 0
 544 779 658 649 658 383 c 0
 658 118 544 -14 356 -14 c 0
 168 -14 54 118 54 383 c 0
 54 649 168 779 356 779 c 0
356 688 m 0
 233 688 158 597 158 410 c 2
 158 355 l 2
 158 168 233 77 356 77 c 0
 479 77 554 168 554 355 c 2
 554 410 l 2
 554 597 479 688 356 688 c 0
EndSplineSet
Position2: "'cpsp' Capital Spacing lookup 0 subtable" dx=6 dy=0 dh=13 dv=0
EndChar

StartChar: Ograve
Encoding: 210 210 78
Width: 712
VWidth: 1263
GlyphClass: 2
Flags: W
HStem: -14 91<265.017 446.983> 688 91<265.017 446.983>
VStem: 54 104<209.172 557.094> 554 104<209.172 557.094>
LayerCount: 2
Back
Fore
SplineSet
346 839 m 1
 224.524590164 984.770491803 l 1
 327 984.770491803 l 1
 423 839 l 1
 346 839 l 1
356 779 m 0
 544 779 658 649 658 383 c 0
 658 118 544 -14 356 -14 c 0
 168 -14 54 118 54 383 c 0
 54 649 168 779 356 779 c 0
356 688 m 0
 233 688 158 597 158 410 c 2
 158 355 l 2
 158 168 233 77 356 77 c 0
 479 77 554 168 554 355 c 2
 554 410 l 2
 554 597 479 688 356 688 c 0
EndSplineSet
Position2: "'cpsp' Capital Spacing lookup 0 subtable" dx=6 dy=0 dh=13 dv=0
EndChar

StartChar: Ohungarumlaut
Encoding: 336 336 79
Width: 712
VWidth: 1263
GlyphClass: 2
Flags: W
HStem: -14 91<265.017 446.983> 688 91<265.017 446.983>
VStem: 54 104<209.172 557.094> 554 104<209.172 557.094>
LayerCount: 2
Back
Fore
SplineSet
326 839 m 1
 250 839 l 1
 320 986 l 1
 418 986 l 1
 326 839 l 1
472 839 m 1
 395 839 l 1
 465 986 l 1
 565 986 l 1
 472 839 l 1
356 779 m 0
 544 779 658 649 658 383 c 0
 658 118 544 -14 356 -14 c 0
 168 -14 54 118 54 383 c 0
 54 649 168 779 356 779 c 0
356 688 m 0
 233 688 158 597 158 410 c 2
 158 355 l 2
 158 168 233 77 356 77 c 0
 479 77 554 168 554 355 c 2
 554 410 l 2
 554 597 479 688 356 688 c 0
EndSplineSet
Position2: "'cpsp' Capital Spacing lookup 0 subtable" dx=6 dy=0 dh=13 dv=0
EndChar

StartChar: Omacron
Encoding: 332 332 80
Width: 712
VWidth: 1263
GlyphClass: 2
Flags: W
HStem: -14 91<265.017 446.983> 688 91<265.017 446.983> 847 81<216 496>
VStem: 54 104<209.172 557.094> 554 104<209.172 557.094>
LayerCount: 2
Back
Fore
SplineSet
216 928 m 1
 496 928 l 1
 496 847 l 1
 216 847 l 1
 216 928 l 1
356 779 m 0
 544 779 658 649 658 383 c 0
 658 118 544 -14 356 -14 c 0
 168 -14 54 118 54 383 c 0
 54 649 168 779 356 779 c 0
356 688 m 0
 233 688 158 597 158 410 c 2
 158 355 l 2
 158 168 233 77 356 77 c 0
 479 77 554 168 554 355 c 2
 554 410 l 2
 554 597 479 688 356 688 c 0
EndSplineSet
Position2: "'cpsp' Capital Spacing lookup 0 subtable" dx=6 dy=0 dh=13 dv=0
EndChar

StartChar: Oslash
Encoding: 216 216 81
Width: 712
VWidth: 1263
GlyphClass: 2
Flags: W
HStem: -14 91<263.668 446.983> 688 91<265.017 445.691> 787 20G<573.47 658>
VStem: 54 104<205.678 557.094> 554 104<209.172 556.125>
AnchorPoint: "Anchor-1" 0 0 basechar 0
AnchorPoint: "Anchor-0" 356 765 basechar 0
LayerCount: 2
Back
Fore
SplineSet
658 383 m 0
 658 118 544 -14 356 -14 c 0
 285 -14 226 5 178 42 c 1
 128 -42 l 1
 56 -42 l 1
 135 85 l 1
 82 151 54 250 54 383 c 0
 54 649 168 779 356 779 c 0
 427 779 486 761 534 724 c 1
 586 807 l 1
 658 807 l 1
 577 679 l 1
 629 613 658 516 658 383 c 0
356 688 m 0
 233 688 158 597 158 410 c 2
 158 355 l 2
 158 280 169 221 192 177 c 1
 482 640 l 1
 448 673 407 688 356 688 c 0
356 77 m 0
 479 77 554 168 554 355 c 2
 554 410 l 2
 554 485 543 545 520 589 c 1
 230 124 l 1
 263 92 304 77 356 77 c 0
EndSplineSet
Position2: "'cpsp' Capital Spacing lookup 0 subtable" dx=6 dy=0 dh=13 dv=0
EndChar

StartChar: Oslashacute
Encoding: 510 510 82
Width: 712
VWidth: 1263
GlyphClass: 2
Flags: W
HStem: -14 91<263.668 446.983> 688 91<265.017 445.691> 787 20G<573.47 658>
VStem: 54 104<205.678 557.094> 554 104<209.172 556.125>
LayerCount: 2
Back
Fore
SplineSet
368 839 m 1
 290 839 l 1
 386 986 l 1
 486 986 l 1
 368 839 l 1
658 383 m 0
 658 118 544 -14 356 -14 c 0
 285 -14 226 5 178 42 c 1
 128 -42 l 1
 56 -42 l 1
 135 85 l 1
 82 151 54 250 54 383 c 0
 54 649 168 779 356 779 c 0
 427 779 486 761 534 724 c 1
 586 807 l 1
 658 807 l 1
 577 679 l 1
 629 613 658 516 658 383 c 0
356 688 m 0
 233 688 158 597 158 410 c 2
 158 355 l 2
 158 280 169 221 192 177 c 1
 482 640 l 1
 448 673 407 688 356 688 c 0
356 77 m 0
 479 77 554 168 554 355 c 2
 554 410 l 2
 554 485 543 545 520 589 c 1
 230 124 l 1
 263 92 304 77 356 77 c 0
EndSplineSet
Position2: "'cpsp' Capital Spacing lookup 0 subtable" dx=6 dy=0 dh=13 dv=0
EndChar

StartChar: Otilde
Encoding: 213 213 83
Width: 712
VWidth: 1263
GlyphClass: 2
Flags: W
HStem: -14 91<265.017 446.983> 688 91<265.017 446.983> 870 82<348.729 451.027> 904 82<261.648 365.263>
VStem: 54 104<209.172 557.094> 193 65<870 899.643> 455 64<955.985 986> 554 104<209.172 557.094>
LayerCount: 2
Back
Fore
SplineSet
288 986 m 0xdf
 334.618766536 986 372.374185135 952 417 952 c 0xef
 437 952 451 959 455 986 c 1
 519 986 l 1xdf
 519 934 491 870 424 870 c 0xef
 378.329078412 870 341.008677472 904 296 904 c 0xdf
 276 904 262 895 258 870 c 1
 193 870 l 1xef
 193 921 221 986 288 986 c 0xdf
356 779 m 0
 544 779 658 649 658 383 c 0
 658 118 544 -14 356 -14 c 0
 168 -14 54 118 54 383 c 0
 54 649 168 779 356 779 c 0
356 688 m 0
 233 688 158 597 158 410 c 2
 158 355 l 2
 158 168 233 77 356 77 c 0
 479 77 554 168 554 355 c 2
 554 410 l 2
 554 597 479 688 356 688 c 0
EndSplineSet
Position2: "'cpsp' Capital Spacing lookup 0 subtable" dx=6 dy=0 dh=13 dv=0
EndChar

StartChar: OE
Encoding: 338 338 84
Width: 915
VWidth: 1263
GlyphClass: 2
Flags: W
HStem: -14 91<245.283 389.848> 0 90<572 875> 347 90<572 818> 677 88<572 869> 688 91<245.283 389.848>
VStem: 54 104<190.946 566.294> 475 97<195.984 347 437 569.016>
AnchorPoint: "Anchor-1" 0 0 basechar 0
AnchorPoint: "Anchor-0" 457 765 basechar 0
LayerCount: 2
Back
Fore
SplineSet
304 779 m 0xae
 376 779 433 749 475 690 c 1
 475 765 l 1
 869 765 l 1
 869 677 l 1
 572 677 l 1
 572 437 l 1
 818 437 l 1
 818 347 l 1
 572 347 l 1
 572 90 l 1
 875 90 l 1
 875 0 l 1
 475 0 l 1x76
 475 76 l 1
 433 15 376 -14 304 -14 c 0
 147 -14 54 118 54 383 c 0
 54 649 147 779 304 779 c 0xae
316 688 m 0xae
 217 688 158 597 158 410 c 2
 158 355 l 2
 158 168 217 77 316 77 c 0
 415 77 475 168 475 355 c 2
 475 410 l 2
 475 597 415 688 316 688 c 0xae
EndSplineSet
Position2: "'cpsp' Capital Spacing lookup 0 subtable" dx=6 dy=0 dh=13 dv=0
EndChar

StartChar: P
Encoding: 80 80 85
Width: 611
VWidth: 1263
GlyphClass: 2
Flags: W
HStem: 0 21G<78 177> 316 89<177 419.614> 677 88<177 422.797>
VStem: 78 99<0 316 405 677> 477 104<460.627 625.051>
LayerCount: 2
Back
Fore
SplineSet
78 0 m 1
 78 765 l 1
 351 765 l 2
 503 765 581 676 581 543 c 0
 581 408 494 316 351 316 c 2
 177 316 l 1
 177 0 l 1
 78 0 l 1
349 405 m 2
 427 405 477 460 477 543 c 0
 477 625 432 677 349 677 c 2
 177 677 l 1
 177 405 l 1
 349 405 l 2
EndSplineSet
Position2: "'cpsp' Capital Spacing lookup 0 subtable" dx=6 dy=0 dh=13 dv=0
EndChar

StartChar: Thorn
Encoding: 222 222 86
Width: 611
VWidth: 1263
GlyphClass: 2
Flags: W
HStem: 0 21G<78 177> 164 90<177 419.614> 524 90<177 422.797> 745 20G<78 177>
VStem: 78 99<0 164 254 524 614 765> 477 104<308.244 472.589>
LayerCount: 2
Back
Fore
SplineSet
351 614 m 2
 503 614 581 524 581 390 c 0
 581 255 494 164 351 164 c 2
 177 164 l 1
 177 0 l 1
 78 0 l 1
 78 765 l 1
 177 765 l 1
 177 614 l 1
 351 614 l 2
177 254 m 1
 349 254 l 2
 427 254 477 308 477 390 c 0
 477 473 432 524 349 524 c 2
 177 524 l 1
 177 254 l 1
EndSplineSet
Position2: "'cpsp' Capital Spacing lookup 0 subtable" dx=6 dy=0 dh=13 dv=0
EndChar

StartChar: Q
Encoding: 81 81 87
Width: 712
VWidth: 1263
GlyphClass: 2
Flags: W
HStem: -7.01345 84.0134<264.279 362.566> 688 91<265.017 446.983>
VStem: 54 104<213.705 557.094> 554 104<208.366 557.094>
LayerCount: 2
Back
Fore
SplineSet
54 383 m 0
 54 649 168 779 356 779 c 0
 544 779 658 649 658 383 c 0
 658 180 591 55 476 8 c 1
 634 -139 l 1
 503 -139 l 1
 362.566308459 -7.01344779972 l 1
 174.566308459 -7.01344779972 54 118 54 383 c 0
158 355 m 2
 158 168 233 77 356 77 c 0
 479 77 554 168 554 355 c 2
 554 410 l 2
 554 597 479 688 356 688 c 0
 233 688 158 597 158 410 c 2
 158 355 l 2
EndSplineSet
Position2: "'cpsp' Capital Spacing lookup 0 subtable" dx=6 dy=0 dh=13 dv=0
EndChar

StartChar: R
Encoding: 82 82 88
Width: 660
VWidth: 1263
GlyphClass: 2
Flags: W
HStem: 0 21G<78 177 515.538 633> 338 90<177 381> 677 88<177 462.834>
VStem: 78 99<0 338 428 677> 513 102<479.302 630.157>
AnchorPoint: "Anchor-1" 331 0 basechar 0
AnchorPoint: "Anchor-0" 331 765 basechar 0
LayerCount: 2
Back
Fore
SplineSet
386 765 m 2
 536 765 615 679 615 553 c 0
 615 458 565 385 479 356 c 1
 633 0 l 1
 524 0 l 1
 381 338 l 1
 177 338 l 1
 177 0 l 1
 78 0 l 1
 78 765 l 1
 386 765 l 2
177 428 m 1
 383 428 l 2
 461 428 513 477 513 553 c 0
 513 630 468 677 383 677 c 2
 177 677 l 1
 177 428 l 1
EndSplineSet
Position2: "'cpsp' Capital Spacing lookup 0 subtable" dx=6 dy=0 dh=13 dv=0
EndChar

StartChar: Racute
Encoding: 340 340 89
Width: 660
VWidth: 1263
GlyphClass: 2
Flags: W
HStem: 0 21G<78 177 515.538 633> 338 90<177 381> 677 88<177 462.834>
VStem: 78 99<0 338 428 677> 513 102<479.302 630.157>
LayerCount: 2
Back
Fore
SplineSet
317 839 m 1
 239 839 l 1
 335 986 l 1
 436 986 l 1
 317 839 l 1
386 765 m 2
 536 765 615 679 615 553 c 0
 615 458 565 385 479 356 c 1
 633 0 l 1
 524 0 l 1
 381 338 l 1
 177 338 l 1
 177 0 l 1
 78 0 l 1
 78 765 l 1
 386 765 l 2
177 428 m 1
 383 428 l 2
 461 428 513 477 513 553 c 0
 513 630 468 677 383 677 c 2
 177 677 l 1
 177 428 l 1
EndSplineSet
Position2: "'cpsp' Capital Spacing lookup 0 subtable" dx=6 dy=0 dh=13 dv=0
EndChar

StartChar: Rcaron
Encoding: 344 344 90
Width: 660
VWidth: 1263
GlyphClass: 2
Flags: W
HStem: 0 21G<78 177 515.538 633> 338 90<177 381> 677 88<177 462.834>
VStem: 78 99<0 338 428 677> 513 102<479.302 630.157>
LayerCount: 2
Back
Fore
SplineSet
285 835 m 1
 191 986 l 1
 280 986 l 1
 331 898 l 1
 380 986 l 1
 470 986 l 1
 373 835 l 1
 285 835 l 1
386 765 m 2
 536 765 615 679 615 553 c 0
 615 458 565 385 479 356 c 1
 633 0 l 1
 524 0 l 1
 381 338 l 1
 177 338 l 1
 177 0 l 1
 78 0 l 1
 78 765 l 1
 386 765 l 2
177 428 m 1
 383 428 l 2
 461 428 513 477 513 553 c 0
 513 630 468 677 383 677 c 2
 177 677 l 1
 177 428 l 1
EndSplineSet
Position2: "'cpsp' Capital Spacing lookup 0 subtable" dx=6 dy=0 dh=13 dv=0
EndChar

StartChar: Rcommaaccent
Encoding: 342 342 91
Width: 660
VWidth: 1263
GlyphClass: 2
Flags: W
HStem: -168 101<283 322> 0 21G<78 177 515.538 633> 338 90<177 381> 677 88<177 462.834>
VStem: 78 99<0 338 428 677> 283 96<-160 -67> 513 102<479.302 630.157>
LayerCount: 2
Back
Fore
SplineSet
386 765 m 2
 536 765 615 679 615 553 c 0
 615 458 565 385 479 356 c 1
 633 0 l 1
 524 0 l 1
 381 338 l 1
 177 338 l 1
 177 0 l 1
 78 0 l 1
 78 765 l 1
 386 765 l 2
177 428 m 1
 383 428 l 2
 461 428 513 477 513 553 c 0
 513 630 468 677 383 677 c 2
 177 677 l 1
 177 428 l 1
283 -168 m 1
 283 -67 l 1
 379 -67 l 1
 379 -160 l 1
 346 -248 l 1
 296 -248 l 1
 322 -168 l 1
 283 -168 l 1
EndSplineSet
Position2: "'cpsp' Capital Spacing lookup 0 subtable" dx=6 dy=0 dh=13 dv=0
EndChar

StartChar: S
Encoding: 83 83 92
Width: 611
VWidth: 1263
GlyphClass: 2
Flags: W
HStem: -14 91<210.097 400.757> 688 91<214.073 388.142>
VStem: 45 104<138.546 239> 62 103<520.284 644.95> 443 101<551 634.405> 460 103<134.302 271.574>
AnchorPoint: "Anchor-1" 306 0 basechar 0
AnchorPoint: "Anchor-0" 306 765 basechar 0
LayerCount: 2
Back
Fore
SplineSet
304 779 m 0xd4
 438 779 544 717 544 563 c 2
 544 551 l 1
 443 551 l 1
 443 567 l 2
 443 645 384 688 307 688 c 0
 226 688 165 655 165 582 c 0xd8
 165 499 246 472 336 443 c 0
 443 408 563 369 563 221 c 0
 563 49 452 -14 303 -14 c 0
 164 -14 45 48 45 216 c 0
 45 222 46 234 47 239 c 1
 149 239 l 1
 149 216 l 2xe4
 149 121 212 77 299 77 c 0
 401 77 460 122 460 205 c 0
 460 293 378 320 288 349 c 0
 179 384 62 423 62 573 c 0
 62 714 170 779 304 779 c 0xd4
EndSplineSet
Position2: "'cpsp' Capital Spacing lookup 0 subtable" dx=6 dy=0 dh=13 dv=0
EndChar

StartChar: Sacute
Encoding: 346 346 93
Width: 611
VWidth: 1263
GlyphClass: 2
Flags: W
HStem: -14 91<210.097 400.757> 688 91<214.073 388.142>
VStem: 45 104<138.546 239> 62 103<520.284 644.95> 443 101<551 634.405> 460 103<134.302 271.574>
LayerCount: 2
Back
Fore
SplineSet
316 839 m 1xc0
 239 839 l 1
 335 986 l 1
 436 986 l 1
 316 839 l 1xc0
304 779 m 0
 438 779 544 717 544 563 c 2
 544 551 l 1
 443 551 l 1
 443 567 l 2
 443 645 384 688 307 688 c 0
 226 688 165 655 165 582 c 0xd8
 165 499 246 472 336 443 c 0
 443 408 563 369 563 221 c 0
 563 49 452 -14 303 -14 c 0
 164 -14 45 48 45 216 c 0
 45 222 46 234 47 239 c 1
 149 239 l 1
 149 216 l 2xe4
 149 121 212 77 299 77 c 0
 401 77 460 122 460 205 c 0
 460 293 378 320 288 349 c 0
 179 384 62 423 62 573 c 0xd4
 62 714 170 779 304 779 c 0
EndSplineSet
Position2: "'cpsp' Capital Spacing lookup 0 subtable" dx=6 dy=0 dh=13 dv=0
EndChar

StartChar: Scaron
Encoding: 352 352 94
Width: 611
VWidth: 1263
GlyphClass: 2
Flags: W
HStem: -14 91<210.097 400.757> 688 91<214.073 388.142>
VStem: 45 104<138.546 239> 62 103<520.284 644.95> 443 101<551 634.405> 460 103<134.302 271.574>
LayerCount: 2
Back
Fore
SplineSet
167 986 m 1xc0
 255 986 l 1
 304 898 l 1
 355 986 l 1
 445 986 l 1
 349 835 l 1
 261 835 l 1
 167 986 l 1xc0
304 779 m 0
 438 779 544 717 544 563 c 2
 544 551 l 1
 443 551 l 1
 443 567 l 2
 443 645 384 688 307 688 c 0
 226 688 165 655 165 582 c 0xd8
 165 499 246 472 336 443 c 0
 443 408 563 369 563 221 c 0
 563 49 452 -14 303 -14 c 0
 164 -14 45 48 45 216 c 0
 45 222 46 234 47 239 c 1
 149 239 l 1
 149 216 l 2xe4
 149 121 212 77 299 77 c 0
 401 77 460 122 460 205 c 0
 460 293 378 320 288 349 c 0
 179 384 62 423 62 573 c 0xd4
 62 714 170 779 304 779 c 0
EndSplineSet
Position2: "'cpsp' Capital Spacing lookup 0 subtable" dx=6 dy=0 dh=13 dv=0
EndChar

StartChar: Scedilla
Encoding: 350 350 95
Width: 611
VWidth: 1263
GlyphClass: 2
Flags: W
HStem: -203 63<202.271 323.827> -195 55<201 292.499> -13 90<212.957 263 323 396.764> 688 91<214.073 388.142>
VStem: 45 104<135.826 239> 62 103<520.284 644.95> 326 84<-137.848 -87.8528> 443 101<551 634.405> 460 103<133.125 271.574>
LayerCount: 2
Back
Fore
SplineSet
304 779 m 0xb680
 438 779 544 717 544 563 c 2
 544 551 l 1
 443 551 l 1
 443 567 l 2xb7
 443 645 384 688 307 688 c 0
 226 688 165 655 165 582 c 0
 165 499 246 472 336 443 c 0
 443 408 563 369 563 221 c 0
 563 57 462 -7 323 -13 c 1
 323 -40 l 1
 371 -43 410 -61 410 -112 c 0
 410 -188 339 -203 294 -203 c 0xb680
 262 -203 228 -200 201 -195 c 1
 201 -140 l 1x7680
 285 -140 l 2
 310 -140 326 -133 326 -112 c 0
 326 -94 317 -86 288 -86 c 2
 251 -86 l 1
 263 -11 l 1
 140 0 45 64 45 216 c 0
 45 222 46 234 47 239 c 1
 149 239 l 1
 149 216 l 2xba80
 149 121 212 77 299 77 c 0
 401 77 460 122 460 205 c 0
 460 293 378 320 288 349 c 0
 179 384 62 423 62 573 c 0
 62 714 170 779 304 779 c 0xb680
EndSplineSet
Substitution2: "'locl' Localized Forms in Latin lookup 6 subtable" Scommaaccent
Substitution2: "'locl' Localized Forms in Latin lookup 5 subtable" Scommaaccent
Substitution2: "'aalt' Access All Alternates lookup 0 subtable" Scommaaccent
Position2: "'cpsp' Capital Spacing lookup 0 subtable" dx=6 dy=0 dh=13 dv=0
EndChar

StartChar: Scircumflex
Encoding: 348 348 96
Width: 611
VWidth: 1263
GlyphClass: 2
Flags: W
HStem: -14 91<210.097 400.757> 688 91<214.073 388.142>
VStem: 45 104<138.546 239> 62 103<520.284 644.95> 443 101<551 634.405> 460 103<134.302 271.574>
LayerCount: 2
Back
Fore
SplineSet
306 922 m 1xc0
 255 834 l 1
 167 834 l 1
 263 985 l 1
 350 985 l 1
 445 834 l 1
 355 834 l 1
 306 922 l 1xc0
304 779 m 0
 438 779 544 717 544 563 c 2
 544 551 l 1
 443 551 l 1
 443 567 l 2
 443 645 384 688 307 688 c 0
 226 688 165 655 165 582 c 0xd8
 165 499 246 472 336 443 c 0
 443 408 563 369 563 221 c 0
 563 49 452 -14 303 -14 c 0
 164 -14 45 48 45 216 c 0
 45 222 46 234 47 239 c 1
 149 239 l 1
 149 216 l 2xe4
 149 121 212 77 299 77 c 0
 401 77 460 122 460 205 c 0
 460 293 378 320 288 349 c 0
 179 384 62 423 62 573 c 0xd4
 62 714 170 779 304 779 c 0
EndSplineSet
Position2: "'cpsp' Capital Spacing lookup 0 subtable" dx=6 dy=0 dh=13 dv=0
EndChar

StartChar: Scommaaccent
Encoding: 536 536 97
Width: 611
VWidth: 1263
GlyphClass: 2
Flags: W
HStem: -14 91<210.097 400.757> 688 91<214.073 388.142>
VStem: 45 104<138.546 239> 62 103<520.284 644.95> 258 94<-160 -67> 443 101<551 634.405> 460 103<134.302 271.574>
AnchorPoint: "Anchor-1" 306 0 basechar 0
AnchorPoint: "Anchor-0" 306 765 basechar 0
LayerCount: 2
Back
Fore
SplineSet
304 779 m 0xda
 438 779 544 717 544 563 c 2
 544 551 l 1
 443 551 l 1
 443 567 l 2
 443 645 384 688 307 688 c 0
 226 688 165 655 165 582 c 0xdc
 165 499 246 472 336 443 c 0
 443 408 563 369 563 221 c 0
 563 49 452 -14 303 -14 c 0
 164 -14 45 48 45 216 c 0
 45 222 46 234 47 239 c 1
 149 239 l 1
 149 216 l 2xea
 149 121 212 77 299 77 c 0
 401 77 460 122 460 205 c 0
 460 293 378 320 288 349 c 0
 179 384 62 423 62 573 c 0
 62 714 170 779 304 779 c 0xda
258 -168 m 1
 258 -67 l 1
 352 -67 l 1
 352 -160 l 1
 320 -248 l 1
 269 -248 l 1
 296 -168 l 1
 258 -168 l 1
EndSplineSet
Position2: "'cpsp' Capital Spacing lookup 0 subtable" dx=6 dy=0 dh=13 dv=0
EndChar

StartChar: T
Encoding: 84 84 98
Width: 559
VWidth: 1263
GlyphClass: 2
Flags: W
HStem: 0 21G<230 328> 677 88<21 230 328 537>
VStem: 230 98<0 677>
AnchorPoint: "Anchor-1" 280 0 basechar 0
AnchorPoint: "Anchor-0" 280 765 basechar 0
LayerCount: 2
Back
Fore
SplineSet
328 677 m 1
 328 0 l 1
 230 0 l 1
 230 677 l 1
 21 677 l 1
 21 765 l 1
 537 765 l 1
 537 677 l 1
 328 677 l 1
EndSplineSet
Position2: "'cpsp' Capital Spacing lookup 0 subtable" dx=6 dy=0 dh=13 dv=0
EndChar

StartChar: Tbar
Encoding: 358 358 99
Width: 559
VWidth: 1263
GlyphClass: 2
Flags: W
HStem: 0 21G<230 328> 357 81<86 230 328 475> 677 88<21 230 328 537>
VStem: 230 98<0 357 438 677>
LayerCount: 2
Back
Fore
SplineSet
328 677 m 1
 328 438 l 1
 475 438 l 1
 475 357 l 1
 328 357 l 1
 328 0 l 1
 230 0 l 1
 230 357 l 1
 86 357 l 1
 86 438 l 1
 230 438 l 1
 230 677 l 1
 21 677 l 1
 21 765 l 1
 537 765 l 1
 537 677 l 1
 328 677 l 1
EndSplineSet
Position2: "'cpsp' Capital Spacing lookup 0 subtable" dx=6 dy=0 dh=13 dv=0
EndChar

StartChar: Tcaron
Encoding: 356 356 100
Width: 559
VWidth: 1263
GlyphClass: 2
Flags: W
HStem: 0 21G<230 328> 677 88<21 230 328 537>
VStem: 230 98<0 677>
LayerCount: 2
Back
Fore
SplineSet
236 835 m 1
 140 986 l 1
 230 986 l 1
 279 898 l 1
 330 986 l 1
 418 986 l 1
 322 835 l 1
 236 835 l 1
328 677 m 1
 328 0 l 1
 230 0 l 1
 230 677 l 1
 21 677 l 1
 21 765 l 1
 537 765 l 1
 537 677 l 1
 328 677 l 1
EndSplineSet
Position2: "'cpsp' Capital Spacing lookup 0 subtable" dx=6 dy=0 dh=13 dv=0
EndChar

StartChar: uni0162
Encoding: 354 354 101
Width: 559
VWidth: 1263
GlyphClass: 2
Flags: W
HStem: -203 63<177.271 298.827> -195 55<176 267.499> 677 88<21 239 328 537>
VStem: 239 89<0 677> 239 62<-42.5735 0> 301 84<-137.848 -87.8528>
AnchorPoint: "Anchor-1" 280 0 basechar 0
AnchorPoint: "Anchor-0" 280 765 basechar 0
LayerCount: 2
Back
Fore
SplineSet
301 0 m 1xa8
 301 -40 l 1xa8
 349 -43 385 -61 385 -112 c 0
 385 -188 314 -203 269 -203 c 0xa4
 237 -203 203 -200 176 -195 c 1
 176 -140 l 1x64
 260 -140 l 2
 284 -140 301 -133 301 -112 c 0xa4
 301 -94 292 -86 263 -86 c 2
 226 -86 l 1
 239 0 l 1
 239 677 l 1
 21 677 l 1
 21 765 l 1
 537 765 l 1
 537 677 l 1
 328 677 l 1
 328 0 l 1xb0
 301 0 l 1xa8
EndSplineSet
Substitution2: "'locl' Localized Forms in Latin lookup 6 subtable" uni021A
Substitution2: "'locl' Localized Forms in Latin lookup 5 subtable" uni021A
Substitution2: "'aalt' Access All Alternates lookup 0 subtable" uni021A
Position2: "'cpsp' Capital Spacing lookup 0 subtable" dx=6 dy=0 dh=13 dv=0
EndChar

StartChar: uni021A
Encoding: 538 538 102
Width: 559
VWidth: 1263
GlyphClass: 2
Flags: W
HStem: 0 21G<230 328> 677 88<21 230 328 537>
VStem: 230 98<-160 -67 0 677>
LayerCount: 2
Back
Fore
SplineSet
328 677 m 1
 328 0 l 1
 230 0 l 1
 230 677 l 1
 21 677 l 1
 21 765 l 1
 537 765 l 1
 537 677 l 1
 328 677 l 1
232 -168 m 1
 232 -67 l 1
 327 -67 l 1
 327 -160 l 1
 294 -248 l 1
 245 -248 l 1
 270 -168 l 1
 232 -168 l 1
EndSplineSet
Position2: "'cpsp' Capital Spacing lookup 0 subtable" dx=6 dy=0 dh=13 dv=0
EndChar

StartChar: U
Encoding: 85 85 103
Width: 660
VWidth: 1263
GlyphClass: 2
Flags: W
HStem: -14 91<247.632 414.09> 745 20G<78 177 485 582>
VStem: 78 99<147.858 765> 485 97<147.858 765>
AnchorPoint: "Anchor-1" 0 0 basechar 0
AnchorPoint: "Anchor-0" 331 765 basechar 0
LayerCount: 2
Back
Fore
SplineSet
582 249 m 2
 582 77 488 -14 331 -14 c 0
 173 -14 78 77 78 249 c 2
 78 765 l 1
 177 765 l 1
 177 244 l 2
 177 135 235 77 331 77 c 0
 427 77 485 135 485 244 c 2
 485 765 l 1
 582 765 l 1
 582 249 l 2
EndSplineSet
Position2: "'cpsp' Capital Spacing lookup 0 subtable" dx=6 dy=0 dh=13 dv=0
EndChar

StartChar: Uacute
Encoding: 218 218 104
Width: 660
VWidth: 1263
GlyphClass: 2
Flags: W
HStem: -14 91<247.632 414.09> 745 20G<78 177 485 582>
VStem: 78 99<147.858 765> 485 97<147.858 765>
LayerCount: 2
Back
Fore
SplineSet
342 839 m 1
 264 839 l 1
 360 986 l 1
 460 986 l 1
 342 839 l 1
582 249 m 2
 582 77 488 -14 331 -14 c 0
 173 -14 78 77 78 249 c 2
 78 765 l 1
 177 765 l 1
 177 244 l 2
 177 135 235 77 331 77 c 0
 427 77 485 135 485 244 c 2
 485 765 l 1
 582 765 l 1
 582 249 l 2
EndSplineSet
Position2: "'cpsp' Capital Spacing lookup 0 subtable" dx=6 dy=0 dh=13 dv=0
EndChar

StartChar: Ubreve
Encoding: 364 364 105
Width: 660
VWidth: 1263
GlyphClass: 2
Flags: W
HStem: -14 91<247.632 414.09> 745 20G<78 177 485 582> 878 71<275.105 388.814>
VStem: 78 99<147.858 765> 192 73<961.895 986> 398 71<961.895 986> 485 97<147.858 765>
LayerCount: 2
Back
Fore
SplineSet
469 986 m 1
 469 935 417 878 331 878 c 0
 245 878 192 935 192 986 c 1
 265 986 l 1
 268 970 293 949 331 949 c 0
 369 949 395 970 398 986 c 1
 469 986 l 1
582 249 m 2
 582 77 488 -14 331 -14 c 0
 173 -14 78 77 78 249 c 2
 78 765 l 1
 177 765 l 1
 177 244 l 2
 177 135 235 77 331 77 c 0
 427 77 485 135 485 244 c 2
 485 765 l 1
 582 765 l 1
 582 249 l 2
EndSplineSet
Position2: "'cpsp' Capital Spacing lookup 0 subtable" dx=6 dy=0 dh=13 dv=0
EndChar

StartChar: Ucircumflex
Encoding: 219 219 106
Width: 660
VWidth: 1263
GlyphClass: 2
Flags: W
HStem: -14 91<247.632 414.09> 745 20G<78 177 485 582>
VStem: 78 99<147.858 765> 485 97<147.858 765>
LayerCount: 2
Back
Fore
SplineSet
380 834 m 1
 332 922 l 1
 280 834 l 1
 191 834 l 1
 287 985 l 1
 374 985 l 1
 470 834 l 1
 380 834 l 1
582 249 m 2
 582 77 488 -14 331 -14 c 0
 173 -14 78 77 78 249 c 2
 78 765 l 1
 177 765 l 1
 177 244 l 2
 177 135 235 77 331 77 c 0
 427 77 485 135 485 244 c 2
 485 765 l 1
 582 765 l 1
 582 249 l 2
EndSplineSet
Position2: "'cpsp' Capital Spacing lookup 0 subtable" dx=6 dy=0 dh=13 dv=0
EndChar

StartChar: Udieresis
Encoding: 220 220 107
Width: 660
VWidth: 1263
GlyphClass: 2
Flags: W
HStem: -14 91<247.632 414.09> 745 20G<78 177 485 582> 880 106<197 294 365 464>
VStem: 78 99<147.858 765> 197 97<880 986> 365 99<880 986> 485 97<147.858 765>
LayerCount: 2
Back
Fore
SplineSet
197 880 m 1
 197 986 l 1
 294 986 l 1
 294 880 l 1
 197 880 l 1
365 880 m 1
 365 986 l 1
 464 986 l 1
 464 880 l 1
 365 880 l 1
582 249 m 2
 582 77 488 -14 331 -14 c 0
 173 -14 78 77 78 249 c 2
 78 765 l 1
 177 765 l 1
 177 244 l 2
 177 135 235 77 331 77 c 0
 427 77 485 135 485 244 c 2
 485 765 l 1
 582 765 l 1
 582 249 l 2
EndSplineSet
Position2: "'cpsp' Capital Spacing lookup 0 subtable" dx=6 dy=0 dh=13 dv=0
EndChar

StartChar: Ugrave
Encoding: 217 217 108
Width: 660
VWidth: 1263
GlyphClass: 2
Flags: W
HStem: -14 91<247.632 414.09> 745 20G<78 177 485 582>
VStem: 78 99<147.858 765> 485 97<147.858 765>
LayerCount: 2
Back
Fore
SplineSet
321 839 m 1
 196.518444166 984.734504391 l 1
 302 984.734504391 l 1
 397 839 l 1
 321 839 l 1
582 249 m 2
 582 77 488 -14 331 -14 c 0
 173 -14 78 77 78 249 c 2
 78 765 l 1
 177 765 l 1
 177 244 l 2
 177 135 235 77 331 77 c 0
 427 77 485 135 485 244 c 2
 485 765 l 1
 582 765 l 1
 582 249 l 2
EndSplineSet
Position2: "'cpsp' Capital Spacing lookup 0 subtable" dx=6 dy=0 dh=13 dv=0
EndChar

StartChar: Uhungarumlaut
Encoding: 368 368 109
Width: 660
VWidth: 1263
GlyphClass: 2
Flags: W
HStem: -14 91<247.632 414.09> 745 20G<78 177 485 582>
VStem: 78 99<147.858 765> 485 97<147.858 765>
LayerCount: 2
Back
Fore
SplineSet
301 839 m 1
 224 839 l 1
 293 986 l 1
 393 986 l 1
 301 839 l 1
446 839 m 1
 370 839 l 1
 438 986 l 1
 538 986 l 1
 446 839 l 1
582 249 m 2
 582 77 488 -14 331 -14 c 0
 173 -14 78 77 78 249 c 2
 78 765 l 1
 177 765 l 1
 177 244 l 2
 177 135 235 77 331 77 c 0
 427 77 485 135 485 244 c 2
 485 765 l 1
 582 765 l 1
 582 249 l 2
EndSplineSet
Position2: "'cpsp' Capital Spacing lookup 0 subtable" dx=6 dy=0 dh=13 dv=0
EndChar

StartChar: Umacron
Encoding: 362 362 110
Width: 660
VWidth: 1263
GlyphClass: 2
Flags: W
HStem: -14 91<247.632 414.09> 745 20G<78 177 485 582> 847 81<191 470>
VStem: 78 99<147.858 765> 485 97<147.858 765>
LayerCount: 2
Back
Fore
SplineSet
191 847 m 1
 191 928 l 1
 470 928 l 1
 470 847 l 1
 191 847 l 1
582 249 m 2
 582 77 488 -14 331 -14 c 0
 173 -14 78 77 78 249 c 2
 78 765 l 1
 177 765 l 1
 177 244 l 2
 177 135 235 77 331 77 c 0
 427 77 485 135 485 244 c 2
 485 765 l 1
 582 765 l 1
 582 249 l 2
EndSplineSet
Position2: "'cpsp' Capital Spacing lookup 0 subtable" dx=6 dy=0 dh=13 dv=0
EndChar

StartChar: Uogonek
Encoding: 370 370 111
Width: 660
VWidth: 1263
GlyphClass: 2
Flags: W
HStem: -203 73<424.197 497.923> -188 58<432.077 499> -14 91<247.632 354.21> 745 20G<78 177 485 582>
VStem: 78 99<147.858 765> 326 87<-120.321 -25.4275> 485 97<148.653 765>
LayerCount: 2
Back
Fore
SplineSet
582 765 m 1xbe
 582 249 l 2
 582 123 531 42 443 5 c 1
 429 -10 413 -39 413 -69 c 0
 413 -101 427 -130 465 -130 c 2xbe
 499 -130 l 1
 499 -188 l 1x7e
 476 -197 454 -203 431 -203 c 0
 383 -203 326 -179 326 -102 c 0
 326 -64 338 -37 356 -13 c 1
 348 -14 341 -14 331 -14 c 0
 173 -14 78 77 78 249 c 2
 78 765 l 1
 177 765 l 1
 177 244 l 2
 177 135 235 77 331 77 c 0
 427 77 485 135 485 244 c 2
 485 765 l 1
 582 765 l 1xbe
EndSplineSet
Position2: "'cpsp' Capital Spacing lookup 0 subtable" dx=6 dy=0 dh=13 dv=0
EndChar

StartChar: Uring
Encoding: 366 366 112
Width: 660
VWidth: 1263
GlyphClass: 2
Flags: W
HStem: -14 91<247.632 414.09> 745 20G<78 177 485 582> 807 51<286.716 375.19> 971 51<286.502 375.19>
VStem: 78 99<147.858 765> 224 50<870.58 958.586> 388 50<870.224 957.945> 485 97<147.858 765>
LayerCount: 2
Back
Fore
SplineSet
331 1022 m 0
 390 1022 438 972 438 914 c 0
 438 855 390 807 331 807 c 0
 273 807 224 853 224 914 c 0
 224 973 272 1022 331 1022 c 0
331 971 m 0
 299 971 274 946 274 914 c 0
 274 882 299 858 331 858 c 0
 361 858 388 882 388 914 c 0
 388 946 361 971 331 971 c 0
582 249 m 2
 582 77 488 -14 331 -14 c 0
 173 -14 78 77 78 249 c 2
 78 765 l 1
 177 765 l 1
 177 244 l 2
 177 135 235 77 331 77 c 0
 427 77 485 135 485 244 c 2
 485 765 l 1
 582 765 l 1
 582 249 l 2
EndSplineSet
Position2: "'cpsp' Capital Spacing lookup 0 subtable" dx=6 dy=0 dh=13 dv=0
EndChar

StartChar: Utilde
Encoding: 360 360 113
Width: 660
VWidth: 1263
GlyphClass: 2
Flags: W
HStem: -14 91<247.632 414.09> 745 20G<78 177 485 582> 870 82<322.166 425.204> 904 82<237.018 339.653>
VStem: 78 99<147.858 765> 168 64<870 899.643> 428 66<955.985 986> 485 97<147.858 765>
LayerCount: 2
Back
Fore
SplineSet
263 986 m 0xd6
 311.006042139 987.570651854 345.485074586 952.495684078 390 952 c 0xe6
 410 952 425 959 428 986 c 1
 494 986 l 1xd6
 494 934 466 870 399 870 c 0xe6
 351.780436125 870 315.440156319 904 270 904 c 0xd6
 250 904 236 895 232 870 c 1
 168 870 l 1xe6
 168 921 196 986 263 986 c 0xd6
582 249 m 2xc9
 582 77 488 -14 331 -14 c 0
 173 -14 78 77 78 249 c 2
 78 765 l 1
 177 765 l 1
 177 244 l 2
 177 135 235 77 331 77 c 0
 427 77 485 135 485 244 c 2
 485 765 l 1
 582 765 l 1
 582 249 l 2xc9
EndSplineSet
Position2: "'cpsp' Capital Spacing lookup 0 subtable" dx=6 dy=0 dh=13 dv=0
EndChar

StartChar: V
Encoding: 86 86 114
Width: 611
VWidth: 1263
GlyphClass: 2
Flags: W
HStem: 0 21G<235.908 375.065> 745 20G<9 122.793 499.933 601>
LayerCount: 2
Back
Fore
SplineSet
9 765 m 1
 117 765 l 1
 307 109 l 1
 506 765 l 1
 601 765 l 1
 369 0 l 1
 242 0 l 1
 9 765 l 1
EndSplineSet
Position2: "'cpsp' Capital Spacing lookup 0 subtable" dx=6 dy=0 dh=13 dv=0
EndChar

StartChar: W
Encoding: 87 87 115
Width: 863
VWidth: 1263
GlyphClass: 2
Flags: W
HStem: 0 21G<183.373 319.329 544.416 680.627> 745 20G<11 119.282 364.635 507.431 759.577 853>
AnchorPoint: "Anchor-1" 0 0 basechar 0
AnchorPoint: "Anchor-0" 432 765 basechar 0
LayerCount: 2
Back
Fore
SplineSet
427.716619716 671.258864165 m 1
 316 0 l 1
 188 0 l 1
 11 765 l 1
 115 765 l 1
 256.668475133 103.265430848 l 1
 368 765 l 1
 504 765 l 1
 617.575848618 102.962597599 l 1
 764 765 l 1
 853 765 l 1
 676 0 l 1
 548 0 l 1
 427.716619716 671.258864165 l 1
EndSplineSet
Position2: "'cpsp' Capital Spacing lookup 0 subtable" dx=6 dy=0 dh=13 dv=0
EndChar

StartChar: Wacute
Encoding: 7810 7810 116
Width: 863
VWidth: 1263
GlyphClass: 2
Flags: W
HStem: 0 21G<183.373 319.545 544.627 680.627> 745 20G<11 119.282 364.635 507.431 759.577 853>
LayerCount: 2
Back
Fore
SplineSet
443 839 m 1
 366 839 l 1
 462 986 l 1
 562 986 l 1
 443 839 l 1
548 0 m 1
 434.896504815 670.731369556 l 1
 316 0 l 1
 188 0 l 1
 11 765 l 1
 115 765 l 1
 256.668475133 103.265430848 l 1
 368 765 l 1
 504 765 l 1
 617.575848618 102.962597599 l 1
 764 765 l 1
 853 765 l 1
 676 0 l 1
 548 0 l 1
EndSplineSet
Position2: "'cpsp' Capital Spacing lookup 0 subtable" dx=6 dy=0 dh=13 dv=0
EndChar

StartChar: Wcircumflex
Encoding: 372 372 117
Width: 863
VWidth: 1263
GlyphClass: 2
Flags: W
HStem: 0 21G<183.373 319.329 544.416 680.627> 745 20G<11 119.282 364.635 507.431 759.577 853>
LayerCount: 2
Back
Fore
SplineSet
433 922 m 1
 383 834 l 1
 293 834 l 1
 390 985 l 1
 476 985 l 1
 572 834 l 1
 482 834 l 1
 433 922 l 1
427.716619716 671.258864165 m 1
 316 0 l 1
 188 0 l 1
 11 765 l 1
 115 765 l 1
 256.668475133 103.265430848 l 1
 368 765 l 1
 504 765 l 1
 617.575848618 102.962597599 l 1
 764 765 l 1
 853 765 l 1
 676 0 l 1
 548 0 l 1
 427.716619716 671.258864165 l 1
EndSplineSet
Position2: "'cpsp' Capital Spacing lookup 0 subtable" dx=6 dy=0 dh=13 dv=0
EndChar

StartChar: Wdieresis
Encoding: 7812 7812 118
Width: 863
VWidth: 1263
GlyphClass: 2
Flags: W
HStem: 0 21G<183.373 319.545 544.627 680.627> 745 20G<11 119.282 364.635 507.431 759.577 853> 880 106<301 397 467 565>
VStem: 301 96<880 986> 467 98<880 986>
LayerCount: 2
Back
Fore
SplineSet
301 880 m 1
 301 986 l 1
 397 986 l 1
 397 880 l 1
 301 880 l 1
467 880 m 1
 467 986 l 1
 565 986 l 1
 565 880 l 1
 467 880 l 1
548 0 m 1
 434.896504815 670.731369556 l 1
 316 0 l 1
 188 0 l 1
 11 765 l 1
 115 765 l 1
 256.668475133 103.265430848 l 1
 368 765 l 1
 504 765 l 1
 617.575848618 102.962597599 l 1
 764 765 l 1
 853 765 l 1
 676 0 l 1
 548 0 l 1
EndSplineSet
Position2: "'cpsp' Capital Spacing lookup 0 subtable" dx=6 dy=0 dh=13 dv=0
EndChar

StartChar: Wgrave
Encoding: 7808 7808 119
Width: 863
VWidth: 1263
GlyphClass: 2
Flags: W
HStem: 0 21G<183.373 319.545 544.627 680.627> 745 20G<11 119.282 364.635 507.431 759.577 853>
LayerCount: 2
Back
Fore
SplineSet
422 839 m 1
 300.524590164 984.770491803 l 1
 403 984.770491803 l 1
 499 839 l 1
 422 839 l 1
548 0 m 1
 434.896504815 670.731369556 l 1
 316 0 l 1
 188 0 l 1
 11 765 l 1
 115 765 l 1
 256.668475133 103.265430848 l 1
 368 765 l 1
 504 765 l 1
 617.575848618 102.962597599 l 1
 764 765 l 1
 853 765 l 1
 676 0 l 1
 548 0 l 1
EndSplineSet
Position2: "'cpsp' Capital Spacing lookup 0 subtable" dx=6 dy=0 dh=13 dv=0
EndChar

StartChar: X
Encoding: 88 88 120
Width: 611
VWidth: 1263
GlyphClass: 2
Flags: W
HStem: 0 21G<5 122.268 477.987 606> 745 20G<27 155.132 463.647 582>
LayerCount: 2
Back
Fore
SplineSet
490 0 m 1
 302 313 l 1
 110 0 l 1
 5 0 l 1
 249 398 l 1
 27 765 l 1
 143 765 l 1
 308 493 l 1
 476 765 l 1
 582 765 l 1
 360 407 l 1
 606 0 l 1
 490 0 l 1
EndSplineSet
Position2: "'cpsp' Capital Spacing lookup 0 subtable" dx=6 dy=0 dh=13 dv=0
EndChar

StartChar: Y
Encoding: 89 89 121
Width: 611
VWidth: 1263
GlyphClass: 2
Flags: W
HStem: 0 21G<256 355> 745 20G<9 127.986 495.07 601>
VStem: 256 99<0 317>
AnchorPoint: "Anchor-1" 0 0 basechar 0
AnchorPoint: "Anchor-0" 306 765 basechar 0
LayerCount: 2
Back
Fore
SplineSet
256 0 m 1
 256 317 l 1
 9 765 l 1
 117 765 l 1
 312 410 l 1
 506 765 l 1
 601 765 l 1
 355 317 l 1
 355 0 l 1
 256 0 l 1
EndSplineSet
Position2: "'cpsp' Capital Spacing lookup 0 subtable" dx=6 dy=0 dh=13 dv=0
EndChar

StartChar: Yacute
Encoding: 221 221 122
Width: 611
VWidth: 1263
GlyphClass: 2
Flags: W
HStem: 0 21G<256 355> 745 20G<9 127.986 495.07 601>
VStem: 256 99<0 317>
LayerCount: 2
Back
Fore
SplineSet
316 839 m 1
 239 839 l 1
 335 986 l 1
 436 986 l 1
 316 839 l 1
355 0 m 1
 256 0 l 1
 256 317 l 1
 9 765 l 1
 117 765 l 1
 312 410 l 1
 506 765 l 1
 601 765 l 1
 355 317 l 1
 355 0 l 1
EndSplineSet
Position2: "'cpsp' Capital Spacing lookup 0 subtable" dx=6 dy=0 dh=13 dv=0
EndChar

StartChar: Ycircumflex
Encoding: 374 374 123
Width: 611
VWidth: 1263
GlyphClass: 2
Flags: W
HStem: 0 21G<256 355> 745 20G<9 127.986 495.07 601>
VStem: 256 99<0 317>
LayerCount: 2
Back
Fore
SplineSet
306 922 m 1
 255 834 l 1
 167 834 l 1
 263 985 l 1
 350 985 l 1
 445 834 l 1
 355 834 l 1
 306 922 l 1
256 0 m 1
 256 317 l 1
 9 765 l 1
 117 765 l 1
 312 410 l 1
 506 765 l 1
 601 765 l 1
 355 317 l 1
 355 0 l 1
 256 0 l 1
EndSplineSet
Position2: "'cpsp' Capital Spacing lookup 0 subtable" dx=6 dy=0 dh=13 dv=0
EndChar

StartChar: Ydieresis
Encoding: 376 376 124
Width: 611
VWidth: 1263
GlyphClass: 2
Flags: W
HStem: 0 21G<256 355> 745 20G<9 127.986 495.07 601> 880 106<173 270 341 438>
VStem: 173 97<880 986> 256 99<0 317> 341 97<880 986>
LayerCount: 2
Back
Fore
SplineSet
173 880 m 1xf0
 173 986 l 1
 270 986 l 1
 270 880 l 1
 173 880 l 1xf0
341 880 m 1xe4
 341 986 l 1
 438 986 l 1
 438 880 l 1
 341 880 l 1xe4
355 0 m 1xe8
 256 0 l 1
 256 317 l 1
 9 765 l 1
 117 765 l 1
 312 410 l 1
 506 765 l 1
 601 765 l 1
 355 317 l 1
 355 0 l 1xe8
EndSplineSet
Position2: "'cpsp' Capital Spacing lookup 0 subtable" dx=6 dy=0 dh=13 dv=0
EndChar

StartChar: Ygrave
Encoding: 7922 7922 125
Width: 611
VWidth: 1263
GlyphClass: 2
Flags: W
HStem: 0 21G<256 355> 745 20G<9 127.986 495.07 601>
VStem: 256 99<0 317>
LayerCount: 2
Back
Fore
SplineSet
294 839 m 1
 172.524590164 984.770491803 l 1
 275 984.770491803 l 1
 371 839 l 1
 294 839 l 1
355 0 m 1
 256 0 l 1
 256 317 l 1
 9 765 l 1
 117 765 l 1
 312 410 l 1
 506 765 l 1
 601 765 l 1
 355 317 l 1
 355 0 l 1
EndSplineSet
Position2: "'cpsp' Capital Spacing lookup 0 subtable" dx=6 dy=0 dh=13 dv=0
EndChar

StartChar: Z
Encoding: 90 90 126
Width: 559
VWidth: 1263
GlyphClass: 2
Flags: W
HStem: 0 90<162 534> 677 88<45 386>
AnchorPoint: "Anchor-1" 0 0 basechar 0
AnchorPoint: "Anchor-0" 280 765 basechar 0
LayerCount: 2
Back
Fore
SplineSet
534 90 m 1
 534 0 l 1
 23 0 l 1
 23 43 l 1
 386 677 l 1
 45 677 l 1
 45 765 l 1
 527 765 l 1
 527 724 l 1
 162 90 l 1
 534 90 l 1
EndSplineSet
Position2: "'cpsp' Capital Spacing lookup 0 subtable" dx=6 dy=0 dh=13 dv=0
EndChar

StartChar: Zacute
Encoding: 377 377 127
Width: 559
VWidth: 1263
GlyphClass: 2
Flags: W
HStem: 0 90<162 534> 677 88<45 386>
LayerCount: 2
Back
Fore
SplineSet
290 839 m 1
 213 839 l 1
 309 986 l 1
 409 986 l 1
 290 839 l 1
534 90 m 1
 534 0 l 1
 23 0 l 1
 23 43 l 1
 386 677 l 1
 45 677 l 1
 45 765 l 1
 527 765 l 1
 527 724 l 1
 162 90 l 1
 534 90 l 1
EndSplineSet
Position2: "'cpsp' Capital Spacing lookup 0 subtable" dx=6 dy=0 dh=13 dv=0
EndChar

StartChar: Zcaron
Encoding: 381 381 128
Width: 559
VWidth: 1263
GlyphClass: 2
Flags: W
HStem: 0 90<162 534> 677 88<45 386>
LayerCount: 2
Back
Fore
SplineSet
236 835 m 1
 140 986 l 1
 230 986 l 1
 279 898 l 1
 330 986 l 1
 418 986 l 1
 322 835 l 1
 236 835 l 1
534 90 m 1
 534 0 l 1
 23 0 l 1
 23 43 l 1
 386 677 l 1
 45 677 l 1
 45 765 l 1
 527 765 l 1
 527 724 l 1
 162 90 l 1
 534 90 l 1
EndSplineSet
Position2: "'cpsp' Capital Spacing lookup 0 subtable" dx=6 dy=0 dh=13 dv=0
EndChar

StartChar: Zdotaccent
Encoding: 379 379 129
Width: 559
VWidth: 1263
GlyphClass: 2
Flags: W
HStem: 0 90<162 534> 677 88<45 386> 880 106<231 328>
VStem: 231 97<880 986>
LayerCount: 2
Back
Fore
SplineSet
231 880 m 1
 231 986 l 1
 328 986 l 1
 328 880 l 1
 231 880 l 1
534 90 m 1
 534 0 l 1
 23 0 l 1
 23 43 l 1
 386 677 l 1
 45 677 l 1
 45 765 l 1
 527 765 l 1
 527 724 l 1
 162 90 l 1
 534 90 l 1
EndSplineSet
Position2: "'cpsp' Capital Spacing lookup 0 subtable" dx=6 dy=0 dh=13 dv=0
EndChar

StartChar: a
Encoding: 97 97 130
Width: 508
VWidth: 1263
GlyphClass: 2
Flags: W
HStem: -14 82<152.926 277.795 430.76 493.522> 5 63<434.354 494> 266 83<190.343 335> 519 82<180.081 311.044>
VStem: 38 96<87.8452 219.98> 61 91<413 492.404> 335 92<127.361 266 349 494.795>
AnchorPoint: "Anchor-1" 0 0 basechar 0
AnchorPoint: "Anchor-0" 255 587 basechar 0
LayerCount: 2
Back
Fore
SplineSet
249 601 m 0xb6
 368 601 427 541 427 437 c 2
 427 107 l 2
 427 79 442 68 457 68 c 2xb6
 494 68 l 1
 494 5 l 1x76
 484 -1 462 -9 433 -9 c 0
 385 -9 351 20 341 63 c 1
 311 15 254 -14 192 -14 c 0
 134 -14 38 11 38 152 c 0xba
 38 314 164 349 335 349 c 1
 335 424 l 2
 335 480 317 519 242 519 c 0
 173 519 152 471 152 427 c 2
 152 413 l 1
 62 413 l 1
 61 419 61 428 61 438 c 0
 61 544 139 601 249 601 c 0xb6
335 266 m 1
 216 266 134 249 134 158 c 0xba
 134 91 161 68 213 68 c 0
 271 68 335 116 335 213 c 2
 335 266 l 1
EndSplineSet
Substitution2: "Single Substitution lookup 40 subtable" ordfeminine
Substitution2: "'aalt' Access All Alternates lookup 0 subtable" ordfeminine
EndChar

StartChar: aacute
Encoding: 225 225 131
Width: 508
VWidth: 1263
GlyphClass: 2
Flags: W
HStem: -14 82<152.926 277.795 430.76 493.522> 5 63<434.354 494> 266 83<190.343 335> 519 82<180.081 311.044> 787 20G<266.027 380>
VStem: 38 96<87.8452 219.98> 61 91<413 492.404> 335 92<127.361 266 349 494.795>
LayerCount: 2
Back
Fore
SplineSet
260 659 m 1x39
 183 659 l 1
 279 807 l 1
 380 807 l 1
 260 659 l 1x39
249 601 m 0
 368 601 427 541 427 437 c 2
 427 107 l 2
 427 79 442 68 457 68 c 2xbb
 494 68 l 1
 494 5 l 1x7b
 484 -1 462 -9 433 -9 c 0
 385 -9 351 20 341 63 c 1
 311 15 254 -14 192 -14 c 0
 134 -14 38 11 38 152 c 0xbd
 38 314 164 349 335 349 c 1
 335 424 l 2
 335 480 317 519 242 519 c 0
 173 519 152 471 152 427 c 2
 152 413 l 1
 62 413 l 1
 61 419 61 428 61 438 c 0xbb
 61 544 139 601 249 601 c 0
335 266 m 1
 216 266 134 249 134 158 c 0xbd
 134 91 161 68 213 68 c 0
 271 68 335 116 335 213 c 2
 335 266 l 1
EndSplineSet
EndChar

StartChar: abreve
Encoding: 259 259 132
Width: 508
VWidth: 1263
GlyphClass: 2
Flags: W
HStem: -14 82<152.926 277.795 430.76 493.522> 5 63<434.354 494> 266 83<190.343 335> 519 82<180.081 311.044> 698 72<198.842 312.814> 787 20G<116 190 320.5 393>
VStem: 38 96<87.8452 219.98> 61 91<413 492.404> 116 72<782.829 807> 322 71<782.829 807> 335 92<127.361 266 349 494.795>
LayerCount: 2
Back
Fore
SplineSet
393 807 m 1x3cc0
 393 756 341 698 255 698 c 0
 169 698 116 756 116 807 c 1
 188 807 l 1
 192 792 216 770 255 770 c 0
 293 770 319 792 322 807 c 1
 393 807 l 1x3cc0
249 601 m 0
 368 601 427 541 427 437 c 2
 427 107 l 2
 427 79 442 68 457 68 c 2xbd20
 494 68 l 1
 494 5 l 1x7d20
 484 -1 462 -9 433 -9 c 0
 385 -9 351 20 341 63 c 1
 311 15 254 -14 192 -14 c 0
 134 -14 38 11 38 152 c 0xbe20
 38 314 164 349 335 349 c 1
 335 424 l 2
 335 480 317 519 242 519 c 0
 173 519 152 471 152 427 c 2
 152 413 l 1
 62 413 l 1
 61 419 61 428 61 438 c 0xbd20
 61 544 139 601 249 601 c 0
335 266 m 1
 216 266 134 249 134 158 c 0xbe20
 134 91 161 68 213 68 c 0
 271 68 335 116 335 213 c 2
 335 266 l 1
EndSplineSet
EndChar

StartChar: acircumflex
Encoding: 226 226 133
Width: 508
VWidth: 1263
GlyphClass: 2
Flags: W
HStem: -14 82<152.926 277.795 430.76 493.522> 5 63<434.354 494> 266 83<190.343 335> 519 82<180.081 311.044>
VStem: 38 96<87.8452 219.98> 61 91<413 492.404> 335 92<127.361 266 349 494.795>
LayerCount: 2
Back
Fore
SplineSet
255 744 m 1x32
 206 655 l 1
 116 655 l 1
 211 806 l 1
 299 806 l 1
 394 655 l 1
 304 655 l 1
 255 744 l 1x32
249 601 m 0
 368 601 427 541 427 437 c 2
 427 107 l 2
 427 79 442 68 457 68 c 2xb6
 494 68 l 1
 494 5 l 1x76
 484 -1 462 -9 433 -9 c 0
 385 -9 351 20 341 63 c 1
 311 15 254 -14 192 -14 c 0
 134 -14 38 11 38 152 c 0xba
 38 314 164 349 335 349 c 1
 335 424 l 2
 335 480 317 519 242 519 c 0
 173 519 152 471 152 427 c 2
 152 413 l 1
 62 413 l 1
 61 419 61 428 61 438 c 0xb6
 61 544 139 601 249 601 c 0
335 266 m 1
 216 266 134 249 134 158 c 0xba
 134 91 161 68 213 68 c 0
 271 68 335 116 335 213 c 2
 335 266 l 1
EndSplineSet
EndChar

StartChar: adieresis
Encoding: 228 228 134
Width: 508
VWidth: 1263
GlyphClass: 2
Flags: W
HStem: -14 82<152.926 277.795 430.76 493.522> 5 63<434.354 494> 266 83<190.343 335> 519 82<180.081 311.044> 701 106<121 218 289 388>
VStem: 38 96<87.8452 219.98> 61 91<413 492.404> 121 97<701 807> 289 99<701 807> 335 92<127.361 266 349 494.795>
LayerCount: 2
Back
Fore
SplineSet
121 701 m 1x39
 121 807 l 1
 218 807 l 1
 218 701 l 1
 121 701 l 1x39
289 701 m 1x3880
 289 807 l 1
 388 807 l 1
 388 701 l 1
 289 701 l 1x3880
249 601 m 0
 368 601 427 541 427 437 c 2
 427 107 l 2
 427 79 442 68 457 68 c 2xba40
 494 68 l 1
 494 5 l 1x7a40
 484 -1 462 -9 433 -9 c 0
 385 -9 351 20 341 63 c 1
 311 15 254 -14 192 -14 c 0
 134 -14 38 11 38 152 c 0xbc40
 38 314 164 349 335 349 c 1
 335 424 l 2
 335 480 317 519 242 519 c 0
 173 519 152 471 152 427 c 2
 152 413 l 1
 62 413 l 1
 61 419 61 428 61 438 c 0xba40
 61 544 139 601 249 601 c 0
335 266 m 1
 216 266 134 249 134 158 c 0xbc40
 134 91 161 68 213 68 c 0
 271 68 335 116 335 213 c 2
 335 266 l 1
EndSplineSet
EndChar

StartChar: agrave
Encoding: 224 224 135
Width: 508
VWidth: 1263
GlyphClass: 2
Flags: W
HStem: -14 82<152.926 277.795 430.76 493.522> 5 63<434.354 494> 266 83<190.343 335> 519 82<180.081 311.044>
VStem: 38 96<87.8452 219.98> 61 91<413 492.404> 335 92<127.361 266 349 494.795>
LayerCount: 2
Back
Fore
SplineSet
239 659 m 1x32
 117.032786885 805.360655738 l 1
 220 805.360655738 l 1
 316 659 l 1
 239 659 l 1x32
249 601 m 0
 368 601 427 541 427 437 c 2
 427 107 l 2
 427 79 442 68 457 68 c 2xb6
 494 68 l 1
 494 5 l 1x76
 484 -1 462 -9 433 -9 c 0
 385 -9 351 20 341 63 c 1
 311 15 254 -14 192 -14 c 0
 134 -14 38 11 38 152 c 0xba
 38 314 164 349 335 349 c 1
 335 424 l 2
 335 480 317 519 242 519 c 0
 173 519 152 471 152 427 c 2
 152 413 l 1
 62 413 l 1
 61 419 61 428 61 438 c 0xb6
 61 544 139 601 249 601 c 0
335 266 m 1
 216 266 134 249 134 158 c 0xba
 134 91 161 68 213 68 c 0
 271 68 335 116 335 213 c 2
 335 266 l 1
EndSplineSet
EndChar

StartChar: amacron
Encoding: 257 257 136
Width: 508
VWidth: 1263
GlyphClass: 2
Flags: W
HStem: -14 82<152.926 277.795 430.76 493.522> 5 63<434.354 494> 266 83<190.343 335> 519 82<180.081 311.044> 669 80<115 395>
VStem: 38 96<87.8452 219.98> 61 91<413 492.404> 335 92<127.361 266 349 494.795>
LayerCount: 2
Back
Fore
SplineSet
115 749 m 1x39
 395 749 l 1
 395 669 l 1
 115 669 l 1
 115 749 l 1x39
249 601 m 0
 368 601 427 541 427 437 c 2
 427 107 l 2
 427 79 442 68 457 68 c 2xbb
 494 68 l 1
 494 5 l 1x7b
 484 -1 462 -9 433 -9 c 0
 385 -9 351 20 341 63 c 1
 311 15 254 -14 192 -14 c 0
 134 -14 38 11 38 152 c 0xbd
 38 314 164 349 335 349 c 1
 335 424 l 2
 335 480 317 519 242 519 c 0
 173 519 152 471 152 427 c 2
 152 413 l 1
 62 413 l 1
 61 419 61 428 61 438 c 0xbb
 61 544 139 601 249 601 c 0
335 266 m 1
 216 266 134 249 134 158 c 0xbd
 134 91 161 68 213 68 c 0
 271 68 335 116 335 213 c 2
 335 266 l 1
EndSplineSet
EndChar

StartChar: aogonek
Encoding: 261 261 137
Width: 508
VWidth: 1263
GlyphClass: 2
Flags: W
HStem: -203 73<475.204 549.876> -188 58<483.077 551> -14 82<152.926 277.795> 266 83<190.343 335> 519 82<180.081 311.044>
VStem: 38 96<87.8452 219.98> 61 91<413 492.404> 335 92<127.361 266 349 494.795> 378 87<-122.29 -20.6911>
LayerCount: 2
Back
Fore
SplineSet
482 -203 m 0xb880
 434 -203 378 -179 378 -102 c 0
 378 -59 391 -31 410 -6 c 1
 375 2 350 26 341 63 c 1
 311 15 254 -14 192 -14 c 0
 134 -14 38 11 38 152 c 0xbc80
 38 314 164 349 335 349 c 1
 335 424 l 2
 335 480 317 519 242 519 c 0
 173 519 152 471 152 427 c 2
 152 413 l 1
 62 413 l 1
 61 419 61 428 61 438 c 0
 61 544 139 601 249 601 c 0
 368 601 427 541 427 437 c 2
 427 107 l 2xbb
 427 79 442 68 457 68 c 2
 494 68 l 1
 494 5 l 1
 480 -13 465 -40 465 -69 c 0
 465 -101 477 -130 515 -130 c 2xb880
 551 -130 l 1
 551 -188 l 1x7880
 527 -197 505 -203 482 -203 c 0xb880
335 266 m 1x3d
 216 266 134 249 134 158 c 0
 134 91 161 68 213 68 c 0
 271 68 335 116 335 213 c 2
 335 266 l 1x3d
EndSplineSet
EndChar

StartChar: aring
Encoding: 229 229 138
Width: 508
VWidth: 1263
GlyphClass: 2
Flags: W
HStem: -14 82<152.926 277.795 430.76 493.522> 5 63<434.354 494> 266 83<190.343 335> 519 82<180.081 311.044> 628 50<210.845 298.286> 792 50<210.193 298.948>
VStem: 38 96<87.8452 219.98> 61 91<413 492.404> 148 49<690.899 779.151> 312 49<692.323 778.936> 335 92<127.361 266 349 494.795>
LayerCount: 2
Back
Fore
SplineSet
255 842 m 0x3cc0
 314 842 361 793 361 736 c 0
 361 675 313 628 255 628 c 0
 197 628 148 674 148 736 c 0
 148 794 196 842 255 842 c 0x3cc0
255 792 m 0
 223 792 197 766 197 736 c 0
 197 704 223 678 255 678 c 0
 284 678 312 704 312 736 c 0
 312 766 284 792 255 792 c 0
249 601 m 0
 368 601 427 541 427 437 c 2
 427 107 l 2
 427 79 442 68 457 68 c 2xbd20
 494 68 l 1
 494 5 l 1x7d20
 484 -1 462 -9 433 -9 c 0
 385 -9 351 20 341 63 c 1
 311 15 254 -14 192 -14 c 0
 134 -14 38 11 38 152 c 0xbe20
 38 314 164 349 335 349 c 1
 335 424 l 2
 335 480 317 519 242 519 c 0
 173 519 152 471 152 427 c 2
 152 413 l 1
 62 413 l 1
 61 419 61 428 61 438 c 0xbd20
 61 544 139 601 249 601 c 0
335 266 m 1
 216 266 134 249 134 158 c 0xbe20
 134 91 161 68 213 68 c 0
 271 68 335 116 335 213 c 2
 335 266 l 1
EndSplineSet
EndChar

StartChar: aringacute
Encoding: 507 507 139
Width: 508
VWidth: 1263
GlyphClass: 2
Flags: W
HStem: -14 82<152.926 277.795 430.76 493.522> 5 63<434.354 494> 266 83<190.343 335> 519 82<180.081 311.044> 630 48<209.104 299.383> 783 49<208.46 300.236>
VStem: 38 96<87.8452 219.98> 61 91<413 492.404> 148 49<690.309 771.184> 312 49<690.52 770.973> 335 92<127.361 266 349 494.795>
LayerCount: 2
Back
Fore
SplineSet
296 858 m 1x3c
 218 858 l 1
 303 986 l 1
 403 986 l 1
 296 858 l 1x3c
255 832 m 0
 316 832 361 787 361 731 c 0
 361 674 314 630 255 630 c 0
 197 630 148 673 148 731 c 0x3cc0
 148 788 196 832 255 832 c 0
255 783 m 0
 225 783 197 761 197 731 c 0
 197 701 225 678 255 678 c 0
 284 678 312 701 312 731 c 0
 312 761 284 783 255 783 c 0
249 601 m 0
 368 601 427 541 427 437 c 2
 427 107 l 2
 427 79 442 68 457 68 c 2xbd20
 494 68 l 1
 494 5 l 1x7d20
 484 -1 462 -9 433 -9 c 0
 385 -9 351 20 341 63 c 1
 311 15 254 -14 192 -14 c 0
 134 -14 38 11 38 152 c 0xbe20
 38 314 164 349 335 349 c 1
 335 424 l 2
 335 480 317 519 242 519 c 0
 173 519 152 471 152 427 c 2
 152 413 l 1
 62 413 l 1
 61 419 61 428 61 438 c 0xbd20
 61 544 139 601 249 601 c 0
335 266 m 1
 216 266 134 249 134 158 c 0xbe20
 134 91 161 68 213 68 c 0
 271 68 335 116 335 213 c 2
 335 266 l 1
EndSplineSet
EndChar

StartChar: atilde
Encoding: 227 227 140
Width: 508
VWidth: 1263
GlyphClass: 2
Flags: W
HStem: -14 82<152.926 277.795 430.76 493.522> 5 63<434.354 494> 266 83<190.343 335> 519 82<180.081 311.044> 691 82<248.974 348.72> 726 81<160.435 262.196>
VStem: 38 96<87.8452 219.98> 61 91<413 492.404> 91 66<691 723.536> 335 92<127.361 266 349 494.795> 352 66<776.985 807>
LayerCount: 2
Back
Fore
SplineSet
187 807 m 0x34a0
 234.328491139 807 268.564966002 773 314 773 c 0x38a0
 334 773 349 782 352 807 c 1
 418 807 l 1x34a0
 418 755 390 691 322 691 c 0x38a0
 274.996229716 691 240.859752954 726 195 726 c 0x34a0
 175 726 160 718 157 691 c 1
 91 691 l 1x38a0
 91 743 120 807 187 807 c 0x34a0
249 601 m 0
 368 601 427 541 427 437 c 2
 427 107 l 2
 427 79 442 68 457 68 c 2xb140
 494 68 l 1
 494 5 l 1x7140
 484 -1 462 -9 433 -9 c 0
 385 -9 351 20 341 63 c 1
 311 15 254 -14 192 -14 c 0
 134 -14 38 11 38 152 c 0xb240
 38 314 164 349 335 349 c 1
 335 424 l 2
 335 480 317 519 242 519 c 0
 173 519 152 471 152 427 c 2
 152 413 l 1
 62 413 l 1
 61 419 61 428 61 438 c 0xb140
 61 544 139 601 249 601 c 0
335 266 m 1
 216 266 134 249 134 158 c 0xb240
 134 91 161 68 213 68 c 0
 271 68 335 116 335 213 c 2
 335 266 l 1
EndSplineSet
EndChar

StartChar: ae
Encoding: 230 230 141
Width: 813
VWidth: 1263
GlyphClass: 2
Flags: W
HStem: -14 82<160.625 287.412 494.158 623.276> 266 83<196.668 342 438 659> 519 82<186.581 319.373 494.016 617.762>
VStem: 44 96<87.8452 219.98> 67 92<413 492.404> 342 96<136.084 266 349 451.257> 659 96<349 470.095> 666 89<116.251 200>
AnchorPoint: "Anchor-1" 0 0 basechar 0
AnchorPoint: "Anchor-0" 408 587 basechar 0
LayerCount: 2
Back
Fore
SplineSet
563 601 m 0xec
 691 601 755 522 755 325 c 2
 755 266 l 1
 438 266 l 1
 438 130 479 68 566 68 c 0
 624 68 666 119 666 200 c 1
 755 200 l 1
 755 69 678 -14 563 -14 c 0
 482 -14 422 14 385 76 c 1
 343 22 284 -14 216 -14 c 0
 143 -14 44 11 44 152 c 0xf5
 44 314 170 349 342 349 c 1
 342 424 l 2
 342 480 324 519 249 519 c 0
 180 519 159 471 159 427 c 2
 159 413 l 1
 68 413 l 1
 67 419 67 428 67 438 c 0
 67 544 145 601 255 601 c 0
 327 601 379 577 407 534 c 1
 444 579 495 601 563 601 c 0xec
563 519 m 0
 481 519 447 461 438 349 c 1
 659 349 l 1xe6
 659 460 626 519 563 519 c 0
342 266 m 1
 222 266 140 249 140 158 c 0xf4
 140 91 168 68 220 68 c 0
 278 68 342 113 342 205 c 2
 342 266 l 1
EndSplineSet
EndChar

StartChar: aeacute
Encoding: 509 509 142
Width: 813
VWidth: 1263
GlyphClass: 2
Flags: W
HStem: -14 82<160.625 287.412 494.158 623.276> 266 83<196.668 342 438 659> 519 82<186.581 319.373 494.016 617.762> 787 20G<424.027 537>
VStem: 44 96<87.8452 219.98> 67 92<413 492.404> 342 96<136.084 266 349 451.257> 659 96<349 470.095> 666 89<116.251 200>
LayerCount: 2
Back
Fore
SplineSet
418 659 m 1xf2
 341 659 l 1
 437 807 l 1
 537 807 l 1
 418 659 l 1xf2
563 601 m 0
 691 601 755 522 755 325 c 2
 755 266 l 1
 438 266 l 1
 438 130 479 68 566 68 c 0
 624 68 666 119 666 200 c 1
 755 200 l 1
 755 69 678 -14 563 -14 c 0
 482 -14 422 14 385 76 c 1
 343 22 284 -14 216 -14 c 0
 143 -14 44 11 44 152 c 0xfa80
 44 314 170 349 342 349 c 1
 342 424 l 2
 342 480 324 519 249 519 c 0
 180 519 159 471 159 427 c 2
 159 413 l 1
 68 413 l 1
 67 419 67 428 67 438 c 0xf6
 67 544 145 601 255 601 c 0
 327 601 379 577 407 534 c 1
 444 579 495 601 563 601 c 0
563 519 m 0
 481 519 447 461 438 349 c 1
 659 349 l 1xf3
 659 460 626 519 563 519 c 0
342 266 m 1
 222 266 140 249 140 158 c 0xfa
 140 91 168 68 220 68 c 0
 278 68 342 113 342 205 c 2
 342 266 l 1
EndSplineSet
EndChar

StartChar: b
Encoding: 98 98 143
Width: 508
VWidth: 1263
GlyphClass: 2
Flags: W
HStem: -14 82<208.468 323.013> 0 21G<67 141.294> 519 82<208.09 321.719> 787 20G<67 159>
VStem: 67 92<129.987 456.522 532 807> 67 69<0 26.4444> 369 96<127.295 458.428>
LayerCount: 2
Back
Fore
SplineSet
289 601 m 0x7a
 386 601 465 507 465 294 c 0
 465 79 394 -14 283 -14 c 0
 229 -14 182 14 154 68 c 1xba
 136 0 l 1
 67 0 l 1x76
 67 807 l 1
 159 807 l 1
 159 532 l 1
 179 575 232 601 289 601 c 0x7a
264 519 m 0
 193 519 159 449 159 311 c 2
 159 273 l 2
 159 138 193 68 264 68 c 0
 333 68 369 126 369 273 c 2
 369 314 l 2
 369 461 333 519 264 519 c 0
EndSplineSet
EndChar

StartChar: c
Encoding: 99 99 144
Width: 457
VWidth: 1263
GlyphClass: 2
Flags: W
HStem: -14 82<185.593 297.17> 519 82<185.748 296.212>
VStem: 40 96<129.987 457.013> 331 90<104.052 217 370 479.486>
AnchorPoint: "Anchor-1" 229 0 basechar 0
AnchorPoint: "Anchor-0" 229 587 basechar 0
LayerCount: 2
Back
Fore
SplineSet
241 601 m 0
 369 601 421 519 421 370 c 1
 326 370 l 1
 326 471 307 519 241 519 c 0
 168 519 136 449 136 314 c 2
 136 273 l 2
 136 138 168 68 241 68 c 0
 307 68 331 120 331 217 c 1
 421 217 l 1
 421 94 370 -14 241 -14 c 0
 102 -14 40 82 40 293 c 0
 40 505 103 601 241 601 c 0
EndSplineSet
EndChar

StartChar: cacute
Encoding: 263 263 145
Width: 457
VWidth: 1263
GlyphClass: 2
Flags: W
HStem: -14 82<185.593 297.17> 519 82<185.748 296.212> 787 20G<256.027 370>
VStem: 40 96<129.987 457.013> 331 90<104.052 217 370 479.486>
LayerCount: 2
Back
Fore
SplineSet
251 659 m 1
 173 659 l 1
 269 807 l 1
 370 807 l 1
 251 659 l 1
241 601 m 0
 369 601 421 519 421 370 c 1
 326 370 l 1
 326 471 307 519 241 519 c 0
 168 519 136 449 136 314 c 2
 136 273 l 2
 136 138 168 68 241 68 c 0
 307 68 331 120 331 217 c 1
 421 217 l 1
 421 94 370 -14 241 -14 c 0
 102 -14 40 82 40 293 c 0
 40 505 103 601 241 601 c 0
EndSplineSet
EndChar

StartChar: ccaron
Encoding: 269 269 146
Width: 457
VWidth: 1263
GlyphClass: 2
Flags: W
HStem: -14 82<185.593 297.17> 519 82<185.748 296.212> 787 20G<91 190.364 267.636 369>
VStem: 40 96<129.987 457.013> 331 90<104.052 217 370 479.486>
LayerCount: 2
Back
Fore
SplineSet
91 807 m 1
 179 807 l 1
 229 719 l 1
 279 807 l 1
 369 807 l 1
 273 657 l 1
 186 657 l 1
 91 807 l 1
241 601 m 0
 369 601 421 519 421 370 c 1
 326 370 l 1
 326 471 307 519 241 519 c 0
 168 519 136 449 136 314 c 2
 136 273 l 2
 136 138 168 68 241 68 c 0
 307 68 331 120 331 217 c 1
 421 217 l 1
 421 94 370 -14 241 -14 c 0
 102 -14 40 82 40 293 c 0
 40 505 103 601 241 601 c 0
EndSplineSet
EndChar

StartChar: ccedilla
Encoding: 231 231 147
Width: 457
VWidth: 1263
GlyphClass: 2
Flags: W
HStem: -203 63<125.272 247.601> -195 55<124 215.589> -14 82<246 294.354> 519 82<185.748 296.212>
VStem: 40 96<130.53 457.013> 249 84<-137.848 -87.8528> 331 90<106.253 217 370 479.486>
LayerCount: 2
Back
Fore
SplineSet
241 601 m 0xbc
 369 601 421 519 421 370 c 1
 326 370 l 1
 326 471 307 519 241 519 c 0
 168 519 136 449 136 314 c 2
 136 273 l 2
 136 138 168 68 241 68 c 0
 307 68 331 120 331 217 c 1
 421 217 l 1xba
 421 97 371 -10 246 -14 c 1
 246 -40 l 1
 294 -43 333 -61 333 -112 c 0
 333 -188 264 -203 217 -203 c 0xbc
 187 -203 151 -200 124 -195 c 1
 124 -140 l 1x7c
 208 -140 l 2
 233 -140 249 -133 249 -112 c 0
 249 -94 240 -86 211 -86 c 2
 174 -86 l 1
 187 -6 l 1
 86 17 40 112 40 293 c 0
 40 505 103 601 241 601 c 0xbc
EndSplineSet
EndChar

StartChar: ccircumflex
Encoding: 265 265 148
Width: 457
VWidth: 1263
GlyphClass: 2
Flags: W
HStem: -14 82<185.593 297.17> 519 82<185.748 296.212>
VStem: 40 96<129.987 457.013> 331 90<104.052 217 370 479.486>
LayerCount: 2
Back
Fore
SplineSet
230 744 m 1
 179 655 l 1
 91 655 l 1
 187 806 l 1
 274 806 l 1
 369 655 l 1
 279 655 l 1
 230 744 l 1
241 601 m 0
 369 601 421 519 421 370 c 1
 326 370 l 1
 326 471 307 519 241 519 c 0
 168 519 136 449 136 314 c 2
 136 273 l 2
 136 138 168 68 241 68 c 0
 307 68 331 120 331 217 c 1
 421 217 l 1
 421 94 370 -14 241 -14 c 0
 102 -14 40 82 40 293 c 0
 40 505 103 601 241 601 c 0
EndSplineSet
EndChar

StartChar: cdotaccent
Encoding: 267 267 149
Width: 457
VWidth: 1263
GlyphClass: 2
Flags: W
HStem: -14 82<185.593 297.17> 519 82<185.748 296.212> 701 106<181 278>
VStem: 40 96<129.987 457.013> 181 97<701 807> 331 90<104.052 217 370 479.486>
LayerCount: 2
Back
Fore
SplineSet
181 807 m 1
 278 807 l 1
 278 701 l 1
 181 701 l 1
 181 807 l 1
241 601 m 0
 369 601 421 519 421 370 c 1
 326 370 l 1
 326 471 307 519 241 519 c 0
 168 519 136 449 136 314 c 2
 136 273 l 2
 136 138 168 68 241 68 c 0
 307 68 331 120 331 217 c 1
 421 217 l 1
 421 94 370 -14 241 -14 c 0
 102 -14 40 82 40 293 c 0
 40 505 103 601 241 601 c 0
EndSplineSet
EndChar

StartChar: d
Encoding: 100 100 150
Width: 508
VWidth: 1263
GlyphClass: 2
Flags: W
HStem: -14 82<185.987 301.042> 0 21G<369.471 442> 519 82<187.281 301.69> 787 20G<345 442>
VStem: 44 96<127.295 458.428> 345 97<119.875 466.75 532 807> 373 69<0 39.6667>
LayerCount: 2
Back
Fore
SplineSet
226 -14 m 0xba
 115 -14 44 79 44 294 c 0
 44 507 123 601 220 601 c 0
 277 601 325 575 345 532 c 1
 345 807 l 1
 442 807 l 1xbc
 442 0 l 1
 373 0 l 1x7a
 361 68 l 1
 333 14 280 -14 226 -14 c 0xba
245 519 m 0
 176 519 140 461 140 314 c 2
 140 273 l 2
 140 126 176 68 245 68 c 0
 316 68 351 138 351 273 c 2
 351 311 l 2
 351 449 316 519 245 519 c 0
EndSplineSet
EndChar

StartChar: eth
Encoding: 240 240 151
Width: 508
VWidth: 1263
GlyphClass: 2
Flags: W
HStem: -15 82<194.656 314.64> 518 82<194.866 296.689> 669 67<104 181> 697 68<336.167 412> 787 20G<130 238.995>
VStem: 44 96<133.987 445.972> 369 96<133.987 448.778>
LayerCount: 2
Back
Fore
SplineSet
412 697 m 1xde
 332 697 l 1xde
 412 590 465 455 465 292 c 0
 465 81 391 -15 255 -15 c 0
 117 -15 44 81 44 292 c 0
 44 509 127 600 242 600 c 0
 262 600 280 594 298 586 c 1
 280 619 259 649 236 681 c 1
 104 669 l 1
 104 736 l 1
 183 736 l 1xee
 167 755 149 787 130 807 c 1
 231 807 l 1
 246.990553821 787.811335415 265.935080222 771.985814283 282 753 c 1
 412 765 l 1
 412 697 l 1xde
369 313 m 2
 369 448 330 518 255 518 c 0
 178 518 140 448 140 313 c 2
 140 272 l 2
 140 137 178 67 255 67 c 0
 331 67 369 137 369 272 c 2
 369 313 l 2
EndSplineSet
EndChar

StartChar: dcaron
Encoding: 271 271 152
Width: 563
VWidth: 1263
GlyphClass: 2
Flags: W
HStem: -14 82<185.987 301.042> 0 21G<369.471 442> 519 82<187.281 301.69> 745 20G<486 599> 787 20G<345 442>
VStem: 44 96<127.295 458.428> 345 97<119.875 466.75 532 807> 373 69<0 39.6667> 486 113<655 765>
LayerCount: 2
Back
Fore
SplineSet
226 -14 m 0xbd80
 115 -14 44 79 44 294 c 0
 44 507 123 601 220 601 c 0
 277 601 325 575 345 532 c 1
 345 807 l 1
 442 807 l 1xbe80
 442 0 l 1
 373 0 l 1x7d80
 361 68 l 1
 333 14 280 -14 226 -14 c 0xbd80
486 645 m 1
 486 765 l 1
 599 765 l 1
 599 655 l 1
 544 506 l 1
 486 506 l 1
 532 645 l 1
 486 645 l 1
245 519 m 0
 176 519 140 461 140 314 c 2
 140 273 l 2
 140 126 176 68 245 68 c 0
 316 68 351 138 351 273 c 2
 351 311 l 2
 351 449 316 519 245 519 c 0
EndSplineSet
EndChar

StartChar: dcroat
Encoding: 273 273 153
Width: 505
VWidth: 1263
GlyphClass: 2
Flags: W
HStem: -14 82<185.987 301.042> 0 21G<369.471 442> 519 82<187.281 301.69> 650 76<226 345 442 506> 787 20G<351 442>
VStem: 44 96<127.295 458.428> 351 91<129.987 456.522 532 650 726 807> 373 69<0 39.6667>
LayerCount: 2
Back
Fore
SplineSet
506 726 m 1xbe
 506 650 l 1
 442 650 l 1xbe
 442 0 l 1
 373 0 l 1x7d
 361 68 l 1
 333 14 280 -14 226 -14 c 0
 115 -14 44 79 44 294 c 0
 44 507 123 601 220 601 c 0
 277 601 325 575 345 532 c 1
 345 650 l 1
 226 650 l 1
 226 726 l 1
 351 726 l 1
 351 807 l 1
 442 807 l 1
 442 726 l 1
 506 726 l 1xbe
245 519 m 0
 176 519 140 461 140 314 c 2
 140 273 l 2
 140 126 176 68 245 68 c 0
 316 68 351 138 351 273 c 2
 351 311 l 2
 351 449 316 519 245 519 c 0
EndSplineSet
EndChar

StartChar: e
Encoding: 101 101 154
Width: 508
VWidth: 1263
GlyphClass: 2
Flags: W
HStem: -14 82<200.302 328.774> 266 83<144 365> 519 82<199.164 323.321>
VStem: 47 96<139.221 266 349 444.793> 365 96<106.425 200 349 470.095>
AnchorPoint: "Anchor-1" 255 0 basechar 0
AnchorPoint: "Anchor-0" 255 587 basechar 0
LayerCount: 2
Back
Fore
SplineSet
268 601 m 0
 397 601 461 522 461 325 c 2
 461 266 l 1
 143 266 l 1
 144 130 185 68 272 68 c 0
 330 68 370 119 370 200 c 1
 461 200 l 1
 461 69 383 -14 269 -14 c 0
 122 -14 47 76 47 293 c 0
 47 505 120 601 268 601 c 0
268 519 m 0
 187 519 152 461 144 349 c 1
 365 349 l 1
 365 460 332 519 268 519 c 0
EndSplineSet
EndChar

StartChar: eacute
Encoding: 233 233 155
Width: 508
VWidth: 1263
GlyphClass: 2
Flags: W
HStem: -14 82<200.302 328.774> 266 83<144 365> 519 82<199.164 323.321> 787 20G<284.027 398>
VStem: 47 96<139.221 266 349 444.793> 365 96<106.425 200 349 470.095>
LayerCount: 2
Back
Fore
SplineSet
279 659 m 1
 201 659 l 1
 297 807 l 1
 398 807 l 1
 279 659 l 1
268 601 m 0
 397 601 461 522 461 325 c 2
 461 266 l 1
 143 266 l 1
 144 130 185 68 272 68 c 0
 330 68 370 119 370 200 c 1
 461 200 l 1
 461 69 383 -14 269 -14 c 0
 122 -14 47 76 47 293 c 0
 47 505 120 601 268 601 c 0
268 519 m 0
 187 519 152 461 144 349 c 1
 365 349 l 1
 365 460 332 519 268 519 c 0
EndSplineSet
EndChar

StartChar: ebreve
Encoding: 277 277 156
Width: 508
VWidth: 1263
GlyphClass: 2
Flags: W
HStem: -14 82<200.302 328.774> 266 83<144 365> 519 82<199.164 323.321> 698 72<198.842 312.814> 787 20G<116 190 320.5 393>
VStem: 47 96<139.221 266 349 444.793> 116 72<782.829 807> 322 71<782.829 807> 365 96<106.425 200 349 470.095>
LayerCount: 2
Back
Fore
SplineSet
393 807 m 1xfb
 393 756 341 698 255 698 c 0
 169 698 116 756 116 807 c 1
 188 807 l 1
 192 792 216 770 255 770 c 0
 293 770 319 792 322 807 c 1
 393 807 l 1xfb
268 601 m 0
 397 601 461 522 461 325 c 2
 461 266 l 1
 143 266 l 1
 144 130 185 68 272 68 c 0
 330 68 370 119 370 200 c 1
 461 200 l 1
 461 69 383 -14 269 -14 c 0
 122 -14 47 76 47 293 c 0xfc80
 47 505 120 601 268 601 c 0
268 519 m 0
 187 519 152 461 144 349 c 1
 365 349 l 1
 365 460 332 519 268 519 c 0
EndSplineSet
EndChar

StartChar: ecaron
Encoding: 283 283 157
Width: 508
VWidth: 1263
GlyphClass: 2
Flags: W
HStem: -14 82<200.302 328.774> 266 83<144 365> 519 82<199.164 323.321> 787 20G<116 217.136 292.864 394>
VStem: 47 96<139.221 266 349 444.793> 365 96<106.425 200 349 470.095>
LayerCount: 2
Back
Fore
SplineSet
116 807 m 1
 206 807 l 1
 255 719 l 1
 304 807 l 1
 394 807 l 1
 298 657 l 1
 210 657 l 1
 116 807 l 1
268 601 m 0
 397 601 461 522 461 325 c 2
 461 266 l 1
 143 266 l 1
 144 130 185 68 272 68 c 0
 330 68 370 119 370 200 c 1
 461 200 l 1
 461 69 383 -14 269 -14 c 0
 122 -14 47 76 47 293 c 0
 47 505 120 601 268 601 c 0
268 519 m 0
 187 519 152 461 144 349 c 1
 365 349 l 1
 365 460 332 519 268 519 c 0
EndSplineSet
EndChar

StartChar: ecircumflex
Encoding: 234 234 158
Width: 508
VWidth: 1263
GlyphClass: 2
Flags: W
HStem: -14 82<200.302 328.774> 266 83<144 365> 519 82<199.164 323.321>
VStem: 47 96<139.221 266 349 444.793> 365 96<106.425 200 349 470.095>
LayerCount: 2
Back
Fore
SplineSet
255 744 m 1
 206 655 l 1
 116 655 l 1
 211 806 l 1
 299 806 l 1
 394 655 l 1
 304 655 l 1
 255 744 l 1
268 601 m 0
 397 601 461 522 461 325 c 2
 461 266 l 1
 143 266 l 1
 144 130 185 68 272 68 c 0
 330 68 370 119 370 200 c 1
 461 200 l 1
 461 69 383 -14 269 -14 c 0
 122 -14 47 76 47 293 c 0
 47 505 120 601 268 601 c 0
268 519 m 0
 187 519 152 461 144 349 c 1
 365 349 l 1
 365 460 332 519 268 519 c 0
EndSplineSet
EndChar

StartChar: edieresis
Encoding: 235 235 159
Width: 508
VWidth: 1263
GlyphClass: 2
Flags: W
HStem: -14 82<200.302 328.774> 266 83<144 365> 519 82<199.164 323.321> 701 106<121 218 289 388>
VStem: 47 96<139.221 266 349 444.793> 121 97<701 807> 289 99<701 807> 365 96<106.425 200 349 470.095>
LayerCount: 2
Back
Fore
SplineSet
121 701 m 1xf4
 121 807 l 1
 218 807 l 1
 218 701 l 1
 121 701 l 1xf4
289 701 m 1xf2
 289 807 l 1
 388 807 l 1
 388 701 l 1
 289 701 l 1xf2
268 601 m 0
 397 601 461 522 461 325 c 2
 461 266 l 1
 143 266 l 1
 144 130 185 68 272 68 c 0
 330 68 370 119 370 200 c 1
 461 200 l 1
 461 69 383 -14 269 -14 c 0
 122 -14 47 76 47 293 c 0xf9
 47 505 120 601 268 601 c 0
268 519 m 0
 187 519 152 461 144 349 c 1
 365 349 l 1
 365 460 332 519 268 519 c 0
EndSplineSet
EndChar

StartChar: edotaccent
Encoding: 279 279 160
Width: 508
VWidth: 1263
GlyphClass: 2
Flags: W
HStem: -14 82<200.302 328.774> 266 83<144 365> 519 82<199.164 323.321> 701 106<207 303>
VStem: 47 96<139.221 266 349 444.793> 207 96<701 807> 365 96<106.425 200 349 470.095>
LayerCount: 2
Back
Fore
SplineSet
207 807 m 1
 303 807 l 1
 303 701 l 1
 207 701 l 1
 207 807 l 1
268 601 m 0
 397 601 461 522 461 325 c 2
 461 266 l 1
 143 266 l 1
 144 130 185 68 272 68 c 0
 330 68 370 119 370 200 c 1
 461 200 l 1
 461 69 383 -14 269 -14 c 0
 122 -14 47 76 47 293 c 0
 47 505 120 601 268 601 c 0
268 519 m 0
 187 519 152 461 144 349 c 1
 365 349 l 1
 365 460 332 519 268 519 c 0
EndSplineSet
EndChar

StartChar: egrave
Encoding: 232 232 161
Width: 508
VWidth: 1263
GlyphClass: 2
Flags: W
HStem: -14 82<200.302 328.774> 266 83<144 365> 519 82<199.164 323.321>
VStem: 47 96<139.221 266 349 444.793> 365 96<106.425 200 349 470.095>
LayerCount: 2
Back
Fore
SplineSet
256 659 m 1
 134.032786885 805.360655738 l 1
 237 805.360655738 l 1
 333 659 l 1
 256 659 l 1
268 601 m 0
 397 601 461 522 461 325 c 2
 461 266 l 1
 143 266 l 1
 144 130 185 68 272 68 c 0
 330 68 370 119 370 200 c 1
 461 200 l 1
 461 69 383 -14 269 -14 c 0
 122 -14 47 76 47 293 c 0
 47 505 120 601 268 601 c 0
268 519 m 0
 187 519 152 461 144 349 c 1
 365 349 l 1
 365 460 332 519 268 519 c 0
EndSplineSet
EndChar

StartChar: emacron
Encoding: 275 275 162
Width: 508
VWidth: 1263
GlyphClass: 2
Flags: W
HStem: -14 82<200.302 328.774> 266 83<144 365> 519 82<199.164 323.321> 669 80<115 395>
VStem: 47 96<139.221 266 349 444.793> 365 96<106.425 200 349 470.095>
LayerCount: 2
Back
Fore
SplineSet
115 749 m 1
 395 749 l 1
 395 669 l 1
 115 669 l 1
 115 749 l 1
268 601 m 0
 397 601 461 522 461 325 c 2
 461 266 l 1
 143 266 l 1
 144 130 185 68 272 68 c 0
 330 68 370 119 370 200 c 1
 461 200 l 1
 461 69 383 -14 269 -14 c 0
 122 -14 47 76 47 293 c 0
 47 505 120 601 268 601 c 0
268 519 m 0
 187 519 152 461 144 349 c 1
 365 349 l 1
 365 460 332 519 268 519 c 0
EndSplineSet
EndChar

StartChar: eogonek
Encoding: 281 281 163
Width: 508
VWidth: 1263
GlyphClass: 2
Flags: W
HStem: -203 73<340.197 414.876> -188 58<348.077 416> -14 82<203.285 273> 266 83<145 366> 519 82<202.557 323.821>
VStem: 47 97<139.221 266 349 444.793> 242 88<-121.917 -27.0314> 366 95<105.799 200 349 470.095>
LayerCount: 2
Back
Fore
SplineSet
461 266 m 1xbf
 144 266 l 1
 145 130 186 68 273 68 c 0
 331 68 371 119 371 200 c 1
 462 200 l 1
 462 108 423 41 362 8 c 1
 348 -7 330 -37 330 -69 c 0
 330 -101 343 -130 380 -130 c 2xbf
 416 -130 l 1
 416 -188 l 1x7f
 392 -197 370 -203 347 -203 c 0
 299 -203 242 -179 242 -102 c 0
 242 -64 255 -37 273 -14 c 1
 126 -14 47 76 47 293 c 0
 47 505 120 601 268 601 c 0
 397 601 461 522 461 325 c 2
 461 266 l 1xbf
366 349 m 1
 366 460 333 519 269 519 c 0
 188 519 153 461 145 349 c 1
 366 349 l 1
EndSplineSet
EndChar

StartChar: f
Encoding: 102 102 164
Width: 255
VWidth: 1263
GlyphClass: 2
Flags: W
HStem: 0 21G<62 153> 505 82<10 62 153 255> 739 77<161.866 254.101> 739 64<179.268 255>
VStem: 62 91<0 505 587 730.359>
LayerCount: 2
Back
Fore
SplineSet
178 816 m 0xe8
 205 816 236 809 255 803 c 1
 255 739 l 1xd8
 206 739 l 2
 171 739 153 720 153 686 c 2
 153 587 l 1
 255 587 l 1
 255 505 l 1
 153 505 l 1
 153 0 l 1
 62 0 l 1
 62 505 l 1
 10 505 l 1
 10 587 l 1
 62 587 l 1
 62 681 l 2
 62 748 88 816 178 816 c 0xe8
EndSplineSet
EndChar

StartChar: g
Encoding: 103 103 165
Width: 508
VWidth: 1263
GlyphClass: 2
Flags: W
HStem: -203 79<125.207 383.463> 14 87<150.272 386.715> 206 76<184.761 308.985> 524 77<185.926 313.395>
VStem: 14 92<-107.79 -1.28041> 43 96<111.394 195.607> 57 92<319.55 485.668> 349 92<320.902 486.276> 405 93<-103.302 -2.15074> 407 79<624.381 682>
AnchorPoint: "Anchor-1" 0 0 basechar 0
AnchorPoint: "Anchor-0" 255 587 basechar 0
LayerCount: 2
Back
Fore
SplineSet
486 682 m 1xf240
 486 611 450 557 389 542 c 1
 421 508 441 461 441 403 c 0
 441 282 368 207 254 206 c 1
 192 206 l 2
 162 206 139 182 139 153 c 0xf5
 139 124 163 101 192 101 c 2
 360 101 l 2
 445 101 498 38 498 -37 c 0
 498 -130 438 -203 326 -203 c 2
 159 -203 l 2
 63 -203 14 -140 14 -63 c 0xf880
 14 -6 43 43 91 62 c 1
 61 81 43 115 43 149 c 0xf4
 43 197 76 233 125 251 c 1
 82 285 57 337 57 403 c 0
 57 526 130 601 249 601 c 0
 279 601 309 593 333 580 c 1
 386 608 401 645 407 682 c 1
 486 682 l 1xf240
248 524 m 0
 184 524 149 478 149 403 c 0xf3
 149 325 184 282 248 282 c 0
 314 282 349 328 349 403 c 0
 349 481 314 524 248 524 c 0
174 14 m 2
 127 14 106 -16 106 -54 c 0
 106 -92 129 -124 174 -124 c 2
 336 -124 l 2
 375 -124 405 -92 405 -54 c 0xf880
 405 -16 383 14 336 14 c 2
 174 14 l 2
EndSplineSet
EndChar

StartChar: gbreve
Encoding: 287 287 166
Width: 508
VWidth: 1263
GlyphClass: 2
Flags: W
HStem: -203 79<125.207 383.463> 14 87<150.272 386.715> 206 76<184.761 308.985> 524 77<185.926 313.395> 698 72<198.842 312.814> 787 20G<116 190 320.5 393>
VStem: 14 92<-107.79 -1.28041> 43 96<111.394 195.607> 57 92<319.55 485.668> 116 72<782.829 807> 322 71<782.829 807> 349 92<320.902 486.276> 405 93<-103.302 -2.15074> 407 79<624.381 682>
LayerCount: 2
Back
Fore
SplineSet
393 807 m 1xfc60
 393 756 341 698 255 698 c 0
 169 698 116 756 116 807 c 1
 188 807 l 1
 192 792 216 770 255 770 c 0
 293 770 319 792 322 807 c 1
 393 807 l 1xfc60
486 682 m 1xfc84
 486 611 450 557 389 542 c 1
 421 508 441 461 441 403 c 0
 441 282 368 207 254 206 c 1
 192 206 l 2
 162 206 139 182 139 153 c 0xfd10
 139 124 163 101 192 101 c 2
 360 101 l 2
 445 101 498 38 498 -37 c 0
 498 -130 438 -203 326 -203 c 2
 159 -203 l 2
 63 -203 14 -140 14 -63 c 0xfe08
 14 -6 43 43 91 62 c 1
 61 81 43 115 43 149 c 0xfd
 43 197 76 233 125 251 c 1
 82 285 57 337 57 403 c 0
 57 526 130 601 249 601 c 0
 279 601 309 593 333 580 c 1
 386 608 401 645 407 682 c 1
 486 682 l 1xfc84
248 524 m 0
 184 524 149 478 149 403 c 0xfc90
 149 325 184 282 248 282 c 0
 314 282 349 328 349 403 c 0
 349 481 314 524 248 524 c 0
174 14 m 2
 127 14 106 -16 106 -54 c 0
 106 -92 129 -124 174 -124 c 2
 336 -124 l 2
 375 -124 405 -92 405 -54 c 0xfe08
 405 -16 383 14 336 14 c 2
 174 14 l 2
EndSplineSet
EndChar

StartChar: gcircumflex
Encoding: 285 285 167
Width: 508
VWidth: 1263
GlyphClass: 2
Flags: W
HStem: -203 79<125.207 383.463> 14 87<150.272 386.715> 206 76<184.761 308.985> 524 77<185.926 313.395>
VStem: 14 92<-107.79 -1.28041> 43 96<111.394 195.607> 57 92<319.55 485.668> 349 92<320.902 486.276> 405 93<-103.302 -2.15074> 412 74<618.778 682>
LayerCount: 2
Back
Fore
SplineSet
255 744 m 1xf0
 206 655 l 1
 116 655 l 1
 211 806 l 1
 299 806 l 1
 394 655 l 1
 304 655 l 1
 255 744 l 1xf0
486 682 m 1xf240
 486 611 450 557 389 542 c 1
 421 508 441 461 441 403 c 0
 441 282 368 207 254 206 c 1
 192 206 l 2
 162 206 139 182 139 153 c 0xf5
 139 124 163 101 192 101 c 2
 360 101 l 2
 445 101 498 38 498 -37 c 0
 498 -130 438 -203 326 -203 c 2
 159 -203 l 2
 63 -203 14 -140 14 -63 c 0xf880
 14 -6 43 43 91 62 c 1
 61 81 43 115 43 149 c 0xf4
 43 197 76 233 125 251 c 1
 82 285 57 337 57 403 c 0
 57 526 130 601 249 601 c 0
 279 601 309 593 333 580 c 1
 390 608 409 629 412 682 c 1
 486 682 l 1xf240
248 524 m 0
 184 524 149 478 149 403 c 0xf3
 149 325 184 282 248 282 c 0
 314 282 349 328 349 403 c 0
 349 481 314 524 248 524 c 0
174 14 m 2
 127 14 106 -16 106 -54 c 0
 106 -92 129 -124 174 -124 c 2
 336 -124 l 2
 375 -124 405 -92 405 -54 c 0xf880
 405 -16 383 14 336 14 c 2
 174 14 l 2
EndSplineSet
EndChar

StartChar: gcommaaccent
Encoding: 291 291 168
Width: 508
VWidth: 1263
GlyphClass: 2
Flags: W
HStem: -203 79<125.207 383.463> 14 87<150.272 386.715> 206 76<184.761 308.985> 524 77<185.926 313.395>
VStem: 14 92<-107.79 -1.28041> 43 96<111.394 195.607> 57 92<319.55 485.668> 189 96<664 758> 349 92<320.902 486.276> 405 93<-103.302 -2.15074> 407 79<624.381 682>
LayerCount: 2
Back
Fore
SplineSet
285 765 m 1xf1
 285 664 l 1
 189 664 l 1
 189 758 l 1
 224 845 l 1
 273 845 l 1
 248 765 l 1
 285 765 l 1xf1
486 682 m 1xf320
 486 611 450 557 389 542 c 1
 421 508 441 461 441 403 c 0
 441 282 368 207 254 206 c 1
 192 206 l 2
 162 206 139 182 139 153 c 0xf580
 139 124 163 101 192 101 c 2
 360 101 l 2
 445 101 498 38 498 -37 c 0
 498 -130 438 -203 326 -203 c 2
 159 -203 l 2
 63 -203 14 -140 14 -63 c 0xf940
 14 -6 43 43 91 62 c 1
 61 81 43 115 43 149 c 0xf5
 43 197 76 233 125 251 c 1
 82 285 57 337 57 403 c 0
 57 526 130 601 249 601 c 0
 279 601 309 593 333 580 c 1
 386 608 401 645 407 682 c 1
 486 682 l 1xf320
248 524 m 0
 184 524 149 478 149 403 c 0xf380
 149 325 184 282 248 282 c 0
 314 282 349 328 349 403 c 0
 349 481 314 524 248 524 c 0
174 14 m 2
 127 14 106 -16 106 -54 c 0
 106 -92 129 -124 174 -124 c 2
 336 -124 l 2
 375 -124 405 -92 405 -54 c 0xf940
 405 -16 383 14 336 14 c 2
 174 14 l 2
EndSplineSet
EndChar

StartChar: gdotaccent
Encoding: 289 289 169
Width: 508
VWidth: 1263
GlyphClass: 2
Flags: W
HStem: -203 79<125.207 383.463> 14 87<150.272 386.715> 206 76<184.761 308.985> 524 77<185.926 313.395> 701 106<207 303>
VStem: 14 92<-107.79 -1.28041> 43 96<111.394 195.607> 57 92<319.55 485.668> 207 96<701 807> 349 92<320.902 486.276> 405 93<-103.302 -2.15074> 407 79<624.381 682>
LayerCount: 2
Back
Fore
SplineSet
207 807 m 1xf880
 303 807 l 1
 303 701 l 1
 207 701 l 1
 207 807 l 1xf880
486 682 m 1xf990
 486 611 450 557 389 542 c 1
 421 508 441 461 441 403 c 0
 441 282 368 207 254 206 c 1
 192 206 l 2
 162 206 139 182 139 153 c 0xfac0
 139 124 163 101 192 101 c 2
 360 101 l 2
 445 101 498 38 498 -37 c 0
 498 -130 438 -203 326 -203 c 2
 159 -203 l 2
 63 -203 14 -140 14 -63 c 0xfca0
 14 -6 43 43 91 62 c 1
 61 81 43 115 43 149 c 0xfa80
 43 197 76 233 125 251 c 1
 82 285 57 337 57 403 c 0
 57 526 130 601 249 601 c 0
 279 601 309 593 333 580 c 1
 386 608 401 645 407 682 c 1
 486 682 l 1xf990
248 524 m 0
 184 524 149 478 149 403 c 0xf9c0
 149 325 184 282 248 282 c 0
 314 282 349 328 349 403 c 0
 349 481 314 524 248 524 c 0
174 14 m 2
 127 14 106 -16 106 -54 c 0
 106 -92 129 -124 174 -124 c 2
 336 -124 l 2
 375 -124 405 -92 405 -54 c 0xfca0
 405 -16 383 14 336 14 c 2
 174 14 l 2
EndSplineSet
EndChar

StartChar: h
Encoding: 104 104 170
Width: 508
VWidth: 1263
GlyphClass: 2
Flags: W
HStem: 0 21G<67 159 351 442> 519 82<211.72 328.186> 787 20G<67 159>
VStem: 67 92<0 457.12 525 807> 351 91<0 496.897>
AnchorPoint: "Anchor-1" 0 0 basechar 0
AnchorPoint: "Anchor-0" 255 587 basechar 0
LayerCount: 2
Back
Fore
SplineSet
297 601 m 0
 385 601 442 553 442 423 c 2
 442 0 l 1
 351 0 l 1
 351 417 l 2
 351 498 317 519 268 519 c 0
 210 519 159 460 159 359 c 2
 159 0 l 1
 67 0 l 1
 67 807 l 1
 159 807 l 1
 159 525 l 1
 189 578 239 601 297 601 c 0
EndSplineSet
EndChar

StartChar: hbar
Encoding: 295 295 171
Width: 508
VWidth: 1263
GlyphClass: 2
Flags: W
HStem: 0 21G<67 159 351 442> 519 82<211.72 328.186> 650 76<0 67 159 279> 787 20G<67 159>
VStem: 67 92<0 457.12 525 650 726 807> 351 91<0 496.897>
LayerCount: 2
Back
Fore
SplineSet
279 726 m 1
 279 650 l 1
 159 650 l 1
 159 525 l 1
 189 578 239 601 297 601 c 0
 385 601 442 553 442 423 c 2
 442 0 l 1
 351 0 l 1
 351 417 l 2
 351 498 317 519 268 519 c 0
 210 519 159 460 159 359 c 2
 159 0 l 1
 67 0 l 1
 67 650 l 1
 0 650 l 1
 0 726 l 1
 67 726 l 1
 67 807 l 1
 159 807 l 1
 159 726 l 1
 279 726 l 1
EndSplineSet
EndChar

StartChar: hcircumflex
Encoding: 293 293 172
Width: 508
VWidth: 1263
GlyphClass: 2
Flags: W
HStem: 0 21G<67 159 351 442> 519 82<211.72 328.186> 787 20G<67 159>
VStem: 67 92<0 457.12 525 807> 351 91<0 496.897>
LayerCount: 2
Back
Fore
SplineSet
116 922 m 1
 66 834 l 1
 -24 834 l 1
 72 985 l 1
 159 985 l 1
 255 834 l 1
 165 834 l 1
 116 922 l 1
297 601 m 0
 385 601 442 553 442 423 c 2
 442 0 l 1
 351 0 l 1
 351 417 l 2
 351 498 317 519 268 519 c 0
 210 519 159 460 159 359 c 2
 159 0 l 1
 67 0 l 1
 67 807 l 1
 159 807 l 1
 159 525 l 1
 189 578 239 601 297 601 c 0
EndSplineSet
EndChar

StartChar: i
Encoding: 105 105 173
Width: 203
VWidth: 1263
GlyphClass: 2
Flags: W
HStem: 0 21G<56 148> 567 20G<56 148> 697 110<56 148>
VStem: 56 92<0 587 697 807>
LayerCount: 2
Back
Fore
SplineSet
56 807 m 1
 148 807 l 1
 148 697 l 1
 56 697 l 1
 56 807 l 1
56 587 m 1
 148 587 l 1
 148 0 l 1
 56 0 l 1
 56 587 l 1
EndSplineSet
EndChar

StartChar: dotlessi
Encoding: 305 305 174
Width: 255
VWidth: 1263
GlyphClass: 2
Flags: W
HStem: 0 21G<82 173> 567 20G<82 173>
VStem: 82 91<0 587>
AnchorPoint: "Anchor-1" 0 0 basechar 0
AnchorPoint: "Anchor-0" 128 587 basechar 0
LayerCount: 2
Back
Fore
SplineSet
82 587 m 1
 173 587 l 1
 173 0 l 1
 82 0 l 1
 82 587 l 1
EndSplineSet
EndChar

StartChar: iacute
Encoding: 237 237 175
Width: 255
VWidth: 1263
GlyphClass: 2
Flags: W
HStem: 0 21G<82 173> 567 20G<82 173> 787 20G<145.027 256>
VStem: 82 91<0 587>
LayerCount: 2
Back
Fore
SplineSet
139 659 m 1
 62 659 l 1
 158 807 l 1
 256 807 l 1
 139 659 l 1
82 0 m 1
 82 587 l 1
 173 587 l 1
 173 0 l 1
 82 0 l 1
EndSplineSet
EndChar

StartChar: ibreve
Encoding: 301 301 176
Width: 255
VWidth: 1263
GlyphClass: 2
Flags: W
HStem: 0 21G<82 173> 567 20G<82 173> 698 72<72.4119 185.736> 787 20G<-11 63.5 193.5 265>
VStem: -11 73<782.829 807> 82 91<0 587> 195 70<782.829 807>
LayerCount: 2
Back
Fore
SplineSet
265 807 m 1
 265 756 214 698 128 698 c 0
 43 698 -11 756 -11 807 c 1
 62 807 l 1
 65 792 91 770 128 770 c 0
 166 770 192 792 195 807 c 1
 265 807 l 1
82 587 m 1
 173 587 l 1
 173 0 l 1
 82 0 l 1
 82 587 l 1
EndSplineSet
EndChar

StartChar: icircumflex
Encoding: 238 238 177
Width: 255
VWidth: 1263
GlyphClass: 2
Flags: W
HStem: 0 21G<82 173> 567 20G<82 173>
VStem: 82 91<0 587>
LayerCount: 2
Back
Fore
SplineSet
129 744 m 1
 78 655 l 1
 -13 655 l 1
 85 806 l 1
 172 806 l 1
 266 655 l 1
 178 655 l 1
 129 744 l 1
82 587 m 1
 173 587 l 1
 173 0 l 1
 82 0 l 1
 82 587 l 1
EndSplineSet
EndChar

StartChar: idieresis
Encoding: 239 239 178
Width: 255
VWidth: 1263
GlyphClass: 2
Flags: W
HStem: 0 21G<82 173> 567 20G<82 173> 701 106<-5 92 163 260>
VStem: -5 97<701 807> 82 91<0 587> 163 97<701 807>
LayerCount: 2
Back
Fore
SplineSet
-5 701 m 1xf0
 -5 807 l 1
 92 807 l 1
 92 701 l 1
 -5 701 l 1xf0
163 701 m 1xe4
 163 807 l 1
 260 807 l 1
 260 701 l 1
 163 701 l 1xe4
82 0 m 1xe8
 82 587 l 1
 173 587 l 1
 173 0 l 1
 82 0 l 1xe8
EndSplineSet
EndChar

StartChar: igrave
Encoding: 236 236 179
Width: 255
VWidth: 1263
GlyphClass: 2
Flags: W
HStem: 0 21G<82 173> 567 20G<82 173>
VStem: 82 91<0 587>
LayerCount: 2
Back
Fore
SplineSet
117 659 m 1
 -5.97009356361 805.344574158 l 1
 99 805.344574158 l 1
 195 659 l 1
 117 659 l 1
82 0 m 1
 82 587 l 1
 173 587 l 1
 173 0 l 1
 82 0 l 1
EndSplineSet
EndChar

StartChar: ij
Encoding: 307 307 180
Width: 406
VWidth: 1263
GlyphClass: 2
Flags: W
HStem: -203 77<158.899 250.805> -189 63<158 233.686> 0 21G<56 148> 567 20G<56 148 259 351> 697 110<56 148 259 351>
VStem: 56 92<0 587 697 807> 259 92<-117.359 587 697 807>
LayerCount: 2
Back
Fore
SplineSet
56 697 m 1x3e
 56 807 l 1
 148 807 l 1
 148 697 l 1
 56 697 l 1x3e
259 697 m 1
 259 807 l 1
 351 807 l 1
 351 697 l 1
 259 697 l 1
56 0 m 1
 56 587 l 1
 148 587 l 1
 148 0 l 1
 56 0 l 1
351 -68 m 2
 351 -135 323 -203 235 -203 c 0xbe
 207 -203 177 -197 158 -189 c 1
 158 -126 l 1x7e
 207 -126 l 2xbe
 241 -126 259 -107 259 -72 c 2
 259 587 l 1
 351 587 l 1
 351 -68 l 2
EndSplineSet
EndChar

StartChar: imacron
Encoding: 299 299 181
Width: 255
VWidth: 1263
GlyphClass: 2
Flags: W
HStem: 0 21G<82 173> 567 20G<82 173> 669 80<-13 268>
VStem: 82 91<0 587>
LayerCount: 2
Back
Fore
SplineSet
-13 749 m 1
 268 749 l 1
 268 669 l 1
 -13 669 l 1
 -13 749 l 1
82 587 m 1
 173 587 l 1
 173 0 l 1
 82 0 l 1
 82 587 l 1
EndSplineSet
EndChar

StartChar: iogonek
Encoding: 303 303 182
Width: 203
VWidth: 1263
GlyphClass: 2
Flags: W
HStem: -203 73<129.911 205.876> -188 58<139.986 207> 567 20G<56 148> 701 106<53 152>
VStem: 34 86<-120.321 -25.0911> 56 92<0 587 701 807>
LayerCount: 2
Back
Fore
SplineSet
53 701 m 1x30
 53 807 l 1
 152 807 l 1
 152 701 l 1
 53 701 l 1x30
120 -69 m 0xb8
 120 -101 134 -130 171 -130 c 2xb8
 207 -130 l 1
 207 -188 l 1x78
 183 -197 160 -203 139 -203 c 0
 91 -203 34 -179 34 -102 c 0xb8
 34 -55 52 -25 75 0 c 1
 56 0 l 1
 56 587 l 1
 148 587 l 1
 148 0 l 1xb4
 135 -16 120 -42 120 -69 c 0xb8
EndSplineSet
EndChar

StartChar: itilde
Encoding: 297 297 183
Width: 255
VWidth: 1263
GlyphClass: 2
Flags: W
HStem: 0 21G<82 173> 567 20G<82 173> 691 82<121.484 222.282> 726 81<32.6748 135.16>
VStem: -35 64<691 723.536> 82 91<0 587> 226 64<776.985 807>
CounterMasks: 1 0e
LayerCount: 2
Back
Fore
SplineSet
59 807 m 0xde
 104.8648212 807 142.508183802 773 188 773 c 0xee
 207 773 222 782 226 807 c 1
 290 807 l 1xde
 290 755 263 691 196 691 c 0xee
 149.748789718 691 112.038712883 726 67 726 c 0xde
 47 726 33 718 29 691 c 1
 -35 691 l 1xee
 -35 743 -8 807 59 807 c 0xde
82 587 m 1
 173 587 l 1
 173 0 l 1
 82 0 l 1
 82 587 l 1
EndSplineSet
EndChar

StartChar: j
Encoding: 106 106 184
Width: 203
VWidth: 1263
GlyphClass: 2
Flags: W
HStem: -203 77<-44.1006 47.8047> -189 63<-45 30.7315> 567 20G<56 148> 697 110<56 148>
VStem: 56 92<-117.359 587 697 807>
LayerCount: 2
Back
Fore
SplineSet
56 807 m 1x38
 148 807 l 1
 148 697 l 1
 56 697 l 1
 56 807 l 1x38
148 -68 m 2
 148 -135 120 -203 32 -203 c 0xb8
 5 -203 -26 -197 -45 -189 c 1
 -45 -126 l 1x78
 4 -126 l 2xb8
 38 -126 56 -107 56 -72 c 2
 56 587 l 1
 148 587 l 1
 148 -68 l 2
EndSplineSet
EndChar

StartChar: jcircumflex
Encoding: 309 309 185
Width: 203
VWidth: 1263
GlyphClass: 2
Flags: W
HStem: -203 77<-44.1006 47.8047> -189 63<-45 30.7315> 567 20G<56 148>
VStem: 56 92<-117.359 587>
LayerCount: 2
Back
Fore
SplineSet
102 744 m 1x30
 52 655 l 1
 -38 655 l 1
 58 806 l 1
 145 806 l 1
 241 655 l 1
 152 655 l 1
 102 744 l 1x30
148 -68 m 2
 148 -135 120 -203 32 -203 c 0xb0
 5 -203 -26 -197 -45 -189 c 1
 -45 -126 l 1x70
 4 -126 l 2xb0
 38 -126 56 -107 56 -72 c 2
 56 587 l 1
 148 587 l 1
 148 -68 l 2
EndSplineSet
EndChar

StartChar: k
Encoding: 107 107 186
Width: 457
VWidth: 1263
GlyphClass: 2
Flags: W
HStem: 0 21G<67 159 345 458> 567 20G<335.081 450> 787 20G<67 159>
VStem: 67 92<0 200 314 807>
AnchorPoint: "Anchor-1" 229 0 basechar 0
AnchorPoint: "Anchor-0" 0 0 basechar 0
LayerCount: 2
Back
Fore
SplineSet
159 0 m 1
 67 0 l 1
 67 807 l 1
 159 807 l 1
 159 314 l 1
 349 587 l 1
 450 587 l 1
 277 346 l 1
 458 0 l 1
 355 0 l 1
 221 268 l 1
 159 200 l 1
 159 0 l 1
EndSplineSet
EndChar

StartChar: kcommaaccent
Encoding: 311 311 187
Width: 457
VWidth: 1263
GlyphClass: 2
Flags: W
HStem: 0 21G<67 159 345 458> 567 20G<335.081 450> 787 20G<67 159>
VStem: 67 92<0 200 314 807> 182 95<-160 -67>
LayerCount: 2
Back
Fore
SplineSet
159 0 m 1
 67 0 l 1
 67 807 l 1
 159 807 l 1
 159 314 l 1
 349 587 l 1
 450 587 l 1
 277 346 l 1
 458 0 l 1
 355 0 l 1
 221 268 l 1
 159 200 l 1
 159 0 l 1
182 -168 m 1
 182 -67 l 1
 277 -67 l 1
 277 -160 l 1
 245 -248 l 1
 195 -248 l 1
 220 -168 l 1
 182 -168 l 1
EndSplineSet
EndChar

StartChar: kgreenlandic
Encoding: 312 312 188
Width: 455
VWidth: 1263
GlyphClass: 2
Flags: W
HStem: 0 21G<67 159 345 458> 567 20G<67 159 335.081 450>
VStem: 67 92<0 200 314 587>
LayerCount: 2
Back
Fore
SplineSet
159 0 m 1
 67 0 l 1
 67 587 l 1
 159 587 l 1
 159 314 l 1
 349 587 l 1
 450 587 l 1
 277 346 l 1
 458 0 l 1
 355 0 l 1
 221 268 l 1
 159 200 l 1
 159 0 l 1
EndSplineSet
EndChar

StartChar: l
Encoding: 108 108 189
Width: 203
VWidth: 1263
GlyphClass: 2
Flags: W
HStem: 0 21G<56 148> 787 20G<56 148>
VStem: 56 92<0 807>
AnchorPoint: "Anchor-1" 101 0 basechar 0
AnchorPoint: "Anchor-0" 101 587 basechar 0
LayerCount: 2
Back
Fore
SplineSet
56 807 m 1
 148 807 l 1
 148 0 l 1
 56 0 l 1
 56 807 l 1
EndSplineSet
EndChar

StartChar: lacute
Encoding: 314 314 190
Width: 203
VWidth: 1263
GlyphClass: 2
Flags: W
HStem: 0 21G<56 148> 787 20G<56 148>
VStem: 56 92<0 807>
LayerCount: 2
Back
Fore
SplineSet
112 839 m 1
 35 839 l 1
 131 986 l 1
 232 986 l 1
 112 839 l 1
56 0 m 1
 56 807 l 1
 148 807 l 1
 148 0 l 1
 56 0 l 1
EndSplineSet
EndChar

StartChar: lcaron
Encoding: 318 318 191
Width: 266
VWidth: 1263
GlyphClass: 2
Flags: W
HStem: 0 21G<56 148> 745 20G<192 303> 787 20G<56 148>
VStem: 56 92<0 807> 192 111<655 765>
LayerCount: 2
Back
Fore
SplineSet
56 807 m 1
 148 807 l 1
 148 0 l 1
 56 0 l 1
 56 807 l 1
192 645 m 1
 192 765 l 1
 303 765 l 1
 303 655 l 1
 250 506 l 1
 192 506 l 1
 236 645 l 1
 192 645 l 1
EndSplineSet
EndChar

StartChar: lcommaaccent
Encoding: 316 316 192
Width: 203
VWidth: 1263
GlyphClass: 2
Flags: W
HStem: 0 21G<56 148> 787 20G<56 148>
VStem: 56 92<-160 -67 0 807>
LayerCount: 2
Back
Fore
SplineSet
56 807 m 1
 148 807 l 1
 148 0 l 1
 56 0 l 1
 56 807 l 1
54 -168 m 1
 54 -67 l 1
 149 -67 l 1
 149 -160 l 1
 117 -248 l 1
 68 -248 l 1
 92 -168 l 1
 54 -168 l 1
EndSplineSet
EndChar

StartChar: ldot
Encoding: 320 320 193
Width: 361
VWidth: 1263
GlyphClass: 2
Flags: W
HStem: 0 21G<56 148> 322 124<192 304> 787 20G<56 148>
VStem: 56 92<0 807> 192 112<322 446>
LayerCount: 2
Back
Fore
SplineSet
56 807 m 1
 148 807 l 1
 148 0 l 1
 56 0 l 1
 56 807 l 1
192 446 m 1
 304 446 l 1
 304 322 l 1
 192 322 l 1
 192 446 l 1
EndSplineSet
Ligature2: "Ligature Substitution lookup 39 subtable" l periodcentered
EndChar

StartChar: lslash
Encoding: 322 322 194
Width: 203
VWidth: 1263
GlyphClass: 2
Flags: W
HStem: 0 21G<56 148> 787 20G<56 148>
VStem: 56 92<0 274 355 356 437 807>
LayerCount: 2
Back
Fore
SplineSet
148 0 m 1
 56 0 l 1
 56 274 l 1
 -24 206 l 1
 -24 284 l 1
 56 355 l 1
 56 807 l 1
 148 807 l 1
 148 437 l 1
 245 523 l 1
 245 442 l 1
 148 356 l 1
 148 0 l 1
EndSplineSet
EndChar

StartChar: m
Encoding: 109 109 195
Width: 762
VWidth: 1263
GlyphClass: 2
Flags: W
HStem: 0 21G<67 159 336 428 604 696> 519 82<208.089 314.692 476.596 582.864> 567 20G<67 139.824>
VStem: 67 92<0 460.159> 67 69<550.385 587> 336 92<0 461.951> 604 92<0 496.897>
LayerCount: 2
Back
Fore
SplineSet
557 601 m 0xce
 640 601 696 553 696 423 c 2
 696 0 l 1
 604 0 l 1
 604 417 l 2
 604 498 572 519 528 519 c 0
 474 519 428 460 428 359 c 2
 428 0 l 1
 336 0 l 1
 336 417 l 2
 336 498 303 519 260 519 c 0
 206 519 159 460 159 359 c 2
 159 0 l 1
 67 0 l 1xd6
 67 587 l 1
 136 587 l 1xae
 149 519 l 1
 181 577 233 601 289 601 c 0
 347 601 393 576 414 515 c 1
 446 572 501 601 557 601 c 0xce
EndSplineSet
EndChar

StartChar: n
Encoding: 110 110 196
Width: 508
VWidth: 1263
GlyphClass: 2
Flags: W
HStem: 0 21G<67 159 351 442> 519 82<211.844 328.186> 567 20G<67 139.824>
VStem: 67 92<0 457.12> 67 69<550.385 587> 351 91<0 496.897>
AnchorPoint: "Anchor-1" 255 0 basechar 0
AnchorPoint: "Anchor-0" 255 587 basechar 0
LayerCount: 2
Back
Fore
SplineSet
297 601 m 0xcc
 385 601 442 553 442 423 c 2
 442 0 l 1
 351 0 l 1
 351 417 l 2
 351 498 317 519 268 519 c 0
 210 519 159 460 159 359 c 2
 159 0 l 1
 67 0 l 1xd4
 67 587 l 1
 136 587 l 1xac
 149 519 l 1
 182 577 239 601 297 601 c 0xcc
EndSplineSet
Substitution2: "'sups' Superscript lookup 11 subtable" nsuperior
Substitution2: "'aalt' Access All Alternates lookup 0 subtable" nsuperior
EndChar

StartChar: nacute
Encoding: 324 324 197
Width: 508
VWidth: 1263
GlyphClass: 2
Flags: W
HStem: 0 21G<67 159 351 442> 519 82<211.844 328.186> 567 20G<67 139.824> 787 20G<271.027 384>
VStem: 67 92<0 457.12> 67 69<550.385 587> 351 91<0 496.897>
LayerCount: 2
Back
Fore
SplineSet
265 659 m 1x92
 188 659 l 1
 284 807 l 1
 384 807 l 1
 265 659 l 1x92
297 601 m 0xd6
 385 601 442 553 442 423 c 2
 442 0 l 1
 351 0 l 1
 351 417 l 2
 351 498 317 519 268 519 c 0
 210 519 159 460 159 359 c 2
 159 0 l 1
 67 0 l 1xda
 67 587 l 1
 136 587 l 1xb6
 149 519 l 1
 182 577 239 601 297 601 c 0xd6
EndSplineSet
EndChar

StartChar: napostrophe
Encoding: 329 329 198
Width: 640
VWidth: 1263
GlyphClass: 2
Flags: W
HStem: 0 21G<197 289 481 572> 519 82<342.304 456.655> 567 20G<197 269.824> 745 20G<53 149>
VStem: 53 96<671 765> 197 92<0 457.12> 197 69<550.385 587> 481 91<0 496.897>
LayerCount: 2
Back
Fore
SplineSet
53 663 m 1x99
 53 765 l 1
 149 765 l 1
 149 671 l 1
 116 584 l 1
 66 584 l 1
 91 663 l 1
 53 663 l 1x99
428 601 m 0xdb
 515 601 572 553 572 423 c 2
 572 0 l 1
 481 0 l 1
 481 417 l 2
 481 498 447 519 398 519 c 0
 341 519 289 460 289 359 c 2
 289 0 l 1
 197 0 l 1xdd
 197 587 l 1
 266 587 l 1xbb
 279 519 l 1
 312 577 370 601 428 601 c 0xdb
EndSplineSet
EndChar

StartChar: ncaron
Encoding: 328 328 199
Width: 508
VWidth: 1263
GlyphClass: 2
Flags: W
HStem: 0 21G<67 159 351 442> 519 82<211.844 328.186> 567 20G<67 139.824> 787 20G<116 217.136 292.864 394>
VStem: 67 92<0 457.12> 67 69<550.385 587> 351 91<0 496.897>
LayerCount: 2
Back
Fore
SplineSet
116 807 m 1x92
 206 807 l 1
 255 719 l 1
 304 807 l 1
 394 807 l 1
 298 657 l 1
 210 657 l 1
 116 807 l 1x92
297 601 m 0xd6
 385 601 442 553 442 423 c 2
 442 0 l 1
 351 0 l 1
 351 417 l 2
 351 498 317 519 268 519 c 0
 210 519 159 460 159 359 c 2
 159 0 l 1
 67 0 l 1xda
 67 587 l 1
 136 587 l 1xb6
 149 519 l 1
 182 577 239 601 297 601 c 0xd6
EndSplineSet
EndChar

StartChar: ncommaaccent
Encoding: 326 326 200
Width: 508
VWidth: 1263
GlyphClass: 2
Flags: W
HStem: 0 21G<67 159 351 442> 519 82<211.844 328.186> 567 20G<67 139.824>
VStem: 67 92<0 457.12> 67 69<550.385 587> 207 96<-160 -67> 351 91<0 496.897>
LayerCount: 2
Back
Fore
SplineSet
297 601 m 0xce
 385 601 442 553 442 423 c 2
 442 0 l 1
 351 0 l 1
 351 417 l 2
 351 498 317 519 268 519 c 0
 210 519 159 460 159 359 c 2
 159 0 l 1
 67 0 l 1xd6
 67 587 l 1
 136 587 l 1xae
 149 519 l 1
 182 577 239 601 297 601 c 0xce
207 -168 m 1
 207 -67 l 1
 303 -67 l 1
 303 -160 l 1
 270 -248 l 1
 220 -248 l 1
 245 -168 l 1
 207 -168 l 1
EndSplineSet
EndChar

StartChar: eng
Encoding: 331 331 201
Width: 508
VWidth: 1263
GlyphClass: 2
Flags: W
HStem: -203 77<249.899 342.134> -189 63<249 324.732> 0 21G<67 159> 519 82<211.844 328.186> 567 20G<67 139.824>
VStem: 67 92<0 457.12> 67 69<550.385 587> 351 91<-117.359 496.897>
LayerCount: 2
Back
Fore
SplineSet
297 601 m 0x33
 385 601 442 553 442 423 c 2
 442 -68 l 2
 442 -135 416 -203 326 -203 c 0xb3
 299 -203 268 -197 249 -189 c 1
 249 -126 l 1x63
 298 -126 l 2
 332 -126 351 -107 351 -72 c 2
 351 417 l 2
 351 498 317 519 268 519 c 0
 210 519 159 460 159 359 c 2
 159 0 l 1
 67 0 l 1xb5
 67 587 l 1
 136 587 l 1x2b
 149 519 l 1
 182 577 239 601 297 601 c 0x33
EndSplineSet
EndChar

StartChar: ntilde
Encoding: 241 241 202
Width: 508
VWidth: 1263
GlyphClass: 2
Flags: W
HStem: 0 21G<67 159 351 442> 519 82<211.844 328.186> 567 20G<67 139.824> 691 82<248.974 348.72> 726 81<160.435 262.196>
VStem: 67 92<0 457.12> 67 69<550.385 587> 91 66<691 723.536> 351 91<0 496.897> 352 66<776.985 807>
LayerCount: 2
Back
Fore
SplineSet
187 807 m 0x8940
 234.328491139 807 268.564966002 773 314 773 c 0x9140
 334 773 349 782 352 807 c 1
 418 807 l 1x8940
 418 755 390 691 322 691 c 0x9140
 274.996229716 691 240.859752954 726 195 726 c 0x8940
 175 726 160 718 157 691 c 1
 91 691 l 1x9140
 91 743 120 807 187 807 c 0x8940
297 601 m 0xc2
 385 601 442 553 442 423 c 2
 442 0 l 1
 351 0 l 1
 351 417 l 2
 351 498 317 519 268 519 c 0
 210 519 159 460 159 359 c 2
 159 0 l 1
 67 0 l 1xc480
 67 587 l 1
 136 587 l 1xa2
 149 519 l 1
 182 577 239 601 297 601 c 0xc2
EndSplineSet
EndChar

StartChar: o
Encoding: 111 111 203
Width: 508
VWidth: 1263
GlyphClass: 2
Flags: W
HStem: -14 82<194.656 314.64> 519 82<194.656 314.64>
VStem: 44 96<134.987 451.665> 369 96<134.987 451.665>
AnchorPoint: "Anchor-1" 0 0 basechar 0
AnchorPoint: "Anchor-0" 255 587 basechar 0
LayerCount: 2
Back
Fore
SplineSet
255 601 m 0
 391 601 465 505 465 293 c 0
 465 82 391 -14 255 -14 c 0
 117 -14 44 82 44 293 c 0
 44 505 117 601 255 601 c 0
255 519 m 0
 178 519 140 449 140 314 c 2
 140 273 l 2
 140 138 178 68 255 68 c 0
 331 68 369 138 369 273 c 2
 369 314 l 2
 369 449 331 519 255 519 c 0
EndSplineSet
Substitution2: "Single Substitution lookup 40 subtable" ordmasculine
Substitution2: "'aalt' Access All Alternates lookup 0 subtable" ordmasculine
EndChar

StartChar: oacute
Encoding: 243 243 204
Width: 508
VWidth: 1263
GlyphClass: 2
Flags: W
HStem: -14 82<194.656 314.64> 519 82<194.656 314.64> 787 20G<271.027 384>
VStem: 44 96<134.987 451.665> 369 96<134.987 451.665>
LayerCount: 2
Back
Fore
SplineSet
265 659 m 1
 188 659 l 1
 284 807 l 1
 384 807 l 1
 265 659 l 1
255 601 m 0
 391 601 465 505 465 293 c 0
 465 82 391 -14 255 -14 c 0
 117 -14 44 82 44 293 c 0
 44 505 117 601 255 601 c 0
255 519 m 0
 178 519 140 449 140 314 c 2
 140 273 l 2
 140 138 178 68 255 68 c 0
 331 68 369 138 369 273 c 2
 369 314 l 2
 369 449 331 519 255 519 c 0
EndSplineSet
EndChar

StartChar: obreve
Encoding: 335 335 205
Width: 508
VWidth: 1263
GlyphClass: 2
Flags: W
HStem: -14 82<194.656 314.64> 519 82<194.656 314.64> 698 72<198.842 312.814> 787 20G<116 190 320.5 393>
VStem: 44 96<134.987 451.665> 116 72<782.829 807> 322 71<782.829 807> 369 96<134.987 451.665>
LayerCount: 2
Back
Fore
SplineSet
393 807 m 1xf6
 393 756 341 698 255 698 c 0
 169 698 116 756 116 807 c 1
 188 807 l 1
 192 792 216 770 255 770 c 0
 293 770 319 792 322 807 c 1
 393 807 l 1xf6
255 601 m 0
 391 601 465 505 465 293 c 0
 465 82 391 -14 255 -14 c 0
 117 -14 44 82 44 293 c 0xf9
 44 505 117 601 255 601 c 0
255 519 m 0
 178 519 140 449 140 314 c 2
 140 273 l 2
 140 138 178 68 255 68 c 0
 331 68 369 138 369 273 c 2
 369 314 l 2
 369 449 331 519 255 519 c 0
EndSplineSet
EndChar

StartChar: ocircumflex
Encoding: 244 244 206
Width: 508
VWidth: 1263
GlyphClass: 2
Flags: W
HStem: -14 82<194.656 314.64> 519 82<194.656 314.64>
VStem: 44 96<134.987 451.665> 369 96<134.987 451.665>
LayerCount: 2
Back
Fore
SplineSet
255 744 m 1
 206 655 l 1
 116 655 l 1
 211 806 l 1
 299 806 l 1
 394 655 l 1
 304 655 l 1
 255 744 l 1
255 601 m 0
 391 601 465 505 465 293 c 0
 465 82 391 -14 255 -14 c 0
 117 -14 44 82 44 293 c 0
 44 505 117 601 255 601 c 0
255 519 m 0
 178 519 140 449 140 314 c 2
 140 273 l 2
 140 138 178 68 255 68 c 0
 331 68 369 138 369 273 c 2
 369 314 l 2
 369 449 331 519 255 519 c 0
EndSplineSet
EndChar

StartChar: odieresis
Encoding: 246 246 207
Width: 508
VWidth: 1263
GlyphClass: 2
Flags: W
HStem: -14 82<194.656 314.64> 519 82<194.656 314.64> 701 106<121 218 289 388>
VStem: 44 96<134.987 451.665> 121 97<701 807> 289 99<701 807> 369 96<134.987 451.665>
LayerCount: 2
Back
Fore
SplineSet
121 701 m 1xe8
 121 807 l 1
 218 807 l 1
 218 701 l 1
 121 701 l 1xe8
289 701 m 1xe4
 289 807 l 1
 388 807 l 1
 388 701 l 1
 289 701 l 1xe4
255 601 m 0
 391 601 465 505 465 293 c 0
 465 82 391 -14 255 -14 c 0
 117 -14 44 82 44 293 c 0xf2
 44 505 117 601 255 601 c 0
255 519 m 0
 178 519 140 449 140 314 c 2
 140 273 l 2
 140 138 178 68 255 68 c 0
 331 68 369 138 369 273 c 2
 369 314 l 2
 369 449 331 519 255 519 c 0
EndSplineSet
EndChar

StartChar: ograve
Encoding: 242 242 208
Width: 508
VWidth: 1263
GlyphClass: 2
Flags: W
HStem: -14 82<194.656 314.64> 519 82<194.656 314.64>
VStem: 44 96<134.987 451.665> 369 96<134.987 451.665>
LayerCount: 2
Back
Fore
SplineSet
245 659 m 1
 121.027175744 805.32857945 l 1
 226 805.32857945 l 1
 322 659 l 1
 245 659 l 1
255 601 m 0
 391 601 465 505 465 293 c 0
 465 82 391 -14 255 -14 c 0
 117 -14 44 82 44 293 c 0
 44 505 117 601 255 601 c 0
255 519 m 0
 178 519 140 449 140 314 c 2
 140 273 l 2
 140 138 178 68 255 68 c 0
 331 68 369 138 369 273 c 2
 369 314 l 2
 369 449 331 519 255 519 c 0
EndSplineSet
EndChar

StartChar: ohungarumlaut
Encoding: 337 337 209
Width: 508
VWidth: 1263
GlyphClass: 2
Flags: W
HStem: -14 82<194.656 314.64> 519 82<194.656 314.64> 787 20G<206.811 317 352.676 464>
VStem: 44 96<134.987 451.665> 369 96<134.987 451.665>
LayerCount: 2
Back
Fore
SplineSet
148 659 m 1
 216 807 l 1
 317 807 l 1
 225 659 l 1
 148 659 l 1
293 659 m 1
 362 807 l 1
 464 807 l 1
 370 659 l 1
 293 659 l 1
255 601 m 0
 391 601 465 505 465 293 c 0
 465 82 391 -14 255 -14 c 0
 117 -14 44 82 44 293 c 0
 44 505 117 601 255 601 c 0
255 519 m 0
 178 519 140 449 140 314 c 2
 140 273 l 2
 140 138 178 68 255 68 c 0
 331 68 369 138 369 273 c 2
 369 314 l 2
 369 449 331 519 255 519 c 0
EndSplineSet
EndChar

StartChar: omacron
Encoding: 333 333 210
Width: 508
VWidth: 1263
GlyphClass: 2
Flags: W
HStem: -14 82<194.656 314.64> 519 82<194.656 314.64> 669 80<115 395>
VStem: 44 96<134.987 451.665> 369 96<134.987 451.665>
LayerCount: 2
Back
Fore
SplineSet
115 749 m 1
 395 749 l 1
 395 669 l 1
 115 669 l 1
 115 749 l 1
255 601 m 0
 391 601 465 505 465 293 c 0
 465 82 391 -14 255 -14 c 0
 117 -14 44 82 44 293 c 0
 44 505 117 601 255 601 c 0
255 519 m 0
 178 519 140 449 140 314 c 2
 140 273 l 2
 140 138 178 68 255 68 c 0
 331 68 369 138 369 273 c 2
 369 314 l 2
 369 449 331 519 255 519 c 0
EndSplineSet
EndChar

StartChar: oslash
Encoding: 248 248 211
Width: 559
VWidth: 1263
GlyphClass: 2
Flags: W
HStem: -14 82<217.622 338.974> 519 82<219.026 339.859>
VStem: 69 96<163.801 451.665> 393 96<134.987 422.635>
AnchorPoint: "Anchor-1" 0 0 basechar 0
AnchorPoint: "Anchor-0" 280 587 basechar 0
LayerCount: 2
Back
Fore
SplineSet
489 293 m 0
 489 82 417 -14 279 -14 c 0
 232 -14 192 -3 160 21 c 1
 130 -35 l 1
 69 -35 l 1
 121 62 l 1
 87 111 69 188 69 293 c 0
 69 505 141 601 279 601 c 0
 326 601 365 590 397 566 c 1
 428 623 l 1
 489 623 l 1
 436 525 l 1
 471 476 489 399 489 293 c 0
279 519 m 0
 203 519 165 449 165 314 c 2
 165 273 l 2
 165 229 168 192 177 162 c 1
 352 486 l 1
 333 507 309 519 279 519 c 0
279 68 m 0
 355 68 393 138 393 273 c 2
 393 314 l 2
 393 358 389 395 380 424 c 1
 206 101 l 1
 224 80 247 68 279 68 c 0
EndSplineSet
EndChar

StartChar: oslashacute
Encoding: 511 511 212
Width: 559
VWidth: 1263
GlyphClass: 2
Flags: W
HStem: -14 82<217.622 338.974> 519 82<219.026 339.859> 787 20G<296.027 409>
VStem: 69 96<163.801 451.665> 393 96<134.987 422.635>
LayerCount: 2
Back
Fore
SplineSet
290 659 m 1
 213 659 l 1
 309 807 l 1
 409 807 l 1
 290 659 l 1
489 293 m 0
 489 82 417 -14 279 -14 c 0
 232 -14 192 -3 160 21 c 1
 130 -35 l 1
 69 -35 l 1
 121 62 l 1
 87 111 69 188 69 293 c 0
 69 505 141 601 279 601 c 0
 326 601 365 590 397 566 c 1
 428 623 l 1
 489 623 l 1
 436 525 l 1
 471 476 489 399 489 293 c 0
279 519 m 0
 203 519 165 449 165 314 c 2
 165 273 l 2
 165 229 168 192 177 162 c 1
 352 486 l 1
 333 507 309 519 279 519 c 0
279 68 m 0
 355 68 393 138 393 273 c 2
 393 314 l 2
 393 358 389 395 380 424 c 1
 206 101 l 1
 224 80 247 68 279 68 c 0
EndSplineSet
EndChar

StartChar: otilde
Encoding: 245 245 213
Width: 508
VWidth: 1263
GlyphClass: 2
Flags: W
HStem: -14 82<194.656 314.64> 519 82<194.656 314.64> 691 82<248.974 348.72> 726 81<160.435 262.196>
VStem: 44 96<134.987 451.665> 91 66<691 723.536> 352 66<776.985 807> 369 96<134.987 451.665>
LayerCount: 2
Back
Fore
SplineSet
187 807 m 0xd6
 234.328491139 807 268.564966002 773 314 773 c 0xe6
 334 773 349 782 352 807 c 1
 418 807 l 1xd6
 418 755 390 691 322 691 c 0xe6
 274.996229716 691 240.859752954 726 195 726 c 0xd6
 175 726 160 718 157 691 c 1
 91 691 l 1xe6
 91 743 120 807 187 807 c 0xd6
255 601 m 0
 391 601 465 505 465 293 c 0
 465 82 391 -14 255 -14 c 0
 117 -14 44 82 44 293 c 0xc9
 44 505 117 601 255 601 c 0
255 519 m 0
 178 519 140 449 140 314 c 2
 140 273 l 2
 140 138 178 68 255 68 c 0
 331 68 369 138 369 273 c 2
 369 314 l 2
 369 449 331 519 255 519 c 0
EndSplineSet
EndChar

StartChar: oe
Encoding: 339 339 214
Width: 863
VWidth: 1263
GlyphClass: 2
Flags: W
HStem: -14 82<209.026 329.254 539.094 667.386> 266 83<482 703> 519 82<209.026 329.254 537.603 661.099>
VStem: 59 96<134.987 451.665> 383 98<137.222 266 349 448.642> 703 96<106.425 200 349 470.095>
AnchorPoint: "Anchor-1" 0 0 basechar 0
AnchorPoint: "Anchor-0" 432 587 basechar 0
LayerCount: 2
Back
Fore
SplineSet
606 601 m 0
 735 601 799 522 799 325 c 2
 799 266 l 1
 481 266 l 1
 482 130 523 68 610 68 c 0
 668 68 709 119 709 200 c 1
 799 200 l 1
 799 69 722 -14 608 -14 c 0
 528 -14 469 13 432 72 c 1
 398 14 342 -14 269 -14 c 0
 131 -14 59 82 59 293 c 0
 59 505 131 601 269 601 c 0
 342 601 398 572 432 515 c 1
 469 572 526 601 606 601 c 0
269 519 m 0
 193 519 155 449 155 314 c 2
 155 273 l 2
 155 138 193 68 269 68 c 0
 345 68 383 138 383 273 c 2
 383 314 l 2
 383 449 345 519 269 519 c 0
606 519 m 0
 524 519 490 461 482 349 c 1
 703 349 l 1
 703 460 669 519 606 519 c 0
EndSplineSet
EndChar

StartChar: p
Encoding: 112 112 215
Width: 508
VWidth: 1263
GlyphClass: 2
Flags: W
HStem: -14 82<207.426 321.719> 519 82<208.312 323.013> 567 20G<67 139.824>
VStem: 67 97<-193 52 119.875 467.125> 67 69<550.385 587> 369 96<128.572 459.705>
LayerCount: 2
Back
Fore
SplineSet
283 601 m 0xcc
 394 601 465 508 465 293 c 0
 465 80 386 -14 289 -14 c 0
 232 -14 184 12 164 52 c 1
 164 -193 l 1
 67 -193 l 1xd4
 67 587 l 1
 136 587 l 1xac
 149 519 l 1
 177 572 229 601 283 601 c 0xcc
264 519 m 0
 193 519 159 449 159 314 c 2
 159 273 l 2
 159 138 193 68 264 68 c 0
 333 68 369 126 369 273 c 2
 369 314 l 2
 369 461 333 519 264 519 c 0
EndSplineSet
EndChar

StartChar: thorn
Encoding: 254 254 216
Width: 508
VWidth: 1263
GlyphClass: 2
Flags: W
HStem: -14 82<207.426 321.719> 519 82<207.348 323.013> 787 20G<67 159>
VStem: 67 92<-193 52 129.987 457.013 534 807> 369 96<128.572 459.705>
LayerCount: 2
Back
Fore
SplineSet
283 601 m 0
 394 601 465 508 465 293 c 0
 465 80 386 -14 289 -14 c 0
 232 -14 184 12 164 52 c 1
 164 -193 l 1
 67 -193 l 1
 67 807 l 1
 159 807 l 1
 159 534 l 1
 183 574 231 601 283 601 c 0
264 519 m 0
 193 519 159 449 159 314 c 2
 159 273 l 2
 159 138 193 68 264 68 c 0
 333 68 369 126 369 273 c 2
 369 314 l 2
 369 461 333 519 264 519 c 0
EndSplineSet
EndChar

StartChar: q
Encoding: 113 113 217
Width: 508
VWidth: 1263
GlyphClass: 2
Flags: W
HStem: -14 82<187.281 301.288> 519 82<185.987 300.648> 567 20G<367.706 442>
VStem: 44 96<128.572 459.705> 351 91<-193 52 129.987 457.013> 373 69<560.556 587>
LayerCount: 2
Back
Fore
SplineSet
226 601 m 0xd8
 280 601 327 572 355 519 c 1xd8
 373 587 l 1
 442 587 l 1xb4
 442 -193 l 1
 351 -193 l 1
 351 52 l 1
 331 12 277 -14 220 -14 c 0
 123 -14 44 80 44 293 c 0
 44 508 115 601 226 601 c 0xd8
245 519 m 0
 176 519 140 461 140 314 c 2
 140 273 l 2
 140 126 176 68 245 68 c 0
 316 68 351 138 351 273 c 2
 351 314 l 2
 351 449 316 519 245 519 c 0
EndSplineSet
EndChar

StartChar: r
Encoding: 114 114 218
Width: 304
VWidth: 1263
GlyphClass: 2
Flags: W
HStem: 0 21G<67 159> 496 105<201.635 297.986> 496 96<256.121 298>
VStem: 67 92<0 450.639> 67 69<545.538 587>
AnchorPoint: "Anchor-1" 153 0 basechar 0
AnchorPoint: "Anchor-0" 153 587 basechar 0
LayerCount: 2
Back
Fore
SplineSet
255 601 m 0xc8
 279 601 298 592 298 592 c 1
 298 496 l 1xa8
 268 496 l 2
 210 496 159 463 159 359 c 2
 159 0 l 1
 67 0 l 1xd0
 67 587 l 1
 136 587 l 1
 149 510 l 1
 163 554 198 601 255 601 c 0xc8
EndSplineSet
EndChar

StartChar: racute
Encoding: 341 341 219
Width: 304
VWidth: 1263
GlyphClass: 2
Flags: W
HStem: 0 21G<67 159> 496 105<201.635 297.986> 496 96<256.121 298> 787 20G<120.027 234>
VStem: 67 92<0 450.639> 67 69<545.538 587>
LayerCount: 2
Back
Fore
SplineSet
115 659 m 1x90
 37 659 l 1
 133 807 l 1
 234 807 l 1
 115 659 l 1x90
255 601 m 0xd4
 279 601 298 592 298 592 c 1
 298 496 l 1xb4
 268 496 l 2
 210 496 159 463 159 359 c 2
 159 0 l 1
 67 0 l 1xd8
 67 587 l 1
 136 587 l 1
 149 510 l 1
 163 554 198 601 255 601 c 0xd4
EndSplineSet
EndChar

StartChar: rcaron
Encoding: 345 345 220
Width: 304
VWidth: 1263
GlyphClass: 2
Flags: W
HStem: 0 21G<67 159> 496 105<201.635 297.986> 496 96<256.121 298> 787 20G<-4 98.1364 175.409 275>
VStem: 67 92<0 450.639> 67 69<545.538 587>
LayerCount: 2
Back
Fore
SplineSet
-4 807 m 1x94
 87 807 l 1
 136 719 l 1
 187 807 l 1
 275 807 l 1
 179 657 l 1
 92 657 l 1
 -4 807 l 1x94
255 601 m 0xd4
 279 601 298 592 298 592 c 1
 298 496 l 1xb4
 268 496 l 2
 210 496 159 463 159 359 c 2
 159 0 l 1
 67 0 l 1xd8
 67 587 l 1
 136 587 l 1
 149 510 l 1
 163 554 198 601 255 601 c 0xd4
EndSplineSet
EndChar

StartChar: rcommaaccent
Encoding: 343 343 221
Width: 304
VWidth: 1263
GlyphClass: 2
Flags: W
HStem: -168 101<73 112> 0 21G<67 159> 496 105<201.635 297.986> 496 96<256.121 298>
VStem: 67 92<0 450.639> 67 69<545.538 587> 73 96<-160 -67>
LayerCount: 2
Back
Fore
SplineSet
255 601 m 0xe4
 279 601 298 592 298 592 c 1
 298 496 l 1xd4
 268 496 l 2
 210 496 159 463 159 359 c 2
 159 0 l 1
 67 0 l 1xe8
 67 587 l 1
 136 587 l 1
 149 510 l 1
 163 554 198 601 255 601 c 0xe4
73 -168 m 1xc2
 73 -67 l 1
 169 -67 l 1
 169 -160 l 1
 138 -248 l 1
 87 -248 l 1
 112 -168 l 1
 73 -168 l 1xc2
EndSplineSet
EndChar

StartChar: s
Encoding: 115 115 222
Width: 457
VWidth: 1263
GlyphClass: 2
Flags: W
HStem: -14 81<167.866 291.135> 520 81<165.876 278.198>
VStem: 37 97<99.0873 183> 51 94<389.541 499.355> 306 96<418 490.895> 318 95<94.3203 211.226>
AnchorPoint: "Anchor-1" 229 0 basechar 0
AnchorPoint: "Anchor-0" 229 587 basechar 0
LayerCount: 2
Back
Fore
SplineSet
234 601 m 0xd4
 343 601 402 527 402 440 c 0
 402 435 401 422 400 418 c 1
 306 418 l 1
 306 465 287 520 225 520 c 0
 159 520 145 473 145 440 c 0xd8
 145 384 196 367 253 347 c 0
 328 322 413 292 413 168 c 0
 413 42 333 -14 226 -14 c 0
 91 -14 37 72 37 159 c 0
 37 170 38 180 38 183 c 1
 134 183 l 1
 134 172 l 2xe4
 134 99 177 67 230 67 c 0
 278 67 318 97 318 154 c 0
 318 221 263 241 202 264 c 0
 130 289 51 318 51 433 c 0
 51 537 122 601 234 601 c 0xd4
EndSplineSet
EndChar

StartChar: sacute
Encoding: 347 347 223
Width: 457
VWidth: 1263
GlyphClass: 2
Flags: W
HStem: -14 81<167.866 291.135> 520 81<165.876 278.198> 787 20G<245.162 359>
VStem: 37 97<99.0873 183> 51 94<389.541 499.355> 306 96<418 490.895> 318 95<94.3203 211.226>
LayerCount: 2
Back
Fore
SplineSet
240 659 m 1xe0
 163 659 l 1
 258 807 l 1
 359 807 l 1
 240 659 l 1xe0
234 601 m 0
 343 601 402 527 402 440 c 0
 402 435 401 422 400 418 c 1
 306 418 l 1
 306 465 287 520 225 520 c 0
 159 520 145 473 145 440 c 0xec
 145 384 196 367 253 347 c 0
 328 322 413 292 413 168 c 0
 413 42 333 -14 226 -14 c 0
 91 -14 37 72 37 159 c 0
 37 170 38 180 38 183 c 1
 134 183 l 1
 134 172 l 2xf2
 134 99 177 67 230 67 c 0
 278 67 318 97 318 154 c 0
 318 221 263 241 202 264 c 0
 130 289 51 318 51 433 c 0xea
 51 537 122 601 234 601 c 0
EndSplineSet
EndChar

StartChar: scaron
Encoding: 353 353 224
Width: 457
VWidth: 1263
GlyphClass: 2
Flags: W
HStem: -14 81<167.866 291.135> 520 81<165.876 278.198> 787 20G<91 190.364 267.636 369>
VStem: 37 97<99.0873 183> 51 94<389.541 499.355> 306 96<418 490.895> 318 95<94.3203 211.226>
LayerCount: 2
Back
Fore
SplineSet
186 657 m 1xe0
 91 807 l 1
 179 807 l 1
 229 719 l 1
 279 807 l 1
 369 807 l 1
 273 657 l 1
 186 657 l 1xe0
234 601 m 0
 343 601 402 527 402 440 c 0
 402 435 401 422 400 418 c 1
 306 418 l 1
 306 465 287 520 225 520 c 0
 159 520 145 473 145 440 c 0xec
 145 384 196 367 253 347 c 0
 328 322 413 292 413 168 c 0
 413 42 333 -14 226 -14 c 0
 91 -14 37 72 37 159 c 0
 37 170 38 180 38 183 c 1
 134 183 l 1
 134 172 l 2xf2
 134 99 177 67 230 67 c 0
 278 67 318 97 318 154 c 0
 318 221 263 241 202 264 c 0
 130 289 51 318 51 433 c 0xea
 51 537 122 601 234 601 c 0
EndSplineSet
EndChar

StartChar: scedilla
Encoding: 351 351 225
Width: 457
VWidth: 1263
GlyphClass: 2
Flags: W
HStem: -203 63<125.272 247.601> -195 55<124 215.589> -13 80<177 186 246 289.327> 520 81<165.876 278.198>
VStem: 37 97<101.641 183> 51 94<389.541 499.355> 249 84<-137.848 -87.8528> 306 96<418 490.895> 318 95<94.1105 211.226>
LayerCount: 2
Back
Fore
SplineSet
234 601 m 0xb480
 343 601 402 527 402 440 c 0
 402 435 401 422 400 418 c 1
 306 418 l 1xb5
 306 465 287 520 225 520 c 0
 159 520 145 473 145 440 c 0
 145 384 196 367 253 347 c 0
 328 322 413 292 413 168 c 0xb480
 413 49 343 -5 246 -13 c 1
 246 -40 l 1
 294 -43 333 -61 333 -112 c 0
 333 -188 264 -203 217 -203 c 0xb2
 187 -203 151 -200 124 -195 c 1
 124 -140 l 1x72
 208 -140 l 2
 233 -140 249 -133 249 -112 c 0
 249 -94 240 -86 211 -86 c 2
 174 -86 l 1
 186 -11 l 1
 80 4 37 81 37 159 c 0
 37 170 38 180 38 183 c 1
 134 183 l 1
 134 172 l 2xba
 134 99 177 67 230 67 c 0
 278 67 318 97 318 154 c 0
 318 221 263 241 202 264 c 0
 130 289 51 318 51 433 c 0
 51 537 122 601 234 601 c 0xb480
EndSplineSet
Substitution2: "'locl' Localized Forms in Latin lookup 6 subtable" scommaaccent
Substitution2: "'locl' Localized Forms in Latin lookup 5 subtable" scommaaccent
Substitution2: "'aalt' Access All Alternates lookup 0 subtable" scommaaccent
EndChar

StartChar: scircumflex
Encoding: 349 349 226
Width: 457
VWidth: 1263
GlyphClass: 2
Flags: W
HStem: -14 81<167.866 291.135> 520 81<165.876 278.198>
VStem: 37 97<99.0873 183> 51 94<389.541 499.355> 306 96<418 490.895> 318 95<94.3203 211.226>
LayerCount: 2
Back
Fore
SplineSet
279 655 m 1xc0
 230 744 l 1
 179 655 l 1
 91 655 l 1
 187 806 l 1
 274 806 l 1
 369 655 l 1
 279 655 l 1xc0
234 601 m 0
 343 601 402 527 402 440 c 0
 402 435 401 422 400 418 c 1
 306 418 l 1
 306 465 287 520 225 520 c 0
 159 520 145 473 145 440 c 0xd8
 145 384 196 367 253 347 c 0
 328 322 413 292 413 168 c 0
 413 42 333 -14 226 -14 c 0
 91 -14 37 72 37 159 c 0
 37 170 38 180 38 183 c 1
 134 183 l 1
 134 172 l 2xe4
 134 99 177 67 230 67 c 0
 278 67 318 97 318 154 c 0
 318 221 263 241 202 264 c 0
 130 289 51 318 51 433 c 0xd4
 51 537 122 601 234 601 c 0
EndSplineSet
EndChar

StartChar: scommaaccent
Encoding: 537 537 227
Width: 457
VWidth: 1263
GlyphClass: 2
Flags: W
HStem: -14 81<167.866 291.135> 520 81<165.876 278.198>
VStem: 37 97<99.0873 183> 51 94<389.541 499.355> 181 94<-160 -67> 306 96<418 490.895> 318 95<94.3203 211.226>
AnchorPoint: "Anchor-1" 229 0 basechar 0
AnchorPoint: "Anchor-0" 229 587 basechar 0
LayerCount: 2
Back
Fore
SplineSet
234 601 m 0xda
 343 601 402 527 402 440 c 0
 402 435 401 422 400 418 c 1
 306 418 l 1
 306 465 287 520 225 520 c 0
 159 520 145 473 145 440 c 0xdc
 145 384 196 367 253 347 c 0
 328 322 413 292 413 168 c 0
 413 42 333 -14 226 -14 c 0
 91 -14 37 72 37 159 c 0
 37 170 38 180 38 183 c 1
 134 183 l 1
 134 172 l 2xea
 134 99 177 67 230 67 c 0
 278 67 318 97 318 154 c 0
 318 221 263 241 202 264 c 0
 130 289 51 318 51 433 c 0
 51 537 122 601 234 601 c 0xda
181 -168 m 1
 181 -67 l 1
 275 -67 l 1
 275 -160 l 1
 242 -248 l 1
 192 -248 l 1
 218 -168 l 1
 181 -168 l 1
EndSplineSet
EndChar

StartChar: germandbls
Encoding: 223 223 228
Width: 559
VWidth: 1263
GlyphClass: 2
Flags: W
HStem: 0 82<210 353.291> 390 82<210 341.303> 739 82<204.537 352.175>
VStem: 56 92<0 675.736> 399 95<532.208 690.553> 423 94<156.328 318.933>
LayerCount: 2
Back
Fore
SplineSet
284 821 m 0xf8
 404 821 494 742 494 611 c 0xf8
 494 538 450 466 388 441 c 1
 388 437 l 1
 464 409 517 325 517 239 c 0
 517 95 418 0 293 0 c 2
 210 0 l 1
 210 82 l 1
 284 82 l 2
 361 82 423 153 423 240 c 0xf4
 423 322 361 390 284 390 c 2
 210 390 l 1
 210 472 l 1
 275 472 l 2
 343 472 399 534 399 609 c 0
 399 687 358 739 278 739 c 0
 198 739 148 684 148 578 c 2
 148 0 l 1
 56 0 l 1
 56 576 l 2
 56 750 156 821 284 821 c 0xf8
EndSplineSet
EndChar

StartChar: longs
Encoding: 383 383 229
Width: 203
VWidth: 1263
GlyphClass: 2
Flags: W
HStem: 0 21G<62 153> 505 82<10 62> 739 77<161.866 254.101> 739 64<179.268 255>
VStem: 10 143<505 587> 62 91<0 505 587 730.359>
LayerCount: 2
Back
Fore
SplineSet
178 816 m 0xe4
 205 816 236 809 255 803 c 1
 255 739 l 1xd4
 206 739 l 2
 171 739 153 720 153 686 c 2
 153 0 l 1
 62 0 l 1
 62 505 l 1xe4
 10 505 l 1
 10 587 l 1xe8
 62 587 l 1
 62 681 l 2
 62 748 88 816 178 816 c 0xe4
EndSplineSet
EndChar

StartChar: t
Encoding: 116 116 230
Width: 255
VWidth: 1263
GlyphClass: 2
Flags: W
HStem: -11 79<167.29 235.288> 5 63<172.081 236> 505 82<15 66 158 236>
VStem: 66 92<77.6142 505 587 644.05> 86 72<692.95 750>
AnchorPoint: "Anchor-1" 149 0 basechar 0
AnchorPoint: "Anchor-0" 0 0 basechar 0
LayerCount: 2
Back
Fore
SplineSet
236 505 m 1xb0
 158 505 l 1
 158 121 l 2
 158 87 176 68 210 68 c 2xb0
 236 68 l 1
 236 5 l 1x70
 221 -5 194 -11 171 -11 c 0
 91 -11 66 57 66 124 c 2
 66 505 l 1
 15 505 l 1
 15 587 l 1
 66 587 l 1xb0
 86 750 l 1
 158 750 l 1xa8
 158 587 l 1
 236 587 l 1
 236 505 l 1xb0
EndSplineSet
EndChar

StartChar: tbar
Encoding: 359 359 231
Width: 255
VWidth: 1263
GlyphClass: 2
Flags: W
HStem: -11 79<167.29 235.288> 5 63<172.081 236> 313 77<18 66 158 231> 505 82<15 66 158 236>
VStem: 15 221<313 390 505 587> 66 92<77.6142 313 390 505 587 644.05> 86 72<692.95 750>
LayerCount: 2
Back
Fore
SplineSet
236 587 m 1xb8
 236 505 l 1xb8
 158 505 l 1
 158 390 l 1
 231 390 l 1
 231 313 l 1
 158 313 l 1
 158 121 l 2
 158 87 176 68 210 68 c 2xb4
 236 68 l 1
 236 5 l 1x78
 221 -5 194 -11 171 -11 c 0
 91 -11 66 57 66 124 c 2
 66 313 l 1
 18 313 l 1
 18 390 l 1
 66 390 l 1
 66 505 l 1xb4
 15 505 l 1
 15 587 l 1xb8
 66 587 l 1xb4
 86 750 l 1
 158 750 l 1xb2
 158 587 l 1xb4
 236 587 l 1xb8
EndSplineSet
EndChar

StartChar: tcaron
Encoding: 357 357 232
Width: 342
VWidth: 1263
GlyphClass: 2
Flags: W
HStem: -11 79<167.29 235.288> 5 63<172.081 236> 505 82<15 66 158 236> 745 20G<282 394>
VStem: 66 92<77.6142 505 587 644.05> 86 72<692.95 750> 282 112<655 765>
LayerCount: 2
Back
Fore
SplineSet
282 645 m 1x32
 282 765 l 1
 394 765 l 1
 394 655 l 1
 340 506 l 1
 282 506 l 1
 326 645 l 1
 282 645 l 1x32
236 505 m 1
 158 505 l 1
 158 121 l 2
 158 87 176 68 210 68 c 2xba
 236 68 l 1
 236 5 l 1x7a
 221 -5 194 -11 171 -11 c 0
 91 -11 66 57 66 124 c 2
 66 505 l 1
 15 505 l 1
 15 587 l 1
 66 587 l 1xba
 86 750 l 1
 158 750 l 1xb6
 158 587 l 1xba
 236 587 l 1
 236 505 l 1
EndSplineSet
EndChar

StartChar: uni0163
Encoding: 355 355 233
Width: 255
VWidth: 1263
GlyphClass: 2
Flags: W
HStem: -203 63<46.2714 168.827> -195 55<45 137.498> -11 79<172.25 236.288> 5 63<173.081 237> 505 82<16 67 159 237>
VStem: 67 92<76.118 505 587 644.05> 87 72<692.95 750> 171 84<-137.848 -87.8528>
AnchorPoint: "Anchor-1" 149 0 basechar 0
AnchorPoint: "Anchor-0" 0 0 basechar 0
LayerCount: 2
Back
Fore
SplineSet
255 -112 m 0x2d
 255 -188 184 -203 139 -203 c 0xad
 107 -203 72 -200 45 -195 c 1
 45 -140 l 1x4d
 130 -140 l 2
 154 -140 171 -133 171 -112 c 0
 171 -94 162 -86 133 -86 c 2
 96 -86 l 1
 110 8 l 1
 78 33 67 79 67 124 c 2
 67 505 l 1
 16 505 l 1
 16 587 l 1
 67 587 l 1x8d
 87 750 l 1
 159 750 l 1x8b
 159 587 l 1
 237 587 l 1
 237 505 l 1
 159 505 l 1
 159 121 l 2
 159 87 177 68 211 68 c 2xad
 237 68 l 1
 237 5 l 1x1d
 222 -5 195 -11 172 -11 c 1
 172 -40 l 1
 220 -43 255 -61 255 -112 c 0x2d
EndSplineSet
Substitution2: "'locl' Localized Forms in Latin lookup 6 subtable" uni021B
Substitution2: "'locl' Localized Forms in Latin lookup 5 subtable" uni021B
Substitution2: "'aalt' Access All Alternates lookup 0 subtable" uni021B
EndChar

StartChar: uni021B
Encoding: 539 539 234
Width: 255
VWidth: 1263
GlyphClass: 2
Flags: W
HStem: -11 79<167.29 235.288> 5 63<172.081 236> 505 82<15 66 158 236>
VStem: 66 92<77.6142 505 587 644.05> 81 95<-160 -67> 86 72<692.95 750>
LayerCount: 2
Back
Fore
SplineSet
236 505 m 1xb0
 158 505 l 1
 158 121 l 2
 158 87 176 68 210 68 c 2xb0
 236 68 l 1
 236 5 l 1x70
 221 -5 194 -11 171 -11 c 0
 91 -11 66 57 66 124 c 2
 66 505 l 1
 15 505 l 1
 15 587 l 1
 66 587 l 1xb0
 86 750 l 1
 158 750 l 1xa4
 158 587 l 1
 236 587 l 1
 236 505 l 1xb0
81 -168 m 1x28
 81 -67 l 1
 176 -67 l 1
 176 -160 l 1
 143 -248 l 1
 92 -248 l 1
 119 -168 l 1
 81 -168 l 1x28
EndSplineSet
EndChar

StartChar: u
Encoding: 117 117 235
Width: 508
VWidth: 1263
GlyphClass: 2
Flags: W
HStem: -14 82<182.948 296.534> 0 21G<369.471 442> 567 20G<67 159 351 442>
VStem: 67 92<90.6196 587> 351 91<130.541 587> 373 69<0 39.6667>
AnchorPoint: "Anchor-1" 0 0 basechar 0
AnchorPoint: "Anchor-0" 255 587 basechar 0
LayerCount: 2
Back
Fore
SplineSet
212 -14 m 0xb4
 124 -14 67 34 67 164 c 2
 67 587 l 1
 159 587 l 1
 159 171 l 2
 159 90 192 68 241 68 c 0
 299 68 351 128 351 229 c 2
 351 587 l 1
 442 587 l 1xb8
 442 0 l 1
 373 0 l 1x74
 361 68 l 1
 329 10 270 -14 212 -14 c 0xb4
EndSplineSet
EndChar

StartChar: uacute
Encoding: 250 250 236
Width: 508
VWidth: 1263
GlyphClass: 2
Flags: W
HStem: -14 82<182.948 296.534> 0 21G<369.471 442> 567 20G<67 159 351 442> 787 20G<271.027 384>
VStem: 67 92<90.6196 587> 351 91<130.541 587> 373 69<0 39.6667>
LayerCount: 2
Back
Fore
SplineSet
265 659 m 1x38
 188 659 l 1
 284 807 l 1
 384 807 l 1
 265 659 l 1x38
212 -14 m 0xba
 124 -14 67 34 67 164 c 2
 67 587 l 1
 159 587 l 1
 159 171 l 2
 159 90 192 68 241 68 c 0
 299 68 351 128 351 229 c 2
 351 587 l 1
 442 587 l 1xbc
 442 0 l 1
 373 0 l 1x7a
 361 68 l 1
 329 10 270 -14 212 -14 c 0xba
EndSplineSet
EndChar

StartChar: ubreve
Encoding: 365 365 237
Width: 508
VWidth: 1263
GlyphClass: 2
Flags: W
HStem: -14 82<182.948 296.534> 0 21G<369.471 442> 567 20G<67 159 351 442> 698 72<198.842 312.814> 787 20G<116 190 320.5 393>
VStem: 67 92<90.6196 587> 116 72<782.829 807> 322 71<782.829 807> 351 91<130.541 587> 373 69<0 39.6667>
LayerCount: 2
Back
Fore
SplineSet
393 807 m 1x3b
 393 756 341 698 255 698 c 0
 169 698 116 756 116 807 c 1
 188 807 l 1
 192 792 216 770 255 770 c 0
 293 770 319 792 322 807 c 1
 393 807 l 1x3b
212 -14 m 0xb840
 124 -14 67 34 67 164 c 2
 67 587 l 1
 159 587 l 1
 159 171 l 2
 159 90 192 68 241 68 c 0
 299 68 351 128 351 229 c 2
 351 587 l 1
 442 587 l 1xbc80
 442 0 l 1
 373 0 l 1x7840
 361 68 l 1
 329 10 270 -14 212 -14 c 0xb840
EndSplineSet
EndChar

StartChar: ucircumflex
Encoding: 251 251 238
Width: 508
VWidth: 1263
GlyphClass: 2
Flags: W
HStem: -14 82<182.948 296.534> 0 21G<369.471 442> 567 20G<67 159 351 442>
VStem: 67 92<90.6196 587> 351 91<130.541 587> 373 69<0 39.6667>
LayerCount: 2
Back
Fore
SplineSet
255 744 m 1x30
 206 655 l 1
 116 655 l 1
 211 806 l 1
 299 806 l 1
 394 655 l 1
 304 655 l 1
 255 744 l 1x30
212 -14 m 0xb4
 124 -14 67 34 67 164 c 2
 67 587 l 1
 159 587 l 1
 159 171 l 2
 159 90 192 68 241 68 c 0
 299 68 351 128 351 229 c 2
 351 587 l 1
 442 587 l 1xb8
 442 0 l 1
 373 0 l 1x74
 361 68 l 1
 329 10 270 -14 212 -14 c 0xb4
EndSplineSet
EndChar

StartChar: udieresis
Encoding: 252 252 239
Width: 508
VWidth: 1263
GlyphClass: 2
Flags: W
HStem: -14 82<182.948 296.534> 0 21G<369.471 442> 567 20G<67 159 351 442> 701 106<121 218 289 388>
VStem: 67 92<90.6196 587> 121 97<701 807> 289 99<701 807> 351 91<130.541 587> 373 69<0 39.6667>
LayerCount: 2
Back
Fore
SplineSet
121 701 m 1x34
 121 807 l 1
 218 807 l 1
 218 701 l 1
 121 701 l 1x34
289 701 m 1x32
 289 807 l 1
 388 807 l 1
 388 701 l 1
 289 701 l 1x32
212 -14 m 0xb080
 124 -14 67 34 67 164 c 2
 67 587 l 1
 159 587 l 1
 159 171 l 2
 159 90 192 68 241 68 c 0
 299 68 351 128 351 229 c 2
 351 587 l 1
 442 587 l 1xb9
 442 0 l 1
 373 0 l 1x7080
 361 68 l 1
 329 10 270 -14 212 -14 c 0xb080
EndSplineSet
EndChar

StartChar: ugrave
Encoding: 249 249 240
Width: 508
VWidth: 1263
GlyphClass: 2
Flags: W
HStem: -14 82<182.948 296.534> 0 21G<369.471 442> 567 20G<67 159 351 442>
VStem: 67 92<90.6196 587> 351 91<130.541 587> 373 69<0 39.6667>
LayerCount: 2
Back
Fore
SplineSet
245 659 m 1x30
 121.027175744 805.32857945 l 1
 226 805.32857945 l 1
 322 659 l 1
 245 659 l 1x30
212 -14 m 0xb4
 124 -14 67 34 67 164 c 2
 67 587 l 1
 159 587 l 1
 159 171 l 2
 159 90 192 68 241 68 c 0
 299 68 351 128 351 229 c 2
 351 587 l 1
 442 587 l 1xb8
 442 0 l 1
 373 0 l 1x74
 361 68 l 1
 329 10 270 -14 212 -14 c 0xb4
EndSplineSet
EndChar

StartChar: uhungarumlaut
Encoding: 369 369 241
Width: 508
VWidth: 1263
GlyphClass: 2
Flags: W
HStem: -14 82<182.948 296.534> 0 21G<369.471 442> 567 20G<67 159 351 442> 787 20G<206.811 317 352.676 464>
VStem: 67 92<90.6196 587> 351 91<130.541 587> 373 69<0 39.6667>
LayerCount: 2
Back
Fore
SplineSet
225 659 m 1x38
 148 659 l 1
 216 807 l 1
 317 807 l 1
 225 659 l 1x38
370 659 m 1
 293 659 l 1
 362 807 l 1
 464 807 l 1
 370 659 l 1
212 -14 m 0xba
 124 -14 67 34 67 164 c 2
 67 587 l 1
 159 587 l 1
 159 171 l 2
 159 90 192 68 241 68 c 0
 299 68 351 128 351 229 c 2
 351 587 l 1
 442 587 l 1xbc
 442 0 l 1
 373 0 l 1x7a
 361 68 l 1
 329 10 270 -14 212 -14 c 0xba
EndSplineSet
EndChar

StartChar: umacron
Encoding: 363 363 242
Width: 508
VWidth: 1263
GlyphClass: 2
Flags: W
HStem: -14 82<182.948 296.534> 0 21G<369.471 442> 567 20G<67 159 351 442> 669 80<115 395>
VStem: 67 92<90.6196 587> 351 91<130.541 587> 373 69<0 39.6667>
LayerCount: 2
Back
Fore
SplineSet
115 749 m 1x38
 395 749 l 1
 395 669 l 1
 115 669 l 1
 115 749 l 1x38
212 -14 m 0xba
 124 -14 67 34 67 164 c 2
 67 587 l 1
 159 587 l 1
 159 171 l 2
 159 90 192 68 241 68 c 0
 299 68 351 128 351 229 c 2
 351 587 l 1
 442 587 l 1xbc
 442 0 l 1
 373 0 l 1x7a
 361 68 l 1
 329 10 270 -14 212 -14 c 0xba
EndSplineSet
EndChar

StartChar: uogonek
Encoding: 371 371 243
Width: 508
VWidth: 1263
GlyphClass: 2
Flags: W
HStem: -205 75<425.197 498.877> -189 59<433.077 500> -14 82<182.948 296.534> 567 20G<67 159 351 442>
VStem: 67 92<90.6196 587> 327 89<-121.694 -26.0461> 351 91<130.541 587>
LayerCount: 2
Back
Fore
SplineSet
500 -130 m 1x7c
 500 -189 l 1x7c
 476 -198 455 -205 432 -205 c 0
 384 -205 327 -181 327 -104 c 0xbc
 327 -55 347 -23 371 4 c 1
 361 68 l 1
 329 10 270 -14 212 -14 c 0
 124 -14 67 34 67 164 c 2
 67 587 l 1
 159 587 l 1
 159 171 l 2
 159 90 192 68 241 68 c 0
 299 68 351 128 351 229 c 2
 351 587 l 1
 442 587 l 1
 442 0 l 1xba
 429 -16 416 -42 416 -69 c 0
 416 -101 428 -130 466 -130 c 2xbc
 500 -130 l 1x7c
EndSplineSet
EndChar

StartChar: uring
Encoding: 367 367 244
Width: 508
VWidth: 1263
GlyphClass: 2
Flags: W
HStem: -14 82<182.948 296.534> 0 21G<369.471 442> 567 20G<67 159 351 442> 628 50<210.845 298.286> 792 50<210.193 298.948>
VStem: 67 92<90.6196 587> 148 49<690.899 779.151> 312 49<692.323 778.936> 351 91<130.541 587> 373 69<0 39.6667>
LayerCount: 2
Back
Fore
SplineSet
255 842 m 0x3b
 314 842 361 793 361 736 c 0
 361 675 313 628 255 628 c 0
 197 628 148 674 148 736 c 0
 148 794 196 842 255 842 c 0x3b
255 792 m 0
 223 792 197 766 197 736 c 0
 197 704 223 678 255 678 c 0
 284 678 312 704 312 736 c 0
 312 766 284 792 255 792 c 0
212 -14 m 0xb940
 124 -14 67 34 67 164 c 2
 67 587 l 1
 159 587 l 1
 159 171 l 2
 159 90 192 68 241 68 c 0
 299 68 351 128 351 229 c 2
 351 587 l 1
 442 587 l 1xbc80
 442 0 l 1
 373 0 l 1x7840
 361 68 l 1
 329 10 270 -14 212 -14 c 0xb940
EndSplineSet
EndChar

StartChar: utilde
Encoding: 361 361 245
Width: 508
VWidth: 1263
GlyphClass: 2
Flags: W
HStem: -14 82<182.948 296.534> 0 21G<369.471 442> 567 20G<67 159 351 442> 691 82<248.974 348.72> 726 81<160.435 262.196>
VStem: 67 92<90.6196 587> 91 66<691 723.536> 351 91<130.541 587> 352 66<776.985 807> 373 69<0 39.6667>
LayerCount: 2
Back
Fore
SplineSet
187 807 m 0x2a80
 234.328491139 807 268.564966002 773 314 773 c 0x3280
 334 773 349 782 352 807 c 1
 418 807 l 1x2a80
 418 755 390 691 322 691 c 0x3280
 274.996229716 691 240.859752954 726 195 726 c 0x2a80
 175 726 160 718 157 691 c 1
 91 691 l 1x3280
 91 743 120 807 187 807 c 0x2a80
212 -14 m 0xa040
 124 -14 67 34 67 164 c 2
 67 587 l 1
 159 587 l 1
 159 171 l 2
 159 90 192 68 241 68 c 0
 299 68 351 128 351 229 c 2
 351 587 l 1
 442 587 l 1xa5
 442 0 l 1
 373 0 l 1x6040
 361 68 l 1
 329 10 270 -14 212 -14 c 0xa040
EndSplineSet
EndChar

StartChar: v
Encoding: 118 118 246
Width: 457
VWidth: 1263
GlyphClass: 2
Flags: W
HStem: 0 21G<173.276 284.724> 567 20G<11 116.551 349.653 447>
LayerCount: 2
Back
Fore
SplineSet
179 0 m 1
 11 587 l 1
 111 587 l 1
 235.290700146 139.198544991 l 1
 355 587 l 1
 447 587 l 1
 279 0 l 1
 179 0 l 1
EndSplineSet
EndChar

StartChar: w
Encoding: 119 119 247
Width: 660
VWidth: 1263
GlyphClass: 2
Flags: W
HStem: 0 21G<142.991 252.29 406.418 517.974> 567 20G<1 105.532 276.435 389.305 561.589 659>
AnchorPoint: "Anchor-1" 0 0 basechar 0
AnchorPoint: "Anchor-0" 331 587 basechar 0
LayerCount: 2
Back
Fore
SplineSet
326.083968792 468.531174246 m 1
 249 0 l 1
 148 0 l 1
 1 587 l 1
 101 587 l 1
 207.031766013 119.046472662 l 1
 207.031766013 119.046472662 211 197 221 256 c 2
 280 587 l 1
 386 587 l 1
 463.094756509 120.402252116 l 1
 566 587 l 1
 659 587 l 1
 513 0 l 1
 410 0 l 1
 326.083968792 468.531174246 l 1
EndSplineSet
EndChar

StartChar: wacute
Encoding: 7811 7811 248
Width: 660
VWidth: 1263
GlyphClass: 2
Flags: W
HStem: 0 21G<142.991 252.582 406.698 517.974> 567 20G<1 105.532 276.435 389.305 561.589 659> 787 20G<347.027 460>
LayerCount: 2
Back
Fore
SplineSet
342 659 m 1
 264 659 l 1
 360 807 l 1
 460 807 l 1
 342 659 l 1
410 0 m 1
 332.770284862 467.717423812 l 1
 249 0 l 1
 148 0 l 1
 1 587 l 1
 101 587 l 1
 207.031766013 119.046472662 l 1
 207.031766013 119.046472662 211 197 221 256 c 2
 280 587 l 1
 386 587 l 1
 463.094756509 120.402252116 l 1
 566 587 l 1
 659 587 l 1
 513 0 l 1
 410 0 l 1
EndSplineSet
EndChar

StartChar: wcircumflex
Encoding: 373 373 249
Width: 660
VWidth: 1263
GlyphClass: 2
Flags: W
HStem: 0 21G<142.991 252.29 406.418 517.974> 567 20G<1 105.532 276.435 389.305 561.589 659>
LayerCount: 2
Back
Fore
SplineSet
332 744 m 1
 280 655 l 1
 191 655 l 1
 287 806 l 1
 374 806 l 1
 470 655 l 1
 380 655 l 1
 332 744 l 1
326.083968792 468.531174246 m 1
 249 0 l 1
 148 0 l 1
 1 587 l 1
 101 587 l 1
 207.031766013 119.046472662 l 1
 207.031766013 119.046472662 211 197 221 256 c 2
 280 587 l 1
 386 587 l 1
 463.094756509 120.402252116 l 1
 566 587 l 1
 659 587 l 1
 513 0 l 1
 410 0 l 1
 326.083968792 468.531174246 l 1
EndSplineSet
EndChar

StartChar: wdieresis
Encoding: 7813 7813 250
Width: 660
VWidth: 1263
GlyphClass: 2
Flags: W
HStem: 0 21G<142.991 252.582 406.698 517.974> 567 20G<1 105.532 276.435 389.305 561.589 659> 701 106<197 294 365 464>
VStem: 197 97<701 807> 365 99<701 807>
LayerCount: 2
Back
Fore
SplineSet
197 701 m 1
 197 807 l 1
 294 807 l 1
 294 701 l 1
 197 701 l 1
365 701 m 1
 365 807 l 1
 464 807 l 1
 464 701 l 1
 365 701 l 1
410 0 m 1
 332.770284862 467.717423812 l 1
 249 0 l 1
 148 0 l 1
 1 587 l 1
 101 587 l 1
 207.031766013 119.046472662 l 1
 207.031766013 119.046472662 211 197 221 256 c 2
 280 587 l 1
 386 587 l 1
 463.094756509 120.402252116 l 1
 566 587 l 1
 659 587 l 1
 513 0 l 1
 410 0 l 1
EndSplineSet
EndChar

StartChar: wgrave
Encoding: 7809 7809 251
Width: 660
VWidth: 1263
GlyphClass: 2
Flags: W
HStem: 0 21G<142.991 252.582 406.698 517.974> 567 20G<1 105.532 276.435 389.305 561.589 659>
LayerCount: 2
Back
Fore
SplineSet
321 659 m 1
 196.024592221 805.312672522 l 1
 302 805.312672522 l 1
 397 659 l 1
 321 659 l 1
410 0 m 1
 332.770284862 467.717423812 l 1
 249 0 l 1
 148 0 l 1
 1 587 l 1
 101 587 l 1
 207.031766013 119.046472662 l 1
 207.031766013 119.046472662 211 197 221 256 c 2
 280 587 l 1
 386 587 l 1
 463.094756509 120.402252116 l 1
 566 587 l 1
 659 587 l 1
 513 0 l 1
 410 0 l 1
EndSplineSet
EndChar

StartChar: x
Encoding: 120 120 252
Width: 457
VWidth: 1263
GlyphClass: 2
Flags: W
HStem: 0 21G<6 118.019 330.352 451> 567 20G<14 135.547 330.055 443>
LayerCount: 2
Back
Fore
SplineSet
341 0 m 1
 226 216 l 1
 107 0 l 1
 6 0 l 1
 178 297 l 1
 14 587 l 1
 125 587 l 1
 231 386 l 1
 341 587 l 1
 443 587 l 1
 279 304 l 1
 451 0 l 1
 341 0 l 1
EndSplineSet
EndChar

StartChar: y
Encoding: 121 121 253
Width: 457
VWidth: 1263
GlyphClass: 2
Flags: W
HStem: -203 73<43.8914 136.42> -195 65<43 107.739> 567 20G<11 116.918 350.248 447>
AnchorPoint: "Anchor-1" 0 0 basechar 0
AnchorPoint: "Anchor-0" 229 587 basechar 0
LayerCount: 2
Back
Fore
SplineSet
109 -203 m 0xa0
 82 -203 62 -201 43 -195 c 1
 43 -130 l 1x60
 75 -130 l 2
 124 -130 170 -101 191 0 c 1
 11 587 l 1
 111 587 l 1
 246.326097043 129.663991722 l 1
 355 587 l 1
 447 587 l 1
 298 30 l 2
 264 -99 211 -203 109 -203 c 0xa0
EndSplineSet
EndChar

StartChar: yacute
Encoding: 253 253 254
Width: 457
VWidth: 1263
GlyphClass: 2
Flags: W
HStem: -203 73<43.8914 136.42> -195 65<43 107.739> 567 20G<11 116.918 350.248 447> 787 20G<245.162 359>
LayerCount: 2
Back
Fore
SplineSet
240 659 m 1x30
 163 659 l 1
 258 807 l 1
 359 807 l 1
 240 659 l 1x30
109 -203 m 0xb0
 82 -203 62 -201 43 -195 c 1
 43 -130 l 1x70
 75 -130 l 2
 124 -130 170 -101 191 0 c 1
 11 587 l 1
 111 587 l 1
 246.326097043 129.663991722 l 1
 355 587 l 1
 447 587 l 1
 298 30 l 2
 264 -99 211 -203 109 -203 c 0xb0
EndSplineSet
EndChar

StartChar: ycircumflex
Encoding: 375 375 255
Width: 457
VWidth: 1263
GlyphClass: 2
Flags: W
HStem: -203 73<43.8914 136.42> -195 65<43 107.739> 567 20G<11 116.918 350.248 447>
LayerCount: 2
Back
Fore
SplineSet
230 744 m 1x20
 179 655 l 1
 91 655 l 1
 187 806 l 1
 274 806 l 1
 369 655 l 1
 279 655 l 1
 230 744 l 1x20
109 -203 m 0xa0
 82 -203 62 -201 43 -195 c 1
 43 -130 l 1x60
 75 -130 l 2
 124 -130 170 -101 191 0 c 1
 11 587 l 1
 111 587 l 1
 246.326097043 129.663991722 l 1
 355 587 l 1
 447 587 l 1
 298 30 l 2
 264 -99 211 -203 109 -203 c 0xa0
EndSplineSet
EndChar

StartChar: ydieresis
Encoding: 255 255 256
Width: 457
VWidth: 1263
GlyphClass: 2
Flags: W
HStem: -203 73<43.8914 136.42> -195 65<43 107.739> 567 20G<11 116.918 350.248 447> 701 106<96 193 264 361>
VStem: 96 97<701 807> 264 97<701 807>
LayerCount: 2
Back
Fore
SplineSet
96 701 m 1x3c
 96 807 l 1
 193 807 l 1
 193 701 l 1
 96 701 l 1x3c
264 701 m 1
 264 807 l 1
 361 807 l 1
 361 701 l 1
 264 701 l 1
109 -203 m 0xbc
 82 -203 62 -201 43 -195 c 1
 43 -130 l 1x7c
 75 -130 l 2
 124 -130 170 -101 191 0 c 1
 11 587 l 1
 111 587 l 1
 246.326097043 129.663991722 l 1
 355 587 l 1
 447 587 l 1
 298 30 l 2
 264 -99 211 -203 109 -203 c 0xbc
EndSplineSet
EndChar

StartChar: ygrave
Encoding: 7923 7923 257
Width: 457
VWidth: 1263
GlyphClass: 2
Flags: W
HStem: -203 73<43.8914 136.42> -195 65<43 107.739> 567 20G<11 116.918 350.248 447>
LayerCount: 2
Back
Fore
SplineSet
218 659 m 1x20
 95.0299064364 805.344574158 l 1
 200 805.344574158 l 1
 296 659 l 1
 218 659 l 1x20
109 -203 m 0xa0
 82 -203 62 -201 43 -195 c 1
 43 -130 l 1x60
 75 -130 l 2
 124 -130 170 -101 191 0 c 1
 11 587 l 1
 111 587 l 1
 246.326097043 129.663991722 l 1
 355 587 l 1
 447 587 l 1
 298 30 l 2
 264 -99 211 -203 109 -203 c 0xa0
EndSplineSet
EndChar

StartChar: z
Encoding: 122 122 258
Width: 457
VWidth: 1263
GlyphClass: 2
Flags: W
HStem: 0 82<154 428> 505 82<47 287>
AnchorPoint: "Anchor-1" 0 0 basechar 0
AnchorPoint: "Anchor-0" 229 587 basechar 0
LayerCount: 2
Back
Fore
SplineSet
428 82 m 1
 428 0 l 1
 29 0 l 1
 29 43 l 1
 287 505 l 1
 47 505 l 1
 47 587 l 1
 413 587 l 1
 413 544 l 1
 154 82 l 1
 428 82 l 1
EndSplineSet
EndChar

StartChar: zacute
Encoding: 378 378 259
Width: 457
VWidth: 1263
GlyphClass: 2
Flags: W
HStem: 0 82<154 428> 505 82<47 287> 787 20G<245.162 359>
LayerCount: 2
Back
Fore
SplineSet
240 659 m 1
 163 659 l 1
 258 807 l 1
 359 807 l 1
 240 659 l 1
428 82 m 1
 428 0 l 1
 29 0 l 1
 29 43 l 1
 287 505 l 1
 47 505 l 1
 47 587 l 1
 413 587 l 1
 413 544 l 1
 154 82 l 1
 428 82 l 1
EndSplineSet
EndChar

StartChar: zcaron
Encoding: 382 382 260
Width: 457
VWidth: 1263
GlyphClass: 2
Flags: W
HStem: 0 82<154 428> 505 82<47 287> 787 20G<91 190.364 267.636 369>
LayerCount: 2
Back
Fore
SplineSet
91 807 m 1
 179 807 l 1
 229 719 l 1
 279 807 l 1
 369 807 l 1
 273 657 l 1
 186 657 l 1
 91 807 l 1
428 82 m 1
 428 0 l 1
 29 0 l 1
 29 43 l 1
 287 505 l 1
 47 505 l 1
 47 587 l 1
 413 587 l 1
 413 544 l 1
 154 82 l 1
 428 82 l 1
EndSplineSet
EndChar

StartChar: zdotaccent
Encoding: 380 380 261
Width: 457
VWidth: 1263
GlyphClass: 2
Flags: W
HStem: 0 82<154 428> 505 82<47 287> 701 106<181 278>
VStem: 181 97<701 807>
LayerCount: 2
Back
Fore
SplineSet
181 807 m 1
 278 807 l 1
 278 701 l 1
 181 701 l 1
 181 807 l 1
428 82 m 1
 428 0 l 1
 29 0 l 1
 29 43 l 1
 287 505 l 1
 47 505 l 1
 47 587 l 1
 413 587 l 1
 413 544 l 1
 154 82 l 1
 428 82 l 1
EndSplineSet
EndChar

StartChar: fi
Encoding: 64257 64257 262
Width: 457
VWidth: 1263
GlyphClass: 3
Flags: W
HStem: 0 21G<62 153 311 402> 505 82<10 62 153 255> 697 110<311 402> 739 77<161.866 254.101> 739 64<179.268 255>
VStem: 62 91<0 505 587 730.359> 311 91<0 587 697 807>
LayerCount: 2
Back
Fore
SplineSet
178 816 m 0xd6
 205 816 236 809 255 803 c 1
 255 739 l 1xce
 206 739 l 2
 171 739 153 720 153 686 c 2
 153 587 l 1
 255 587 l 1
 255 505 l 1
 153 505 l 1
 153 0 l 1
 62 0 l 1
 62 505 l 1
 10 505 l 1
 10 587 l 1
 62 587 l 1
 62 681 l 2
 62 748 88 816 178 816 c 0xd6
311 807 m 1xe6
 402 807 l 1
 402 697 l 1
 311 697 l 1
 311 807 l 1xe6
311 587 m 1
 402 587 l 1
 402 0 l 1
 311 0 l 1
 311 587 l 1
EndSplineSet
Ligature2: "'liga' Standard Ligatures lookup 14 subtable" f i
EndChar

StartChar: fl
Encoding: 64258 64258 263
Width: 457
VWidth: 1263
GlyphClass: 3
Flags: W
HStem: 0 21G<62 153 311 402> 505 82<10 62 153 255> 739 77<161.866 254.101> 739 64<179.268 255> 787 20G<311 402>
VStem: 62 91<0 505 587 730.359> 311 91<0 807>
LayerCount: 2
Back
Fore
SplineSet
178 816 m 0xe6
 205 816 236 809 255 803 c 1
 255 739 l 1xd6
 206 739 l 2
 171 739 153 720 153 686 c 2
 153 587 l 1
 255 587 l 1
 255 505 l 1
 153 505 l 1
 153 0 l 1
 62 0 l 1
 62 505 l 1
 10 505 l 1
 10 587 l 1
 62 587 l 1
 62 681 l 2
 62 748 88 816 178 816 c 0xe6
311 807 m 1xce
 402 807 l 1
 402 0 l 1
 311 0 l 1
 311 807 l 1xce
EndSplineSet
Ligature2: "'liga' Standard Ligatures lookup 14 subtable" f l
EndChar

StartChar: ordfeminine
Encoding: 170 170 264
Width: 338
VWidth: 1263
GlyphClass: 2
Flags: W
HStem: 404 60<97.6535 194.949 288.46 331.62> 418 46<290.888 332> 592 60<116.548 222> 763 58<116.534 211.881>
VStem: 23 68<470.466 568.393> 38 66<690 750.008> 222 66<491.977 592 652 753.622>
LayerCount: 2
Back
Fore
SplineSet
332 464 m 1x76
 332 418 l 1x76
 324 412 309 408 290 408 c 0
 257 408 234 427 225 456 c 1
 205 423 169 404 129 404 c 0
 89 404 23 420 23 517 c 0xba
 23 629 107 652 222 652 c 1
 222 700 l 2
 222 737 210 763 163 763 c 0
 119 763 104 731 104 701 c 2
 104 690 l 1
 38 690 l 1
 38 709 l 2
 38 784 91 821 167 821 c 0
 248 821 288 780 288 709 c 2
 288 488 l 2
 288 470 298 464 307 464 c 2xb6
 332 464 l 1x76
222 592 m 1
 145 592 91 581 91 520 c 0
 91 477 110 464 143 464 c 0xba
 180 464 222 495 222 558 c 2
 222 592 l 1
EndSplineSet
EndChar

StartChar: ordmasculine
Encoding: 186 186 265
Width: 333
VWidth: 1263
GlyphClass: 2
Flags: W
HStem: 403 59<119.342 212.202> 762 59<119.342 212.202>
VStem: 24 68<491.663 731.884> 241 68<491.663 731.884>
LayerCount: 2
Back
Fore
SplineSet
167 821 m 0
 260 821 309 755 309 611 c 0
 309 468 260 403 167 403 c 0
 74 403 24 468 24 611 c 0
 24 755 74 821 167 821 c 0
167 762 m 0
 116 762 92 716 92 626 c 2
 92 597 l 2
 92 507 116 462 167 462 c 0
 216 462 241 507 241 597 c 2
 241 626 l 2
 241 716 216 762 167 762 c 0
EndSplineSet
EndChar

StartChar: nsuperior
Encoding: 8319 8319 266
Width: 333
VWidth: 1263
GlyphClass: 2
Flags: W
HStem: 762 59<132.654 219.233>
VStem: 39 67<412 733.625> 39 52<768 812> 230 66<412 751.748>
LayerCount: 2
Back
Fore
SplineSet
197 821 m 0xb0
 256 821 296 788 296 697 c 2
 296 412 l 1
 230 412 l 1
 230 693 l 2
 230 746 209 762 177 762 c 0
 139 762 106 722 106 655 c 2
 106 412 l 1
 39 412 l 1xd0
 39 812 l 1
 91 812 l 1
 91 768 l 1
 111 805 157 821 197 821 c 0xb0
EndSplineSet
EndChar

StartChar: Delta
Encoding: 916 916 267
Width: 623
VWidth: 1263
GlyphClass: 2
Flags: W
HStem: 0 93<130 486> 745 20G<244.546 384.454>
LayerCount: 2
Back
Fore
SplineSet
611 0 m 1
 18 0 l 1
 18 43 l 1
 251 765 l 1
 378 765 l 1
 611 43 l 1
 611 0 l 1
130 93 m 1
 486 93 l 1
 313 658 l 1
 130 93 l 1
EndSplineSet
Position2: "'cpsp' Capital Spacing lookup 0 subtable" dx=6 dy=0 dh=13 dv=0
EndChar

StartChar: Omega
Encoding: 937 937 268
Width: 857
VWidth: 1263
GlyphClass: 2
Flags: W
HStem: 0 93<128 230 626 730> 0 68<339.916 392 465 521.527> 688 91<337.272 519.394>
VStem: 128 102<228.261 557.094> 628 102<231.157 557.094>
LayerCount: 2
Back
Fore
SplineSet
428 779 m 0xb8
 616 779 730 649 730 383 c 0
 730 253 692 156 626 90 c 1
 634 90 641 91 649 91 c 0
 665 92 683 93 702 93 c 2
 730 93 l 1
 730 0 l 1xb8
 465 0 l 1
 465 68 l 1
 566 89 628 178 628 336 c 2
 628 410 l 2
 628 597 552 688 428 688 c 0
 305 688 230 597 230 410 c 2
 230 341 l 2
 230 181 292 91 392 68 c 1
 392 0 l 1x78
 128 0 l 1
 128 93 l 1
 155 93 l 2
 165 93 177 92 191 92 c 0
 204 91 216 90 230 90 c 1
 164 156 128 253 128 383 c 0
 128 649 241 779 428 779 c 0xb8
EndSplineSet
Position2: "'cpsp' Capital Spacing lookup 0 subtable" dx=6 dy=0 dh=13 dv=0
EndChar

StartChar: mu
Encoding: 956 956 269
Width: 508
VWidth: 1263
GlyphClass: 2
Flags: W
HStem: -14 82<179.607 296.534> 0 21G<369.471 442> 567 20G<67 159 351 442>
VStem: 67 92<-193 -5 89.1846 587> 351 91<130.541 587> 373 69<0 39.6667>
LayerCount: 2
Back
Fore
SplineSet
212 -14 m 0xb4
 192 -14 174 -11 159 -5 c 1
 159 -193 l 1
 67 -193 l 1
 67 587 l 1
 159 587 l 1
 159 159 l 2
 159 87 194 68 241 68 c 0
 299 68 351 128 351 229 c 2
 351 587 l 1
 442 587 l 1xb8
 442 0 l 1
 373 0 l 1x74
 361 68 l 1
 329 10 270 -14 212 -14 c 0xb4
EndSplineSet
EndChar

StartChar: pi
Encoding: 960 960 270
Width: 621
VWidth: 1263
GlyphClass: 2
Flags: W
HStem: 0 21G<75 182.5 424 519> 505 82<34.1207 147 237 413 505 601>
VStem: 147 90<263.046 505> 413 92<1.60412 505>
LayerCount: 2
Back
Fore
SplineSet
505 174 m 2
 505 82 510 34 519 0 c 1
 429 0 l 1
 419 18 413 74 413 164 c 2
 413 505 l 1
 237 505 l 1
 231 361 200 100 165 0 c 1
 75 0 l 1
 112 119 143 361 147 505 c 1
 84 505 51 501 27 491 c 1
 14 553 l 1
 39 574 89 587 176 587 c 2
 601 587 l 1
 601 505 l 1
 505 505 l 1
 505 174 l 2
EndSplineSet
EndChar

StartChar: uni0904
Encoding: 2308 2308 271
Width: 745
VWidth: 1263
GlyphClass: 2
Flags: W
HStem: 64 81<174.852 300.9> 303 83<431 567> 388 78<182 292.22> 683 82<470 568 661 758> 698 80<183.25 296.01> 885 81<250.69 560.821>
VStem: 47 93<181.378 272> 59 94<578 666.439> 152 90<974.11 1045> 328 94<502.726 666.84> 340 94<187.129 302.136> 567 91<-1 303 386 682 765 878.379>
AnchorPoint: "Anchor-5" 0 0 basechar 0
AnchorPoint: "Anchor-4" 389 0 basechar 0
AnchorPoint: "Anchor-3" 613 0 basechar 0
AnchorPoint: "Anchor-2" 614 765 basechar 0
LayerCount: 2
Back
Fore
SplineSet
758 682 m 1xf4d0
 658 682 l 1
 658 -1 l 1
 567 -1 l 1
 567 303 l 1
 431 303 l 1
 434 290 434 277 434 263 c 0
 434 140 358 64 239 64 c 0
 118 64 47 138 47 248 c 0
 47 254 48 267 49 272 c 1
 140 272 l 1
 140 258 l 2
 140 185 175 145 236 145 c 0
 299 145 340 188 340 269 c 0xf6b0
 340 354 295 388 234 388 c 2
 182 388 l 1
 182 466 l 1
 236 466 l 2
 289 466 328 507 328 585 c 0
 328 662 292 698 241 698 c 0
 189 698 153 665 153 590 c 2
 153 578 l 1
 62 578 l 1
 61 583 59 596 59 602 c 0
 59 709 134 778 241 778 c 0xed50
 352 778 422 711 422 592 c 0
 422 506 384 461 332 434 c 1
 332 431 l 1
 357 423 380 407 398 386 c 1
 568 386 l 1
 568 683 l 1
 470 683 l 1
 470 765 l 1
 570 765 l 1
 570 836 l 2
 570 870 552 885 512 885 c 2
 299 885 l 2
 195 885 152 925 152 1017 c 2
 152 1045 l 1
 242 1045 l 1
 242 1017 l 2
 242 982 259 966 299 966 c 2
 512 966 l 2
 617 966 661 927 661 836 c 2
 661 765 l 1
 758 765 l 1
 758 682 l 1xf4d0
EndSplineSet
MultipleSubs2: "'nukt' Nukta Forms lookup 18 subtable" adeva eshortvowelsigndeva
EndChar

StartChar: uni0972
Encoding: 2418 2418 272
Width: 745
VWidth: 1263
GlyphClass: 2
Flags: W
HStem: 64 81<174.852 300.9> 303 83<431 567> 388 78<182 292.22> 682 84.8988<470 568 658 757> 698 80<183.25 296.01> 837 72<554.411 676.251>
VStem: 47 93<181.378 272> 59 94<578 666.439> 328 94<502.726 666.84> 340 94<187.129 302.136> 434 89<940.087 1009> 567 91<-1 303 386 682> 705 88<939.516 1009>
AnchorPoint: "Anchor-5" 0 0 basechar 0
AnchorPoint: "Anchor-4" 389 0 basechar 0
AnchorPoint: "Anchor-3" 614 0 basechar 0
AnchorPoint: "Anchor-2" 614 765 basechar 0
LayerCount: 2
Back
Fore
SplineSet
613 837 m 0xe438
 502 837 434 908 434 1009 c 1
 523 1009 l 1
 523 941 566 909 613 909 c 0
 667 909 705 941 705 1009 c 1
 793 1009 l 1
 793 908 727 837 613 837 c 0xe438
757 682 m 1xf598
 658 682 l 1
 658 -1 l 1
 567 -1 l 1
 567 303 l 1
 431 303 l 1
 434 290 434 277 434 263 c 0
 434 140 358 64 239 64 c 0
 118 64 47 138 47 248 c 0
 47 254 48 267 49 272 c 1
 140 272 l 1
 140 258 l 2
 140 185 175 145 236 145 c 0
 299 145 340 188 340 269 c 0xf658
 340 354 295 388 234 388 c 2
 182 388 l 1
 182 466 l 1
 236 466 l 2
 289 466 328 507 328 585 c 0
 328 662 292 698 241 698 c 0
 189 698 153 665 153 590 c 2
 153 578 l 1
 62 578 l 1
 61 583 59 596 59 602 c 0
 59 709 134 778 241 778 c 0xed98
 352 778 422 711 422 592 c 0
 422 506 384 461 332 434 c 1
 332 431 l 1
 357 423 380 407 398 386 c 1
 568 386 l 1
 568 683 l 1
 470 683 l 1
 470 766.898796164 l 1
 757 766.898796164 l 1
 757 682 l 1xf598
EndSplineSet
MultipleSubs2: "'nukt' Nukta Forms lookup 18 subtable" adeva ecandravowelsigndeva
EndChar

StartChar: adeva
Encoding: 2309 2309 273
Width: 745
VWidth: 1263
GlyphClass: 2
Flags: W
HStem: 64 81<174.852 300.9> 303 83<431 567> 388 78<182 292.22> 682 83<470 568 658 758> 698 80<183.25 296.01>
VStem: 47 93<181.378 272> 59 94<578 666.439> 328 94<502.726 666.84> 340 94<187.129 302.136> 567 91<-1 303 386 682>
AnchorPoint: "Anchor-5" 0 0 basechar 0
AnchorPoint: "Anchor-4" 389 0 basechar 0
AnchorPoint: "Anchor-3" 614 0 basechar 0
AnchorPoint: "Anchor-2" 614 765 basechar 0
LayerCount: 2
Back
Fore
SplineSet
758 682 m 1xf340
 658 682 l 1
 658 -1 l 1
 567 -1 l 1
 567 303 l 1
 431 303 l 1
 434 290 434 277 434 263 c 0
 434 140 358 64 239 64 c 0
 118 64 47 138 47 248 c 0
 47 254 48 267 49 272 c 1
 140 272 l 1
 140 258 l 2
 140 185 175 145 236 145 c 0
 299 145 340 188 340 269 c 0xf4c0
 340 354 295 388 234 388 c 2
 182 388 l 1
 182 466 l 1
 236 466 l 2
 289 466 328 507 328 585 c 0
 328 662 292 698 241 698 c 0
 189 698 153 665 153 590 c 2
 153 578 l 1
 62 578 l 1
 61 583 59 596 59 602 c 0
 59 709 134 778 241 778 c 0xeb40
 352 778 422 711 422 592 c 0
 422 506 384 461 332 434 c 1
 332 431 l 1
 357 423 380 407 398 386 c 1
 568 386 l 1
 568 683 l 1
 470 683 l 1
 470 765 l 1
 758 765 l 1
 758 682 l 1xf340
EndSplineSet
EndChar

StartChar: aadeva
Encoding: 2310 2310 274
Width: 1021
VWidth: 1263
GlyphClass: 2
Flags: W
HStem: 64 81<174.852 300.9> 303 83<431 567> 388 78<182 292.22> 682 83<470 568 658 836 928 1034> 698 80<183.25 296.01>
VStem: 47 93<181.378 272> 59 94<578 666.439> 328 94<502.726 666.84> 340 94<187.129 302.136> 567 91<-1 303 386 682> 836 92<-1 682>
AnchorPoint: "Anchor-5" 0 0 basechar 0
AnchorPoint: "Anchor-4" 389 0 basechar 0
AnchorPoint: "Anchor-3" 884 0 basechar 0
AnchorPoint: "Anchor-2" 884 765 basechar 0
LayerCount: 2
Back
Fore
SplineSet
1034 682 m 1xf360
 928 682 l 1
 928 -1 l 1
 836 -1 l 1
 836 682 l 1
 658 682 l 1
 658 -1 l 1
 567 -1 l 1
 567 303 l 1
 431 303 l 1
 434 290 434 277 434 263 c 0
 434 140 358 64 239 64 c 0
 118 64 47 138 47 248 c 0
 47 254 48 267 49 272 c 1
 140 272 l 1
 140 258 l 2
 140 185 175 145 236 145 c 0
 299 145 340 188 340 269 c 0xf4e0
 340 354 295 388 234 388 c 2
 182 388 l 1
 182 466 l 1
 236 466 l 2
 289 466 328 507 328 585 c 0
 328 662 292 698 241 698 c 0
 189 698 153 665 153 590 c 2
 153 578 l 1
 62 578 l 1
 61 583 59 596 59 602 c 0
 59 709 134 778 241 778 c 0xeb60
 352 778 422 711 422 592 c 0
 422 506 384 461 332 434 c 1
 332 431 l 1
 357 423 380 407 398 386 c 1
 568 386 l 1
 568 683 l 1
 470 683 l 1
 470 765 l 1
 1034 765 l 1
 1034 682 l 1xf360
EndSplineSet
MultipleSubs2: "'nukt' Nukta Forms lookup 18 subtable" adeva uni093E
EndChar

StartChar: ideva
Encoding: 2311 2311 275
Width: 512
VWidth: 1263
GlyphClass: 2
Flags: W
HStem: -14 81<180.07 328.753> 251 84<172.48 337.5> 467 81<179.934 333> 683 82<-13 333 426 525>
VStem: 51 90<-109 19 104.685 183> 63 96<350.056 445.481> 333 93<548 683> 364 96<101.149 224.431>
AnchorPoint: "Anchor-5" 0 0 basechar 0
AnchorPoint: "Anchor-4" 0 0 basechar 0
AnchorPoint: "Anchor-3" 275 0 basechar 0
AnchorPoint: "Anchor-2" 379 765 basechar 0
LayerCount: 2
Back
Fore
SplineSet
246 467 m 2xf6
 198 467 159 446 159 397 c 0xf6
 159 358 184 335 231 335 c 2
 278 335 l 2
 393 335 460 270 460 163 c 0
 460 43 381 -14 266 -14 c 0
 213 -14 171 -1 141 19 c 1
 141 -109 l 1
 51 -109 l 1
 51 183 l 1
 141 183 l 1
 141 172 l 2
 141 99 192 67 255 67 c 0
 317 67 364 97 364 164 c 0xf9
 364 221 330 251 272 251 c 2
 235 251 l 2
 121 251 63 301 63 397 c 0
 63 508 142 548 251 548 c 2
 333 548 l 1
 333 683 l 1
 -13 683 l 1
 -13 765 l 1
 525 765 l 1
 525 683 l 1
 426 683 l 1
 426 467 l 1
 246 467 l 2xf6
EndSplineSet
EndChar

StartChar: iideva
Encoding: 2312 2312 276
Width: 512
VWidth: 1263
GlyphClass: 2
Flags: W
HStem: -14 81<180.878 330.207> 251 84<173.48 338.5> 467 81<181.795 335> 683 82<-11 318 426 525> 962 83<409.022 485>
VStem: 52 91<-109 19 104.685 183> 64 96<350.056 445.481> 279 92<797.198 927.048> 335 91<548 683> 365 96<101.149 224.431>
AnchorPoint: "Anchor-5" 0 0 basechar 0
AnchorPoint: "Anchor-4" 0 0 basechar 0
AnchorPoint: "Anchor-3" 342 0 basechar 0
AnchorPoint: "Anchor-2" 342 765 basechar 0
LayerCount: 2
Back
Fore
SplineSet
248 467 m 2xf880
 200 467 160 446 160 397 c 0
 160 358 185 335 232 335 c 2
 279 335 l 2xfb
 394 335 461 270 461 163 c 0
 461 43 383 -14 268 -14 c 0
 215 -14 173 -1 143 19 c 1
 143 -109 l 1
 52 -109 l 1
 52 183 l 1
 143 183 l 1
 143 172 l 2
 143 99 193 67 256 67 c 0
 318 67 365 97 365 164 c 0xfc40
 365 221 331 251 273 251 c 2
 236 251 l 2
 122 251 64 301 64 397 c 0
 64 508 144 548 253 548 c 2
 335 548 l 1
 335 683 l 1xfa80
 -11 683 l 1
 -11 765 l 1
 318 765 l 1
 291 809 279 851 279 890 c 0
 279 981 356 1045 460 1045 c 0
 468 1045 480 1044 485 1043 c 1
 485 962 l 1
 416 961 371 927 371 870 c 0xf9
 371 838 382 804 403 765 c 1
 525 765 l 1
 525 683 l 1
 426 683 l 1
 426 467 l 1
 248 467 l 2xf880
EndSplineSet
MultipleSubs2: "'nukt' Nukta Forms lookup 18 subtable" ideva uni0930094D
EndChar

StartChar: udeva
Encoding: 2313 2313 277
Width: 495
VWidth: 1263
GlyphClass: 2
Flags: W
HStem: 64 81<171.851 330.811> 383 73<181 317.491> 683 82<-13 321.845 412 508>
VStem: 39 91<188.728 283> 360 91<499.373 644.7> 373 92<188.005 340.69>
AnchorPoint: "Anchor-5" 0 0 basechar 0
AnchorPoint: "Anchor-4" 0 0 basechar 0
AnchorPoint: "Anchor-3" 248 0 basechar 0
AnchorPoint: "Anchor-2" 248 760 basechar 0
LayerCount: 2
Back
Fore
SplineSet
508 682 m 1xf8
 412 682 l 1
 437 654 451 617 451 570 c 0xf8
 451 513 410 456 351 427 c 1
 351 423 l 1
 419 399 465 334 465 259 c 0
 465 143 381 64 255 64 c 0
 125 64 39 137 39 246 c 0
 39 259 40 270 43 283 c 1
 130 283 l 1
 130 269 l 2
 130 188 171 145 248 145 c 0
 324 145 373 180 373 265 c 0xf4
 373 358 312 383 245 383 c 2
 181 383 l 1
 181 456 l 1
 246 456 l 2
 308 456 360 494 360 572 c 0
 360 652 310 683 251 683 c 2
 -13 683 l 1
 -13 765 l 1
 508 765 l 1
 508 682 l 1xf8
EndSplineSet
EndChar

StartChar: uudeva
Encoding: 2314 2314 278
Width: 795
VWidth: 1263
GlyphClass: 2
Flags: W
HStem: 64 81<176.495 338.034 554 640.238> 383 73<181 317.073> 390 81<515.914 645.536> 683 82<-13 321.845 410 808>
VStem: 39 91<192.07 283> 360 90<498.659 645.2> 679 91<182.776 354.173>
LayerCount: 2
Back
Fore
SplineSet
808 683 m 1xde
 410 683 l 1
 435 655 450 618 450 571 c 0
 450 514 409 457 350 428 c 1
 350 424 l 1
 379 413 404 395 422 368 c 1
 446 427 501 471 586 471 c 0
 695 471 770 389 770 265 c 0
 770 135 695 59 580 59 c 0
 574 59 562 61 554 61 c 1
 554 141 l 1
 570 141 l 2
 638 141 679 187 679 254 c 2
 679 278 l 2
 679 351 645 390 582 390 c 0xbe
 494.643776372 390 479.162038355 319.810191776 464 244 c 0
 443 157 413 64 255 64 c 0
 115 64 39 146 39 246 c 0
 39 259 40 270 43 283 c 1
 130 283 l 1
 130 269 l 2
 130 188 174 145 256 145 c 0
 333 145 383 180 383 265 c 0
 383 358 316 383 245 383 c 2
 181 383 l 1
 181 456 l 1
 246 456 l 2
 308 456 360 494 360 572 c 0
 360 652 310 683 251 683 c 2
 -13 683 l 1
 -13 765 l 1
 808 765 l 1
 808 683 l 1xde
EndSplineSet
EndChar

StartChar: rvocalicdeva
Encoding: 2315 2315 279
Width: 847
VWidth: 1263
GlyphClass: 2
Flags: W
HStem: -15 82<673.306 819.708> 0 21G<355 447> 491 76<35 163.647> 683 82<-13 355 447 860>
VStem: 355 92<0 222 361 683> 558 92<89.4547 188.582> 678 91<281.468 398 493 543>
AnchorPoint: "Anchor-5" 0 0 basechar 0
AnchorPoint: "Anchor-4" 0 0 basechar 0
AnchorPoint: "Anchor-3" 400 0 basechar 0
AnchorPoint: "Anchor-2" 400 765 basechar 0
LayerCount: 2
Back
Fore
SplineSet
447 683 m 1x7e
 447 361 l 1
 678 493 l 1
 678 543 l 1
 769 543 l 1
 769 211 l 1
 730 211 l 2
 683 211 650 179 650 139 c 0
 650 99 683 67 730 67 c 0
 765 67 794 73 821 82 c 1
 821 5 l 1
 793 -6 760 -15 725 -15 c 0xbe
 640 -15 558 43 558 140 c 0
 558 220 612 272 678 288 c 1
 678 398 l 1
 447 266 l 1
 447 0 l 1
 355 0 l 1
 355 222 l 1
 35 40 l 1
 35 136 l 1
 277 274 l 1
 227 393 l 2
 194 469 147 491 67 491 c 2
 35 491 l 1
 35 561 l 1
 44 564 66 567 99 567 c 0
 180 567 265.626049715 544.549051787 309 438 c 2
 355 325 l 1
 355 683 l 1
 -13 683 l 1
 -13 765 l 1
 860 765 l 1
 860 683 l 1
 447 683 l 1x7e
EndSplineSet
EndChar

StartChar: rrvocalicdeva
Encoding: 2400 2400 280
Width: 847
VWidth: 1263
GlyphClass: 2
Flags: W
HStem: -188 82<670.864 820.708> 0 21G<355 447> 15 76<670.129 770> 491 76<35 163.647> 683 82<-13 355 448 860>
VStem: 355 93<0 222 362 683> 560 92<-86.5494 1.53459 108.996 197.459> 678 92<284.527 398 494 544>
AnchorPoint: "Anchor-5" 0 0 basechar 0
AnchorPoint: "Anchor-4" 0 0 basechar 0
AnchorPoint: "Anchor-3" 400 0 basechar 0
AnchorPoint: "Anchor-2" 400 765 basechar 0
LayerCount: 2
Back
Fore
SplineSet
448 683 m 1xdf
 448 362 l 1
 679 494 l 1
 679 544 l 1
 770 544 l 1
 770 212 l 1
 719 212 l 2
 675 212 652 186 652 152 c 0
 652 118 684 91 731 91 c 2
 770 91 l 1
 770 15 l 1
 719 15 l 2xbf
 675 15 652 -11 652 -45 c 0
 652 -79 684 -106 731 -106 c 0
 766 -106 795 -100 822 -91 c 1
 822 -168 l 1
 794 -179 761 -188 726 -188 c 0
 641 -188 560 -136 560 -51 c 0
 560 -3 582 33 615 56 c 1
 581 79 558 114 558 159 c 0
 558 230 614 277 678 290 c 1
 678 398 l 1
 447 266 l 1
 447 0 l 1
 355 0 l 1
 355 222 l 1
 35 40 l 1
 35 136 l 1
 277 274 l 1
 227 393 l 2
 194 469 147 491 67 491 c 2
 35 491 l 1
 35 561 l 1
 44 564 66 567 99 567 c 0
 180 567 265.626049715 544.549051787 309 438 c 2
 355 325 l 1
 355 683 l 1
 -13 683 l 1
 -13 765 l 1
 860 765 l 1
 860 683 l 1
 448 683 l 1xdf
EndSplineSet
EndChar

StartChar: lvocalicdeva
Encoding: 2316 2316 281
Width: 770
VWidth: 1263
GlyphClass: 2
Flags: W
HStem: -105 82<582.556 728.708> 0 81<221.431 356> 467 81<170.608 277.265 441.038 553.852> 683 82<-13 586 678 783>
VStem: 37 94<175.353 421.382> 312 95<242 429.221> 467 93<-0.70813 99.1752> 586 92<190.471 432.375 519 683>
AnchorPoint: "Anchor-5" 0 0 basechar 0
AnchorPoint: "Anchor-4" 0 0 basechar 0
AnchorPoint: "Anchor-3" 632 0 basechar 0
AnchorPoint: "Anchor-2" 632 765 basechar 0
LayerCount: 2
Back
Fore
SplineSet
639 121 m 2
 592 121 560 89 560 49 c 0
 560 9 592 -23 639 -23 c 0
 674 -23 703 -17 730 -8 c 1
 730 -85 l 1
 702 -96 669 -105 634 -105 c 0
 549 -105 467 -46 467 51 c 0
 467 129 520 181 586 197 c 1
 586 337 l 2
 586 418 560 467 494 467 c 0
 427 467 407 400 407 328 c 2
 407 242 l 1
 312 242 l 1
 312 328 l 2
 312 400 292 467 224 467 c 0
 158 467 131 403 131 293 c 0
 131 146 191 81 336 81 c 2
 356 81 l 1
 356 5 l 1
 342 1 328 0 313 0 c 0
 135 0 37 94 37 307 c 0
 37 451 101 548 211 548 c 0
 291 548 337 500 357 434 c 1
 376 500 421 548 501 548 c 0
 534 548 563 538 586 519 c 1
 586 683 l 1
 -13 683 l 1
 -13 765 l 1
 783 765 l 1
 783 683 l 1
 678 683 l 1
 678 121 l 1
 639 121 l 2
EndSplineSet
EndChar

